<?xml version="1.0" standalone="no"?>
<!DOCTYPE svg PUBLIC "-//W3C//DTD SVG 20010904//EN"
 "http://www.w3.org/TR/2001/REC-SVG-20010904/DTD/svg10.dtd">
<svg version="1.0" xmlns="http://www.w3.org/2000/svg"
 width="1080.000000pt" height="1080.000000pt" viewBox="0 0 1080.000000 1080.000000"
 preserveAspectRatio="xMidYMid meet">

<g transform="translate(0.000000,1080.000000) scale(0.100000,-0.100000)"
fill="#fff" stroke="none">
<path d="M4440 10749 c-74 -10 -420 -111 -530 -153 -285 -110 -517 -264 -730
-483 -230 -235 -404 -474 -590 -812 -55 -101 -119 -210 -141 -243 -75 -109
-122 -244 -138 -390 -6 -50 -17 -98 -27 -113 -10 -15 -16 -41 -14 -65 5 -92 4
-130 -8 -215 -6 -49 -12 -151 -12 -225 0 -152 -9 -196 -49 -243 -66 -77 -102
-168 -81 -207 10 -19 18 -22 51 -17 38 5 39 4 39 -26 0 -53 -35 -127 -89 -191
-77 -90 -147 -190 -153 -217 -3 -13 -13 -51 -22 -84 -20 -74 -20 -133 -1 -172
23 -46 37 -54 80 -45 33 6 42 15 74 72 23 41 49 72 71 85 19 11 89 75 156 143
84 84 129 122 144 122 21 0 22 -3 16 -50 -4 -27 -21 -91 -39 -142 -31 -91 -32
-96 -32 -273 0 -204 14 -275 86 -459 87 -221 197 -356 354 -437 196 -101 271
-143 295 -164 39 -35 83 -54 166 -71 77 -16 244 -75 321 -113 73 -36 162 -52
358 -62 105 -5 191 -14 193 -19 2 -5 13 -5 26 -1 12 5 52 12 89 16 55 6 75 14
112 42 25 19 70 45 100 58 88 39 168 103 206 164 19 31 94 116 166 190 80 81
136 146 142 165 5 17 15 74 21 126 7 52 20 111 31 131 20 40 69 234 94 374 30
165 39 288 37 512 -1 219 -2 224 -32 312 -25 75 -30 105 -30 185 0 71 -6 113
-22 162 -19 59 -32 77 -136 185 -63 65 -136 132 -162 149 -93 59 -294 142
-484 198 -187 55 -194 56 -318 57 -117 0 -129 -2 -155 -23 -32 -26 -144 -99
-222 -145 -30 -18 -64 -39 -77 -47 -12 -8 -53 -33 -91 -54 -37 -21 -79 -46
-93 -55 -14 -9 -52 -27 -85 -39 -33 -13 -71 -29 -85 -37 -50 -27 -106 -53
-135 -61 -21 -7 -33 -19 -41 -42 -5 -18 -20 -39 -32 -48 -35 -25 -28 -51 22
-75 24 -12 51 -34 59 -49 l17 -27 67 23 c38 13 78 24 90 24 13 0 64 21 115 48
115 58 229 106 288 120 25 6 104 18 176 27 122 16 135 16 180 1 74 -25 163
-21 242 11 115 46 150 41 332 -49 85 -42 178 -86 205 -98 79 -34 89 -54 96
-200 4 -98 11 -140 31 -195 19 -52 27 -99 31 -182 4 -71 3 -113 -3 -113 -6 0
-10 -32 -10 -72 0 -81 -23 -205 -75 -412 -19 -76 -35 -155 -35 -174 0 -19 -4
-51 -10 -71 -5 -20 -12 -49 -15 -64 -3 -15 -33 -56 -66 -90 -160 -163 -174
-185 -166 -252 l5 -40 -76 -37 c-162 -78 -283 -128 -310 -128 -10 0 -50 -16
-91 -35 -71 -34 -75 -35 -202 -35 -89 0 -140 5 -166 15 -37 14 -203 57 -293
76 -111 24 -129 32 -186 85 -61 55 -88 72 -167 100 -46 17 -127 86 -127 110 0
7 -17 26 -37 43 -65 55 -97 94 -119 148 -8 21 -28 63 -43 93 -16 30 -32 66
-36 80 -4 13 -16 36 -27 51 -17 23 -19 39 -15 155 5 168 21 273 74 482 37 146
29 243 -31 367 -40 85 -137 202 -191 232 -22 12 -46 27 -52 33 -21 18 -15 93
13 156 17 38 29 91 35 149 24 226 42 338 60 387 12 29 27 78 36 108 8 30 25
66 38 80 12 14 31 41 40 60 10 19 39 65 66 101 27 37 61 93 75 125 14 33 52
95 83 139 32 44 75 112 96 150 22 39 73 107 115 152 41 45 91 99 110 120 20
21 58 55 85 76 112 84 222 177 309 260 94 90 144 127 174 127 9 0 50 19 89 43
199 116 237 134 372 179 l144 48 116 -24 c64 -13 143 -27 176 -31 130 -13 136
-15 183 -61 58 -58 107 -71 300 -79 139 -6 159 -5 226 15 l74 22 56 -21 c33
-12 80 -21 113 -21 58 0 319 -76 433 -127 55 -24 201 -129 294 -211 58 -50 98
-72 199 -109 79 -28 255 -114 357 -173 84 -49 112 -77 243 -237 82 -100 123
-142 175 -176 72 -47 78 -56 116 -159 14 -37 36 -87 50 -110 14 -24 37 -77 51
-118 50 -139 94 -175 203 -164 57 6 65 5 56 -7 -12 -14 -25 -52 -44 -126 -5
-22 -28 -63 -50 -90 -23 -26 -53 -73 -67 -103 -34 -70 -89 -142 -201 -264 -66
-72 -93 -109 -101 -139 -6 -23 -20 -73 -31 -112 -84 -291 -90 -323 -90 -446 0
-86 5 -139 20 -191 15 -59 19 -104 19 -233 -1 -138 3 -176 26 -278 37 -165
120 -394 208 -577 41 -85 91 -204 111 -265 34 -107 97 -307 104 -332 5 -18
-45 -17 -98 2 -23 8 -60 33 -81 55 -60 62 -118 85 -242 99 -59 7 -126 18 -148
26 -47 17 -194 20 -233 5 -21 -8 -26 -16 -26 -45 0 -46 -30 -77 -113 -116 -34
-17 -73 -37 -87 -44 -14 -8 -44 -15 -68 -15 -23 0 -74 -11 -112 -25 -39 -14
-101 -36 -140 -50 -38 -14 -91 -41 -116 -60 -29 -23 -57 -35 -77 -35 -25 -1
-38 -9 -59 -37 -25 -33 -28 -44 -28 -120 0 -54 5 -92 14 -106 8 -12 16 -60 19
-107 4 -74 12 -103 61 -224 37 -90 60 -165 66 -210 31 -231 44 -304 60 -352
10 -29 22 -75 25 -101 7 -47 36 -100 114 -203 45 -60 65 -74 90 -60 11 5 36
10 57 10 20 0 42 6 48 14 6 8 36 18 67 21 53 7 58 5 91 -24 20 -17 61 -43 93
-57 47 -22 67 -26 123 -22 144 8 251 95 435 350 123 170 126 174 168 159 60
-21 89 -14 130 28 42 45 75 124 84 203 10 91 13 96 45 103 67 15 95 95 60 171
-30 66 -27 96 11 156 48 75 51 145 11 275 -50 159 -49 202 2 189 40 -10 87
-67 138 -168 61 -121 81 -185 118 -367 30 -149 58 -451 46 -495 -3 -11 -11
-130 -16 -263 -10 -234 -12 -244 -35 -279 -16 -24 -25 -51 -25 -76 0 -29 -8
-50 -29 -77 -44 -57 -51 -75 -51 -145 0 -56 -6 -77 -41 -148 -75 -153 -100
-221 -105 -288 -3 -36 -15 -108 -26 -160 -11 -52 -22 -108 -25 -125 -8 -42
-99 -197 -135 -231 l-31 -29 6 250 c4 138 11 264 16 280 6 17 21 59 33 95 15
45 25 102 29 185 10 153 24 272 38 308 6 16 11 76 11 134 l0 105 -40 41 -40
40 -73 -7 c-45 -4 -81 -13 -97 -25 -55 -40 -97 -131 -131 -281 -10 -47 -25
-108 -33 -137 -8 -28 -16 -90 -18 -138 -3 -81 -5 -90 -33 -120 -16 -18 -46
-53 -64 -78 -23 -30 -49 -51 -76 -62 -23 -8 -52 -27 -65 -40 -20 -21 -33 -25
-80 -25 -31 0 -121 -9 -201 -21 -103 -14 -223 -22 -421 -26 l-276 -6 1 224 c2
165 -2 237 -12 272 -13 45 -17 49 -85 82 -100 48 -195 100 -209 114 -7 7 -71
11 -199 11 -208 0 -188 6 -249 -74 -24 -32 -28 -45 -23 -75 6 -35 -17 -216
-37 -296 -6 -22 -23 -96 -39 -165 -53 -230 -120 -472 -151 -544 -17 -39 -40
-93 -52 -121 l-22 -50 -8 40 c-5 22 -12 157 -17 300 -5 188 -12 277 -24 320
-9 33 -27 103 -41 155 -14 52 -29 104 -34 115 -70 152 -87 202 -94 278 -4 40
-16 77 -41 120 -58 104 -77 196 -83 397 -6 189 -13 217 -61 247 -15 9 -43 27
-63 40 -22 14 -50 23 -75 23 -91 0 -127 -100 -85 -238 11 -39 21 -96 21 -127
0 -54 -1 -56 -22 -49 -53 16 -177 85 -223 123 -59 49 -158 101 -192 101 -13 0
-56 7 -96 16 -68 16 -75 20 -142 89 -88 90 -146 115 -268 115 -72 0 -87 3
-120 26 -21 14 -68 38 -105 52 -60 25 -70 33 -120 102 -55 77 -84 128 -96 167
-6 18 1 30 28 58 60 60 49 110 -46 214 -35 37 -94 103 -132 146 -39 43 -96 97
-129 121 -59 44 -176 139 -250 204 -22 19 -77 85 -122 145 -110 149 -182 224
-301 317 -56 43 -142 115 -190 161 -49 45 -107 93 -129 106 -22 14 -69 46
-105 71 -36 26 -87 59 -115 73 -27 14 -86 60 -130 102 -44 43 -121 110 -171
151 -108 86 -144 138 -178 258 -28 95 -32 170 -13 226 19 56 41 51 126 -34 74
-73 143 -115 189 -116 12 0 38 7 57 14 31 13 35 19 35 51 0 47 -18 88 -78 177
-27 40 -56 87 -66 105 -20 39 -21 82 -2 89 8 3 52 -6 98 -20 124 -38 257 -51
324 -31 29 8 56 20 59 25 9 15 -83 68 -155 90 -36 10 -117 31 -180 45 -63 14
-146 33 -183 42 -86 20 -141 13 -218 -29 -153 -81 -281 -306 -282 -498 -1 -80
2 -92 47 -195 84 -196 109 -228 326 -414 74 -64 164 -143 200 -176 36 -34 108
-97 160 -140 150 -127 225 -201 244 -244 18 -38 18 -40 -8 -127 -14 -49 -26
-98 -26 -109 0 -11 -12 -38 -25 -60 -24 -38 -25 -48 -25 -194 l0 -153 69 -155
c39 -84 83 -170 99 -191 31 -40 71 -114 125 -232 29 -65 35 -89 40 -177 6
-123 21 -154 92 -200 152 -99 194 -142 309 -313 46 -69 109 -152 139 -186 54
-59 102 -146 128 -234 8 -28 34 -66 69 -104 169 -185 183 -209 260 -449 6 -21
43 -84 81 -140 39 -56 117 -173 174 -259 58 -86 138 -192 179 -236 41 -44 81
-93 90 -109 8 -16 22 -35 31 -43 8 -7 42 -65 74 -129 32 -64 63 -125 68 -136
6 -11 26 -51 45 -90 84 -165 153 -293 182 -333 17 -24 40 -59 51 -77 24 -39
242 -297 340 -402 39 -42 95 -96 125 -120 30 -25 66 -61 80 -82 72 -105 128
-181 166 -227 24 -28 65 -95 91 -149 42 -87 52 -100 88 -116 22 -10 47 -19 56
-19 10 0 40 -16 69 -35 88 -59 193 -86 355 -92 132 -5 147 -4 260 25 182 46
184 46 298 18 134 -32 230 -39 351 -26 190 20 303 64 414 163 37 32 86 68 108
78 23 11 64 39 93 62 28 23 89 67 136 97 80 52 121 93 202 205 30 41 129 215
169 295 44 89 104 296 104 356 -1 27 -7 60 -15 74 -8 14 -14 38 -15 53 0 51
-29 95 -76 117 -40 20 -48 21 -100 9 -31 -7 -71 -23 -89 -35 -18 -12 -43 -25
-55 -29 -13 -4 -53 -36 -89 -71 -68 -65 -86 -79 -206 -160 -38 -25 -80 -55
-92 -66 -21 -20 -21 -20 -28 1 -3 12 10 67 33 138 22 65 55 168 72 228 20 66
44 124 60 145 46 59 54 82 60 175 6 82 11 100 58 198 29 59 72 133 97 165 49
63 69 112 86 209 8 48 20 75 45 106 19 23 42 54 52 69 14 23 50 48 67 48 10 0
3 -458 -7 -530 -6 -41 -11 -112 -12 -158 l-1 -84 37 -34 c33 -29 45 -34 89
-34 27 0 60 5 72 11 36 19 186 170 223 226 19 28 52 69 72 90 95 98 222 303
222 360 0 12 4 33 10 47 16 42 52 226 60 301 5 59 18 93 77 215 119 243 132
283 134 404 2 76 -2 111 -12 126 -11 17 -12 42 -6 118 4 53 10 159 13 235 5
110 9 137 21 137 25 0 70 28 89 57 12 19 20 56 25 113 9 115 41 196 144 361 5
9 29 50 51 90 76 135 93 155 294 363 109 113 207 220 216 238 9 18 27 47 39
63 12 17 52 90 89 164 37 74 76 145 86 159 11 14 20 31 20 38 0 7 16 46 36 86
33 69 48 106 95 238 29 83 37 297 15 432 -9 57 -25 162 -36 233 -17 108 -27
144 -60 212 -37 76 -52 93 -185 216 -80 74 -159 141 -177 150 -78 38 -126 57
-143 57 -10 0 -32 11 -49 24 -17 12 -45 30 -63 40 -66 34 -323 11 -366 -33
-20 -19 -23 -43 -19 -137 3 -68 41 -114 96 -114 31 0 47 10 101 60 35 33 73
60 84 60 11 0 43 -20 71 -45 58 -51 167 -105 214 -105 25 0 43 -11 83 -52 60
-61 87 -117 137 -282 66 -218 71 -259 58 -496 -7 -122 -11 -142 -40 -210 -18
-41 -37 -84 -41 -95 -7 -19 -81 -167 -175 -350 -89 -173 -200 -313 -316 -399
-95 -69 -199 -192 -260 -306 l-15 -28 -37 24 -37 24 14 41 c8 23 15 63 15 89
0 88 -53 145 -233 251 -31 19 -62 53 -107 118 -38 56 -95 121 -147 168 -46 42
-113 111 -148 153 -52 63 -64 84 -70 125 l-8 50 27 -25 c15 -13 37 -40 48 -58
12 -19 33 -39 47 -46 30 -12 111 -98 184 -193 46 -61 181 -175 242 -205 49
-25 94 -29 184 -17 128 16 194 35 295 86 130 65 218 126 298 206 110 112 133
183 77 243 -21 22 -22 34 -27 258 -4 174 -2 243 8 265 20 49 4 81 -95 191 -52
58 -97 117 -100 131 -3 15 -14 34 -23 42 -31 26 -191 99 -231 104 -35 5 -44 2
-71 -25 -57 -58 -36 -119 60 -167 36 -18 82 -51 103 -72 l37 -39 -35 -13 c-56
-20 -41 -51 25 -51 15 0 50 -15 76 -32 l49 -33 3 -215 2 -215 -55 -135 c-104
-253 -118 -272 -234 -307 -70 -22 -239 -24 -296 -4 -62 21 -221 118 -249 152
-19 22 -26 42 -26 73 0 36 -4 45 -26 56 -30 17 -170 217 -190 271 -7 21 -22
51 -33 66 -42 57 -71 158 -71 244 0 58 -5 90 -19 117 -38 75 -81 220 -92 312
-6 52 -12 230 -13 395 -1 293 0 303 27 425 37 171 63 246 94 270 33 26 88 26
155 -1 271 -107 336 -126 352 -100 3 5 -8 27 -24 49 -22 31 -53 52 -130 91
-56 28 -112 51 -125 51 -39 0 -75 18 -69 34 7 18 115 76 143 76 27 0 87 -38
126 -80 17 -17 48 -41 70 -52 78 -39 134 -90 151 -135 10 -24 30 -55 47 -69
28 -23 28 -26 12 -38 -17 -13 -17 -14 6 -29 52 -34 119 -28 140 13 57 110 71
152 64 199 -8 61 -54 142 -107 189 -75 67 -139 136 -213 227 -43 53 -106 117
-155 155 -108 84 -116 94 -136 152 -27 83 -161 243 -449 537 -183 186 -288
275 -441 373 -50 32 -93 72 -145 134 -133 160 -306 322 -491 460 -320 238
-734 403 -1113 443 -79 9 -944 34 -1005 30 -8 -1 -40 -5 -70 -10z m-2209
-5184 c35 -24 105 -70 154 -102 132 -83 153 -102 274 -238 181 -202 271 -337
306 -457 29 -102 164 -419 210 -494 24 -41 52 -98 61 -127 31 -102 51 -151 65
-158 37 -18 212 -69 239 -69 17 0 56 -9 87 -20 32 -11 65 -20 73 -20 9 0 24
-8 33 -17 8 -10 35 -38 59 -63 24 -25 84 -96 133 -159 50 -62 114 -141 143
-175 63 -72 73 -91 107 -216 18 -67 32 -99 47 -110 43 -30 116 -108 142 -153
30 -51 55 -175 37 -186 -6 -4 10 -33 40 -74 55 -73 74 -104 144 -241 26 -48
44 -95 41 -103 -3 -8 8 -48 25 -88 22 -54 40 -81 67 -101 78 -57 113 -98 128
-149 13 -48 17 -52 59 -64 68 -20 84 -38 101 -114 15 -65 15 -69 -6 -111 -18
-39 -19 -49 -9 -90 6 -25 9 -52 6 -60 -3 -8 2 -29 12 -47 10 -19 23 -51 30
-71 7 -20 29 -51 49 -68 20 -17 52 -43 70 -58 l32 -27 -10 -111 c-12 -135 -37
-219 -90 -301 -36 -57 -43 -63 -74 -63 -53 0 -63 7 -110 79 -24 36 -82 109
-129 161 -47 52 -114 140 -147 196 -34 55 -80 125 -103 155 -64 84 -377 554
-432 649 -27 46 -77 114 -110 150 -34 36 -91 115 -127 175 -35 61 -87 146
-115 190 -28 44 -70 116 -94 159 -28 51 -77 115 -134 176 -50 53 -135 162
-191 245 -56 83 -138 199 -183 259 -49 65 -97 143 -119 194 -29 66 -54 103
-117 171 -44 48 -98 120 -119 159 -22 40 -42 72 -46 72 -4 0 -22 21 -41 48
-55 77 -117 138 -200 199 -63 44 -79 62 -80 82 -3 121 -7 149 -27 186 -12 22
-22 44 -22 49 0 15 -105 218 -146 281 -51 80 -78 132 -94 180 -7 22 -19 49
-26 60 -8 13 -13 65 -15 151 -2 120 0 135 20 167 12 20 24 53 27 74 9 64 14
83 23 83 5 0 37 -20 72 -45z m5014 -291 c36 -29 60 -39 134 -54 50 -10 109
-27 131 -37 l40 -18 -6 -95 c-3 -53 0 -131 6 -175 29 -200 21 -312 -27 -382
-14 -21 -38 -67 -52 -103 l-26 -65 -93 -31 c-134 -44 -192 -107 -192 -209 0
-42 -5 -51 -52 -101 -30 -31 -68 -87 -88 -127 -43 -88 -60 -94 -115 -37 -38
39 -77 52 -90 30 -3 -5 -15 -15 -27 -21 -18 -9 -29 -2 -94 63 -40 40 -87 85
-104 100 -29 26 -30 28 -30 125 -1 106 -4 128 -43 275 -15 54 -31 133 -36 175
-6 43 -21 108 -35 146 -33 86 -33 96 4 110 21 8 30 18 30 35 0 33 47 122 82
155 21 19 27 32 20 39 -18 18 60 75 189 137 l124 60 69 -13 c79 -15 119 -8
175 30 20 13 42 24 49 24 8 0 33 -16 57 -36z m-2896 -1611 c14 -11 51 -68 81
-127 30 -60 77 -133 104 -163 55 -62 137 -120 182 -129 21 -4 36 -16 47 -37
24 -47 67 -158 67 -174 0 -7 14 -53 30 -103 17 -50 30 -108 30 -131 0 -22 5
-59 10 -82 6 -24 10 -118 8 -217 l-3 -175 -32 50 c-18 28 -48 89 -67 136 -54
135 -120 260 -174 331 -38 49 -55 83 -71 142 -30 108 -137 328 -214 439 -117
168 -143 226 -114 256 16 17 83 8 116 -16z m1516 -323 c8 -16 36 -46 61 -67
l46 -38 -7 -190 c-9 -278 -10 -282 -24 -299 -23 -27 -26 -105 -7 -141 28 -52
61 -65 170 -65 54 0 96 -4 96 -10 0 -58 -202 -768 -280 -985 -90 -250 -100
-273 -116 -279 -19 -7 -18 -8 -129 75 -170 127 -220 174 -278 260 -30 46 -83
115 -116 152 -62 70 -82 110 -62 130 6 6 34 22 63 36 61 30 75 52 196 311 71
154 87 205 162 510 28 118 60 249 71 290 17 67 28 134 46 278 4 32 11 46 27
52 41 17 65 11 81 -20z m1156 -739 c-18 -22 -45 -75 -60 -118 -47 -127 -80
-205 -96 -230 -9 -13 -23 -54 -30 -91 -35 -166 -73 -270 -115 -317 -10 -11
-39 -61 -65 -112 -39 -78 -48 -106 -55 -180 -7 -60 -18 -104 -35 -137 -14 -27
-25 -58 -25 -68 0 -15 -6 -19 -27 -17 -52 4 -72 -1 -102 -27 -68 -57 -46 -145
56 -225 49 -38 63 -55 57 -67 -26 -61 -11 -126 39 -168 27 -23 37 -25 96 -21
65 4 130 23 184 53 15 9 38 21 50 28 45 24 172 110 175 118 2 4 9 8 16 8 7 0
40 21 73 47 33 27 89 71 125 99 l65 51 -7 -31 c-11 -44 -48 -124 -80 -171 -15
-22 -39 -66 -54 -97 -15 -32 -32 -60 -37 -64 -6 -3 -19 -20 -29 -36 -32 -54
-98 -114 -167 -156 -37 -22 -79 -52 -92 -66 -14 -14 -31 -26 -39 -26 -8 0 -27
-7 -42 -17 -28 -16 -29 -16 -54 13 -24 26 -26 35 -21 81 5 44 3 55 -14 72 -25
25 -82 28 -135 6 -35 -15 -38 -14 -123 26 -83 38 -138 50 -163 34 -6 -4 -21
-24 -35 -44 l-23 -38 -87 -6 c-84 -6 -88 -5 -126 23 -23 16 -57 34 -77 41 -20
6 -43 18 -49 27 -14 17 -18 74 -6 85 3 4 27 -5 52 -20 72 -42 118 -63 141 -63
55 0 100 52 100 114 0 13 17 36 45 59 53 45 58 74 20 130 l-26 37 25 103 c14
56 44 149 67 207 48 123 52 180 19 254 -27 58 -28 48 46 376 65 293 108 454
128 485 8 12 26 25 39 27 41 8 161 -12 180 -30 15 -13 35 -16 94 -13 70 3 81
6 142 46 83 55 102 57 62 6z m-1579 -1288 c19 -22 51 -121 74 -223 16 -74 81
-229 109 -260 17 -19 105 -179 105 -192 0 -4 -19 -17 -42 -29 -23 -12 -57 -39
-76 -60 -40 -44 -57 -47 -110 -20 -83 43 -101 87 -122 303 -16 161 -10 459 9
481 17 22 34 21 53 0z m1139 -755 c-15 -49 -12 -76 14 -107 26 -30 27 -33 10
-51 -26 -29 -97 -60 -136 -60 -19 0 -73 11 -120 24 -149 41 -162 60 -63 87 32
9 102 34 154 55 99 41 105 48 84 99 -7 17 -3 16 27 -7 19 -15 32 -33 30 -40z
m-471 -98 c11 -11 20 -24 20 -29 0 -15 -59 -31 -113 -31 l-50 0 19 21 c23 26
74 59 92 59 6 0 21 -9 32 -20z m615 0 c-3 -5 -11 -10 -16 -10 -6 0 -7 5 -4 10
3 6 11 10 16 10 6 0 7 -4 4 -10z m-912 -63 c32 -7 59 -16 60 -22 1 -5 -25 -21
-58 -34 -77 -30 -239 -41 -270 -18 -20 16 -20 16 1 37 46 47 150 61 267 37z"/>
<path d="M2360 5181 c-43 -13 -84 -38 -110 -66 -21 -22 -25 -37 -25 -83 0 -91
38 -134 208 -233 33 -19 93 -63 135 -98 129 -107 193 -123 247 -59 42 49 35
108 -24 222 -64 123 -100 174 -158 226 -90 80 -194 115 -273 91z"/>
<path d="M2894 5537 c-32 -28 -36 -84 -9 -137 28 -55 171 -190 275 -259 52
-36 127 -94 165 -130 39 -37 104 -95 146 -129 42 -35 100 -90 129 -123 57 -66
112 -99 162 -99 52 0 58 9 45 57 -9 35 -8 52 5 93 16 50 16 50 -10 82 -44 54
-248 247 -387 368 -120 103 -354 269 -412 291 -41 15 -80 10 -109 -14z"/>
</g>
</svg>
