<svg xmlns="http://www.w3.org/2000/svg" viewBox="106.1 274 603.33 448.73">
    <g transform="matrix(1.3333333,0,0,-1.3333333,0,1056)">
        <g>
            <path fill="#fff" d="m 344.47,515.432 h -61.526 v -26.724 h 61.526 z m -4.629,-103.894 c 0,-6.57 5.325,-11.895 11.894,-11.895 6.57,0 11.895,5.325 11.895,11.895 0,6.569 -5.325,11.894 -11.895,11.894 -6.569,0 -11.894,-5.325 -11.894,-11.894 m 36.384,-4.326 c 0,-5.304 4.299,-9.605 9.604,-9.605 5.304,0 9.605,4.301 9.605,9.605 0,5.305 -4.301,9.605 -9.605,9.605 -5.305,0 -9.604,-4.3 -9.604,-9.605 m -16.621,83.41 c 0,-13.533 10.97,-24.503 24.503,-24.503 13.534,0 24.503,10.97 24.503,24.503 0,13.532 -10.969,24.503 -24.503,24.503 -13.533,0 -24.503,-10.971 -24.503,-24.503 m -83.867,-67.19 c -6.569,0 -11.894,-5.325 -11.894,-11.894 0,-6.57 5.325,-11.895 11.894,-11.895 6.57,0 11.895,5.325 11.895,11.895 0,6.569 -5.325,11.894 -11.895,11.894 m -34.093,-6.615 c -5.305,0 -9.605,-4.3 -9.605,-9.605 0,-5.304 4.3,-9.605 9.605,-9.605 5.304,0 9.605,4.301 9.605,9.605 0,5.305 -4.301,9.605 -9.605,9.605 m 1.721,98.308 c -13.532,0 -24.503,-10.971 -24.503,-24.503 0,-13.533 10.971,-24.503 24.503,-24.503 13.533,0 24.503,10.97 24.503,24.503 0,13.532 -10.97,24.503 -24.503,24.503 M 182.679,384.5 c -12.524,0 -22.677,10.152 -22.677,22.677 v 49.571 c 0,0 -0.26,8.053 3,11.751 v 95.323 c 0,12.525 10.153,22.678 22.677,22.678 h 128.057 128.058 c 12.524,0 22.677,-10.153 22.677,-22.678 v -95.323 c 3.259,-3.698 3,-11.751 3,-11.751 v -49.571 c 0,-12.525 -10.153,-22.677 -22.677,-22.677 H 313.736 Z"/>
        </g>
        <g transform="translate(419.0029,332.7725)">
            <path fill="#fff" d="m 0,0 54.181,7.529 c 0,0 11.716,2.621 17.054,-7.154 0,0     10.711,-25.941 30.258,-16.26 0,0 16.669,6.862 9.991,25.264 0,0 -2.889,7.043 -9.752,10.867 0,0 -3.064,1.586 -3.449,4.354 L 98.1,25.924 c -0.385,2.764 2.13,5.127 2.13,5.127 5.562,5.551 6.421,13.114 6.421,13.114 1.41,19.525 -16.5,21.585 -16.5,21.585 C 68.705,69.735 65.472,41.856 65.472,41.856 63.002,30.996 51.015,30.324 51.015,30.324 L -3.167,22.797 -240.754,-10.215 c 0,0 -11.717,-2.621 -17.054,7.154 0,0 -10.712,25.942 -30.258,16.26 0,0 -16.67,-6.863 -9.992,-25.263 0,0 2.889,-7.043 9.752,-10.868 0,0 3.063,-1.588 3.448,-4.353 l 0.184,-1.322 c 0.384,-2.768 -2.13,-5.131 -2.13,-5.131 -5.561,-5.551 -6.42,-13.114 -6.42,-13.114 -1.409,-19.523 16.5,-21.584 16.5,-21.584 21.446,-3.984 24.679,23.895 24.679,23.895 2.47,10.859 14.458,11.531 14.458,11.531 z"/>
        </g>
        <g transform="translate(371.915,302.2549)">
            <path fill="#fff" d="m 0,0 53.136,-12.996 c 0,0 11.856,-1.887 13.211,-12.943 0,0 0.382,-28.061 22.122,-26.276 0,0 18.024,0.227 18.609,19.793 0,0 -0.088,7.611 -5.055,13.697 0,0 -2.261,2.608 -1.598,5.323 l 0.318,1.297 c 0.661,2.71 3.871,3.978 3.871,3.978 7.219,3.107 10.808,9.82 10.808,9.82 8.515,17.625 -7.371,26.149 -7.371,26.149 C 89.59,39.459 76.296,14.742 76.296,14.742 69.993,5.561 58.604,9.359 58.604,9.359 L 5.468,22.354 -227.533,79.345 c 0,0 -11.857,1.884 -13.211,12.939 0,0 -0.383,28.064 -22.122,26.28 0,0 -18.026,-0.229 -18.609,-19.794 0,0 0.086,-7.613 5.054,-13.699 0,0 2.261,-2.607 1.597,-5.32 l -0.317,-1.297 c -0.663,-2.711 -3.872,-3.98 -3.872,-3.98 -7.216,-3.108 -10.806,-9.82 -10.806,-9.82 -8.513,-17.627 7.371,-26.15 7.371,-26.15 18.462,-11.617 31.755,13.101 31.755,13.101 6.303,9.182 17.693,5.383 17.693,5.383 z"/>
        </g>
    </g>
</svg>
