<?xml version="1.0" encoding="UTF-8" standalone="no"?>
<svg
   version="1.0"
   width="1080.000000pt"
   height="1080.000000pt"
   viewBox="0 0 1080.000000 1080.000000"
   preserveAspectRatio="xMidYMid meet"
   id="svg15"
   sodipodi:docname="testi.svg"
   inkscape:version="1.3-dev (77bc73e, 2022-05-18)"
   xmlns:inkscape="http://www.inkscape.org/namespaces/inkscape"
   xmlns:sodipodi="http://sodipodi.sourceforge.net/DTD/sodipodi-0.dtd"
   xmlns="http://www.w3.org/2000/svg"
   xmlns:svg="http://www.w3.org/2000/svg">
  <defs
     id="defs15" />
  <sodipodi:namedview
     id="namedview15"
     pagecolor="#505050"
     bordercolor="#eeeeee"
     borderopacity="1"
     inkscape:showpageshadow="0"
     inkscape:pageopacity="0"
     inkscape:pagecheckerboard="0"
     inkscape:deskcolor="#505050"
     inkscape:document-units="pt"
     showgrid="false"
     inkscape:zoom="0.26415985"
     inkscape:cx="-70.033354"
     inkscape:cy="1025.894"
     inkscape:window-width="1680"
     inkscape:window-height="1050"
     inkscape:window-x="0"
     inkscape:window-y="0"
     inkscape:window-maximized="0"
     inkscape:current-layer="svg15" />
  <path
     d="m 444,5.1 c -7.4,1 -42,11.1 -53,15.3 -28.5,11 -51.7,26.4 -73,48.3 -23,23.5 -40.4,47.4 -59,81.2 -5.5,10.1 -11.9,21 -14.1,24.3 -8.4,12.3 -12.3,24.3 -14.4,44.6 -0.8,8.1 -2.2,18.8 -3.1,23.7 -0.8,5 -1.8,18.2 -2.3,29.5 -0.7,21 -1.4,24.5 -5.5,27.9 -2.2,1.9 -6.2,9 -7.6,13.7 -2.3,7.7 1.1,10.1 9.8,6.7 4,-1.5 4.4,-1.5 6,0.1 1.8,1.8 3,15.3 1.8,20.1 -0.9,3.3 -5.7,6.2 -11.9,7 -2.7,0.4 -7,1.9 -9.6,3.4 l -4.6,2.7 v 10.5 c -0.1,10.4 -0.1,10.4 -3.7,15.1 -2.2,2.9 -3.9,6.4 -4.3,9 -0.4,2.4 -1.6,5.8 -2.6,7.7 -2.3,3.9 -1.2,6.1 3,6.1 3.5,0 9.8,-6.4 14.3,-14.5 2.1,-3.7 4.7,-6.8 6.8,-8 1.9,-1.1 8.9,-7.5 15.6,-14.3 8.4,-8.4 12.9,-12.2 14.4,-12.2 2.1,0 2.2,0.3 1.6,5 -0.4,2.7 -2.1,9.1 -3.9,14.2 -3.1,9.1 -3.2,9.6 -3.2,27.3 0,20.4 1.4,27.5 8.6,45.9 8.7,22 19.7,35.6 35.4,43.7 5,2.6 16,8.3 24.5,12.7 8.5,4.4 18,8.7 21,9.5 6.5,1.8 26.6,9.6 32.9,12.7 6.2,3.1 21,6 30.6,6 11.4,0 24.5,1.2 24.5,2.1 0,1.5 -8.6,5.9 -17.2,8.8 -10.4,3.5 -12.4,4.7 -14.3,8.8 -3.2,6.7 3,13.3 12.4,13.3 5,0 5.7,1.3 3.6,6.3 -3.7,8.9 -0.8,17.2 7.6,21.6 4.3,2.3 4.9,2.4 8,1.1 1.9,-0.8 7.1,-4.9 11.6,-9.2 6.4,-5.9 9.1,-7.8 12,-8.3 8.3,-1.4 9.5,-1.8 12.3,-4.1 5.4,-4.6 5.2,-14 -0.5,-22.3 -3.7,-5.4 -3.8,-5.2 2.8,-8.6 5.7,-2.8 9.7,-7.8 9.7,-12.1 0,-2.9 -0.7,-4.3 -3.5,-6.8 -1.9,-1.8 -3.5,-3.7 -3.5,-4.2 0,-0.5 2,-2.2 4.5,-3.9 4.7,-3.1 7.8,-7.8 9,-13.5 0.5,-2.3 2.6,-5.4 6.1,-9 20.2,-20.8 23.8,-26.7 25.9,-43.3 0.8,-5.7 2.1,-13.5 2.9,-17.3 0.9,-3.8 2,-10.5 2.6,-14.9 0.5,-4.4 1.7,-10.3 2.5,-13 2.3,-7.3 4,-42.9 2.4,-51.6 -0.7,-3.9 -1,-10.8 -0.6,-16.5 0.4,-7.9 0,-12.5 -1.8,-22.4 -2.6,-13.9 -8.2,-31 -12.2,-37.3 -3.7,-5.9 -12.7,-15.1 -18.2,-18.7 -9.5,-6 -29.5,-14.2 -48.5,-19.7 -16.4,-4.8 -20.6,-5.6 -29.6,-6 -18,-0.8 -22.7,2.4 -22.2,14.9 0.2,4.1 -0.2,7.6 -0.8,8.3 -1.3,1.5 -14.3,6 -20.3,7 -2,0.3 -6.5,2.1 -10,3.9 -3.4,1.8 -8.7,4.1 -11.7,5.1 -3,1 -7.6,2.8 -10.2,4.2 -2.7,1.3 -8.3,3.5 -12.5,4.8 -10.6,3.4 -17.7,7.4 -18.1,10.2 -0.3,1.8 0.6,2.7 4.1,4.4 2.4,1.2 5.2,3.5 6.2,5.1 3.5,6.1 7.7,9.7 13.2,11.8 4,1.5 5.9,1.8 6.7,1 1.7,-1.7 1.2,-12 -0.8,-17.2 -2.9,-7.4 -2,-8.6 9.9,-12.9 13.9,-5 32.1,-9.1 42.7,-9.6 9.4,-0.5 9.8,-0.5 16.5,2.8 9.5,4.7 19.1,5.2 28.4,1.6 9.1,-3.6 11.4,-3.9 21.3,-2.8 10.8,1.3 16.7,3.9 29.5,13 5.3,3.7 11,7.5 12.6,8.4 4.4,2.2 6.1,4.5 7.9,10.7 1.3,4.5 1.4,6.4 0.5,11.3 -0.9,4.3 -0.9,7.5 0,12.7 1.2,7.3 1.3,21.4 0.2,26.5 -0.8,3.7 -3.6,4.3 -8.2,1.9 -5.7,-2.9 -19.5,-7.2 -27.1,-8.4 -8.8,-1.4 -25.6,0 -29.4,2.5 -1.3,0.8 -3.2,3.2 -4.3,5.3 -3.1,6.1 -4.2,6.7 -10.9,5.3 -6.7,-1.5 -9.7,-0.7 -14.9,3.9 -3.2,2.8 -3.8,3 -12.1,3 -8.4,0 -8.9,-0.1 -13,-3.4 -6.1,-4.9 -7.2,-6.5 -14.5,-21.6 -3.6,-7.4 -7.8,-14.7 -9.3,-16.1 -5,-4.5 -16.4,-11.8 -20.2,-12.9 -4.5,-1.2 -5.2,-0.3 -5.2,6.9 0,4.6 0.7,6.7 4.8,14 2.7,5 7.2,11 10.7,14.5 9.4,9.5 12.4,13.5 13.6,18.1 1.3,5.2 5.7,10.7 10.3,12.9 7.5,3.5 21,0.5 29,-6.6 l 4.6,-4 6.1,1.6 c 3.3,0.8 6.7,1.2 7.6,0.9 0.8,-0.3 5.3,0 9.9,0.7 7.9,1.2 8.5,1.5 10.4,4.7 4,6.8 11.4,9.3 22.1,7.3 9.3,-1.8 10.7,-1 14.2,7.7 1.5,3.9 2.7,8 2.7,9.2 0,2.8 -3.8,5.1 -9.6,5.7 -4.4,0.5 -5.5,0.2 -11.4,-3.4 -6.6,-4 -14.5,-7.2 -17.9,-7.2 -2.6,0 -5.8,2.9 -7.9,7 -0.9,1.9 -2.5,3.6 -3.4,3.8 -0.9,0.2 -3.6,-1.4 -6,-3.6 -5.6,-5.1 -7.8,-6.2 -12.7,-6.2 -2.8,0 -4.8,0.7 -6.9,2.5 -1.7,1.4 -3.9,2.5 -5,2.5 -1.1,0 -7.4,-2 -13.9,-4.5 -10.6,-4.1 -13.3,-4.7 -26.3,-6 -8,-0.8 -17.4,-1.8 -21,-2.3 -3.7,-0.5 -8.9,-0.6 -12,-0.1 -14.8,2.2 -15,2.2 -16.9,0.5 -1,-0.9 -2.6,-4.6 -3.6,-8.2 -1.9,-7.1 -6.7,-15.1 -13.6,-22.9 -4.4,-4.8 -4.6,-5.4 -6.8,-17.5 -2.8,-15.2 -3.6,-17.9 -7.1,-25 -3.7,-7.4 -13.6,-19 -18.5,-21.7 -2.2,-1.2 -4.6,-2.7 -5.2,-3.3 -2.1,-1.8 -1.5,-9.3 1.3,-15.6 1.7,-3.8 2.9,-9.1 3.5,-14.9 0.6,-4.9 1.7,-14.4 2.5,-21 0.8,-6.6 1.4,-15.6 1.4,-20.1 v -8 l 5.5,-4.8 c 3.1,-2.6 6.5,-6.6 7.6,-8.9 1.2,-2.3 4.3,-7.2 7,-10.8 2.6,-3.6 6.1,-9.4 7.7,-13 1.6,-3.5 5.1,-9.3 7.8,-12.9 2.6,-3.6 7,-10.3 9.6,-14.9 2.7,-4.7 6.6,-10.5 8.7,-13 2.1,-2.5 6.2,-8 9.2,-12.2 6.4,-9.1 23.1,-28.1 32.8,-37.2 7.3,-6.9 26.4,-20 36.2,-24.9 7.9,-3.9 38.2,-13.8 44.5,-14.5 3.4,-0.4 7.7,0.1 13.2,1.5 7.5,1.9 21,4.2 33.6,5.8 4,0.5 5.6,1.3 9.3,5 5.9,5.8 10.8,7.1 30.1,7.9 13.9,0.6 15.9,0.5 22.6,-1.5 l 7.4,-2.2 5.6,2.1 c 3.3,1.2 8,2.1 11.3,2.1 5.8,0 31.9,7.6 43.3,12.7 5.5,2.4 20.1,12.9 29.4,21.1 5.8,5 9.8,7.2 19.9,10.9 7.9,2.8 25.5,11.4 35.7,17.3 8.4,4.9 11.2,7.7 24.3,23.7 8.2,10 12.3,14.2 17.5,17.6 7.2,4.7 7.8,5.6 11.6,15.9 1.4,3.7 3.6,8.7 5,11 1.4,2.4 3.7,7.7 5.1,11.8 4.9,13.7 9.4,17.5 19.8,16.4 5.8,-0.6 6.5,-0.4 9.5,2.1 4.1,3.4 4.1,5.8 -0.2,8.4 -5.8,3.6 -16.2,15.5 -19.4,22.3 -1.7,3.5 -5.3,12.9 -8,20.9 -6,17.6 -7,19.6 -11.6,23.2 -6.6,5.1 -8.8,12.4 -11.1,35.6 -0.8,8.6 -2.2,18.1 -3,21.1 -0.8,3 -2.4,12.9 -3.4,22 -1.6,13.2 -1.8,18.6 -1.1,27 1.7,19.9 10.2,46.9 23.3,74 4.1,8.5 9.1,20.4 11,26.5 1.9,6 5.8,18.1 8.6,26.8 2.8,8.6 5.1,16.2 5.1,16.7 0,1.9 -2.6,1 -5.1,-1.6 -6.9,-7.4 -15.4,-9.3 -19.2,-4.2 -1.9,2.5 -1.9,3.4 -1,11 0.5,4.6 1,15.5 0.9,24.3 l -0.1,15.9 -2.5,1.3 c -1.4,0.7 -5.1,2.3 -8.2,3.7 -13.2,5.7 -13.1,18 0.2,21 l 5.5,1.3 -0.1,4.9 c -0.1,2.7 -1.2,7.6 -2.5,10.9 l -2.4,6 -9.3,3.1 c -13.4,4.4 -19.2,10.7 -19.2,20.9 0,4.2 -0.5,5.1 -5.2,10.1 -3,3.1 -6.8,8.7 -8.8,12.7 -4.3,8.8 -6,9.4 -11.5,3.7 -3.8,-3.9 -7.7,-5.2 -9,-3 -0.3,0.5 -1.5,1.5 -2.7,2.1 -1.8,0.9 -2.9,0.2 -9.4,-6.3 -4,-4 -8.7,-8.5 -10.4,-10 -2.9,-2.6 -3,-2.8 -3,-12.5 -0.1,-10.6 -0.4,-12.8 -4.4,-27.7 -1.4,-5.4 -2.9,-12.4 -3.2,-15.5 -0.3,-3.1 -1.9,-10 -3.7,-15.4 -3.1,-9.7 -3.1,-9.9 -1.2,-11.3 1.2,-0.9 4.6,-1.4 10,-1.4 9.8,0 14.3,-2 16.3,-7.3 2.1,-5.4 -0.4,-9.9 -7.4,-13.2 -3.8,-1.8 -6.2,-3.8 -7.9,-6.5 -1.4,-2.2 -4.2,-5.1 -6.3,-6.5 -4.8,-3.2 -7.2,-8.1 -8.2,-16.7 -0.4,-3.8 -1.5,-8 -2.5,-9.4 -2.3,-3.5 -7.7,-5.6 -12.3,-4.8 -5.3,0.9 -13,9.2 -17.6,18.7 -2,4.2 -4.9,9.7 -6.6,12.3 -4.6,7.2 -4,12.9 2,19.8 2.3,2.6 4.3,3.8 7.1,4.2 2.2,0.4 4.3,1.4 4.8,2.3 0.5,0.9 1.1,5.4 1.4,10.1 0.4,7.4 1.2,10.4 6.1,22.4 3.7,9 6,16.5 6.6,21 3.1,23.1 4.4,30.4 6.1,35.3 1,3 2.1,7.7 2.5,10.4 0.6,4.5 0.5,4.9 -1.3,4.9 -1.1,0 -5.3,-2.9 -9.3,-6.5 -6.5,-5.9 -7.7,-6.5 -11.1,-6.3 -4.5,0.2 -6.2,-1.1 -10,-7.7 -2.3,-4 -2.9,-6.2 -2.9,-11 0,-3.5 -1,-9.1 -2.4,-13.6 -1.4,-4.2 -3.2,-11.2 -4.1,-15.7 -1.5,-7.5 -1.5,-8.5 0,-14 2.4,-8.6 0.9,-18.5 -3.5,-22.5 -3.9,-3.5 -8.2,-3.6 -11.5,-0.2 -3.7,3.6 -3.3,8.6 1,15.7 3.8,6.1 5.8,14.1 5.3,21.1 -0.3,3.8 -0.7,4.4 -4.7,6.6 -5.4,3 -8,8.3 -8.1,16.2 0,8.1 2.1,13.9 9.8,27.4 7.7,13.5 24.2,45.2 24.2,46.5 0,0.5 -2.2,-0.2 -4.9,-1.6 -6.2,-3.3 -9.9,-2.6 -13.8,2.2 -7,8.8 -9.1,10.6 -11.3,9.4 -1.1,-0.6 -2.9,-2.8 -4,-4.9 -4.3,-8.5 -11.1,-10.3 -19.2,-5.2 -6,3.8 -7.3,6.2 -5.8,10.4 0.6,1.8 1.5,6.6 2.1,10.8 0.5,4.3 1.8,10.3 2.9,13.5 1.1,3.1 2,8.1 2,11.1 0,4.1 0.4,5.5 1.6,6 2.8,1 4.4,-2.5 4.4,-9.4 0,-8.3 2.6,-18.6 5.4,-21.1 1.1,-1 4.7,-3 7.9,-4.3 l 5.8,-2.3 8.5,2.8 c 4.6,1.6 9.2,3.5 10.3,4.3 3.5,2.4 14.1,19.2 14.1,22.3 0,1.5 -1.4,5.4 -3.1,8.6 -2.6,4.9 -3,6.7 -2.6,10.9 0.6,7.4 4.3,18.6 7.7,23.6 2.1,3.1 3,5.6 3,8.6 0,8.7 -17.8,73.5 -28,101.8 -9,25 -10,27.3 -11.6,27.9 -1.9,0.7 -1.8,0.8 -12.9,-7.5 -17,-12.7 -22,-17.4 -27.8,-26 -3,-4.6 -8.3,-11.5 -11.6,-15.2 -8.6,-9.6 -8.7,-10.3 -0.9,-18.6 4.8,-5.1 7.3,-8.7 9.6,-14.3 5,-12 6.7,-27.7 2.9,-26.6 -0.7,0.2 -3.9,5.8 -7.2,12.4 -8.2,16.4 -9,17.6 -12.3,17.2 -2,-0.2 -3.6,-1.7 -6.1,-5.6 -2.8,-4.2 -4.1,-5.4 -7.5,-6.3 -2.2,-0.6 -4.8,-1.4 -5.6,-1.8 -2.9,-1.4 -16.8,-23.2 -20,-31.4 -5.2,-13.1 -12.5,-26.9 -17.8,-33.9 -3.8,-4.9 -5.5,-8.3 -7.1,-14.2 -3,-10.8 -13.7,-32.8 -21.4,-43.9 -12.2,-17.5 -14.6,-23.5 -10.6,-26 2.2,-1.4 8.2,-0.1 11.4,2.5 1.5,1.2 4.8,6.6 7.7,12.5 4.1,8.6 6.2,11.8 12.1,17.7 8.4,8.5 14.2,11.6 21.5,11.6 6.6,0 7.1,0.7 11.6,18.3 3.5,13.5 9.1,27.3 11.1,27 1.8,-0.2 3.8,-7.7 4.2,-16.4 0.4,-6.7 0,-11.2 -2.1,-21 -1.4,-6.8 -3,-17.5 -3.5,-23.6 -0.8,-10.2 -1.3,-11.9 -4.5,-17.8 -5.4,-9.6 -6.5,-13.4 -8.1,-28.9 -3,-28.7 -9.2,-41.6 -19.9,-41.6 -3.4,0 -4.8,0.6 -7.1,3 -4.4,4.6 -4.6,12.7 -0.5,24 1.7,4.7 4.4,12.6 5.9,17.5 1.5,5 3.9,10.8 5.4,13 2.8,4.3 7.2,15.9 8.2,21.5 0.8,5.1 -0.7,9.4 -3.4,9.8 -2.9,0.4 -5.8,-2.2 -12.6,-11.3 -2.9,-3.9 -7.1,-8.8 -9.4,-11 -2.3,-2.1 -4.1,-4.5 -4.1,-5.1 0,-0.7 1.5,-1.5 3.3,-1.9 1.7,-0.4 4,-0.9 5,-1.1 2,-0.6 4.7,-5.4 4.7,-8.3 0,-3.5 -6,-9.1 -13.9,-13.1 -4.2,-2.1 -9.9,-5.6 -12.6,-7.9 -5.9,-4.9 -15.8,-10.1 -19.2,-10.1 -1.3,0 -5.6,-0.7 -9.6,-1.6 -6.8,-1.6 -7.5,-2 -14.2,-8.9 -8.8,-9 -14.6,-11.5 -26.8,-11.5 -7.2,0 -8.7,-0.3 -12,-2.6 -2.1,-1.4 -6.8,-3.8 -10.5,-5.2 -6,-2.5 -7,-3.3 -12,-10.2 -5.5,-7.7 -8.4,-12.8 -9.6,-16.7 -0.6,-1.8 0.1,-3 2.8,-5.8 6,-6 4.9,-11 -4.6,-21.4 -3.5,-3.7 -9.4,-10.3 -13.2,-14.6 -3.9,-4.3 -9.6,-9.7 -12.9,-12.1 -5.9,-4.4 -17.6,-13.9 -25,-20.4 -2.2,-1.9 -7.7,-8.5 -12.2,-14.5 -11,-14.9 -18.2,-22.4 -30.1,-31.7 -5.6,-4.3 -14.2,-11.5 -19,-16.1 -4.9,-4.5 -10.7,-9.3 -12.9,-10.6 -2.2,-1.4 -6.9,-4.6 -10.5,-7.1 -3.6,-2.6 -8.7,-5.9 -11.5,-7.3 -2.7,-1.4 -8.6,-6 -13,-10.2 -4.4,-4.3 -12.1,-11 -17.1,-15.1 -10.8,-8.6 -14.4,-13.8 -17.8,-25.8 -2.8,-9.5 -3.2,-17 -1.3,-22.6 1.9,-5.6 4.1,-5.1 12.6,3.4 7.4,7.3 14.3,11.5 18.9,11.6 1.2,0 3.8,-0.7 5.7,-1.4 3.1,-1.3 3.5,-1.9 3.5,-5.1 0,-4.7 -1.8,-8.8 -7.8,-17.7 -2.7,-4 -5.6,-8.7 -6.6,-10.5 -2,-3.9 -2.1,-8.2 -0.2,-8.9 0.8,-0.3 5.2,0.6 9.8,2 12.4,3.8 25.7,5.1 32.4,3.1 2.9,-0.8 5.6,-2 5.9,-2.5 0.9,-1.5 -8.3,-6.8 -15.5,-9 -3.6,-1 -11.7,-3.1 -18,-4.5 -6.3,-1.4 -14.6,-3.3 -18.3,-4.2 -8.6,-2 -14.1,-1.3 -21.8,2.9 -15.3,8.1 -28.1,30.6 -28.2,49.8 -0.1,8 0.2,9.2 4.7,19.5 8.4,19.6 10.9,22.8 32.6,41.4 7.4,6.4 16.4,14.3 20,17.6 3.6,3.4 10.8,9.7 16,14 15,12.7 22.5,20.1 24.4,24.4 1.8,3.9 1.8,4 -0.8,12.8 -5.9,19.7 -4.2,32.3 7.1,51.7 0.7,1.2 1.3,3.8 1.3,5.9 0,3.7 2.8,10.6 5.6,13.8 0.8,0.9 2.5,4.7 3.8,8.5 4,11.8 12.2,27.8 15.4,30.1 1.9,1.4 3.2,3.5 3.6,5.7 0.4,1.9 2.2,5.8 4,8.5 1.9,2.8 4.4,7.9 5.5,11.4 1.6,4.8 3.5,7.8 7.1,11.5 2.7,2.8 6.5,8.3 8.5,12.3 2,4 5.8,9.5 8.5,12.3 6.4,6.9 16.1,20.2 22.2,30.5 2.8,4.7 6.3,10.4 7.8,12.6 1.5,2.2 8.2,12.6 14.7,23 6.6,10.5 19,30 27.5,43.5 8.5,13.5 20.3,32.6 26.1,42.5 14.6,24.5 42.3,62.9 86.3,119.5 4.4,5.8 11,15.2 14.6,21 3.6,5.8 9.4,15 13,20.6 3.6,5.5 9.2,15.2 12.3,21.5 11.8,23.6 17.6,31.5 28.6,38.8 9.7,6.5 19.8,9.2 36.4,9.8 13.2,0.5 14.7,0.4 26,-2.5 18.2,-4.6 18.4,-4.6 29.8,-1.8 13.4,3.2 23,3.9 35.1,2.6 25.3,-2.7 31,-5.9 63.5,-36.1 22.1,-20.5 35.2,-40.9 38.7,-59.9 0.7,-4.1 2.2,-10 3.2,-13 1.6,-4.5 1.9,-8.2 1.8,-21.1 -0.1,-13.9 -0.3,-15.9 -2,-17.8 -2.1,-2.3 -6.5,-2.8 -9.8,-1 -4.8,2.6 -14.9,11 -22.8,19 -8,8.2 -20.7,16.9 -24.4,16.9 -3,0 -2.7,-4 1.2,-15.7 2.2,-6.5 5.5,-16.8 7.2,-22.8 2,-6.6 4.4,-12.4 6,-14.5 4.6,-5.9 5.4,-8.2 6,-17.5 0.6,-8.2 1.1,-10 5.8,-19.8 2.9,-5.9 7.3,-13.4 9.8,-16.6 4.2,-5.4 8.4,-15.4 8.4,-19.9 0,-4.2 2.3,-9.2 6.3,-13.9 5.3,-6.2 6.2,-8.2 8.3,-20.3 2.7,-14.8 2.8,-17.4 1,-18.9 -2.3,-2 -4.6,-0.6 -4.6,2.7 0,6.1 -1.4,9.3 -7.2,16.2 -7.6,9 -10.2,10.4 -18.2,9.5 -7.4,-0.9 -8.6,-1.7 -8.6,-6.2 0,-4.7 -2.3,-8.8 -5.9,-10.2 -3.6,-1.5 -6.5,-0.8 -11.2,2.9 -3,2.4 -4.3,2.8 -7.6,2.3 -4.8,-0.6 -9.2,1.4 -12.2,5.6 -2.2,3.1 -6,4.7 -6.6,2.8 -0.2,-0.7 -0.6,-2.9 -1,-4.9 -1.2,-7.7 -7.4,-7 -10.4,1.1 -0.9,2.4 -2.7,5.2 -4.1,6.2 -2.4,1.9 -2.6,1.9 -8,-0.2 -5.4,-2.1 -5.6,-2.1 -12.4,-0.4 -6.7,1.7 -7,1.7 -8.3,-0.1 -2.2,-3 0.2,-12.4 3.2,-12.4 0.7,0 2.7,-1.2 4.4,-2.6 4.4,-3.7 4.1,-6.8 -1,-11.5 -3.2,-3 -4.3,-4.9 -5,-8.5 -0.5,-2.6 -0.7,-4.9 -0.5,-5.1 0.1,-0.2 2.7,0.8 5.7,2.2 3,1.4 6.9,2.8 8.7,3.1 11.3,2.2 20.4,-7.2 16.9,-17.4 -0.8,-2.2 -5.7,-10.5 -11,-18.4 -10.4,-15.6 -19.1,-31.1 -18.5,-32.9 0.2,-0.7 2.9,2.2 6,6.3 7,9.2 11.6,13.4 16.5,14.7 6.9,1.9 12,-0.7 16.4,-8.4 2.7,-4.9 3.3,-5.3 7.6,-5.9 6.8,-0.9 6.9,-0.9 10.7,2.4 1.8,1.7 5.9,4.2 9.1,5.6 4.7,2.2 6.7,2.6 12.3,2.2 14.4,-0.8 25.1,-9.5 43.5,-35 12.3,-17 12.6,-17.4 16.8,-15.9 6,2.1 8.9,1.4 13,-2.8 4.2,-4.5 7.5,-12.4 8.4,-20.3 1,-9.1 1.3,-9.6 4.5,-10.3 6.7,-1.5 9.5,-9.5 6,-17.1 -3,-6.6 -2.7,-9.6 1.1,-15.6 4.8,-7.5 5.1,-14.5 1.1,-27.5 -5,-15.9 -4.9,-20.2 0.2,-18.9 4,1 8.7,6.7 13.8,16.8 6.1,12.1 8.1,18.5 11.8,36.6 3.8,18.7 5.4,41.5 4.1,55.6 -0.6,5.5 -1.3,18 -1.6,27.7 -0.6,18.6 -2.1,27.5 -5.5,31.9 -7.8,10.2 -7.4,9.1 -8.1,24.9 -0.6,14.4 -0.7,14.9 -7.2,36.1 -7.3,23.7 -10.3,32.6 -17,50.5 -2.5,6.6 -5.1,14.9 -5.8,18.5 -1.5,8.3 -2.8,10.8 -7.8,15.3 -4.7,4.2 -6.1,4.5 -8.6,1.7 -1.6,-1.7 -1.7,-3.1 -1.1,-10.2 0.3,-4.6 1.7,-12.4 3,-17.3 1.3,-5 3.4,-12.5 4.5,-16.8 2.7,-10.3 3.6,-25.8 2.1,-38.2 -0.6,-5.5 -1.5,-15.6 -2,-22.5 -0.4,-6.9 -1.5,-15.5 -2.4,-19.3 -2,-8 -1.3,-10 3.9,-11.7 2,-0.7 4.3,-2.2 5.1,-3.5 1.4,-2.1 1.3,-2.7 -0.6,-6.5 -1.9,-3.7 -2,-4.6 -0.9,-10 2.1,-10.6 -0.8,-17 -7.5,-17 -6.9,0 -13.4,9.1 -17,23.8 -1,3.7 -2.6,10.1 -3.7,14.2 -2.6,9.6 -4.2,25.5 -2.8,28.1 0.5,1 1.8,1.9 2.9,1.9 3.9,0 4.8,3.5 5.4,22.5 0.3,9.9 0.2,25.4 -0.2,34.5 -0.4,9.1 -0.5,24.4 -0.2,34 0.5,15.5 0.8,18 2.8,22.1 5.5,11.2 18,8.2 24.5,-6 2,-4.3 5.3,-9 9.7,-13.6 3.7,-3.9 8.1,-9.7 9.7,-13 4.6,-9 10,-24.3 12.7,-35.5 1.4,-5.4 6.1,-21.3 10.5,-35.2 4.4,-13.9 8.5,-28.6 9.1,-32.6 0.6,-4.6 2.2,-9.7 4.4,-14 5.7,-11.4 6.7,-17.7 8,-49.7 l 1.2,-29 5.6,-10.5 c 16.2,-30.5 15.6,-29.6 30.6,-46.3 23.8,-26.6 35.7,-42.5 58.5,-78.5 10.8,-17 22.3,-41.1 25.2,-52.6 3,-11.6 3.3,-25.1 1,-38.5 -0.8,-4.7 -2.4,-14.7 -3.5,-22.1 -2.6,-17.8 -6.8,-26.7 -16.8,-36.1 -3.7,-3.6 -8.8,-7.6 -11.2,-9.1 -14.7,-8.5 -22.8,-4.3 -14.7,7.6 8,12 9.8,15.6 13.6,27.5 5.2,16.4 6.8,22.8 8,33.1 3.1,24.2 -0.1,42 -11.8,66.2 -2.8,5.9 -5.1,11 -5.1,11.4 0,0.4 -3.7,7.5 -8.2,15.7 -6.2,11.3 -10.1,16.9 -16,23.3 -8.4,9.2 -23,27.1 -32.4,39.9 -3.3,4.4 -6.7,8.1 -7.6,8.3 -1,0.2 -2.3,-0.8 -3.2,-2.6 -0.8,-1.6 -3.1,-3.9 -5,-5 l -3.5,-2.1 1.4,-4.2 c 2.5,-7.1 2,-13 -1.8,-18.5 -3,-4.6 -7.8,-8.3 -20,-15.5 -3.1,-1.9 -6.2,-5.3 -10.7,-11.8 -3.8,-5.6 -9.5,-12.1 -15.1,-17.2 -10,-9.1 -23.1,-24.7 -25.4,-30.2 -0.8,-2 -1.5,-4.7 -1.5,-5.9 0,-1.3 -2.7,-10.4 -6,-20.2 -5.8,-17.3 -6.7,-20.6 -5.4,-20.6 0.3,0 4,2.8 8.1,6.2 8.5,6.9 9.8,9.2 11.2,20.4 0.7,5.3 2.1,10.5 4.4,15.4 1.9,4.1 4.3,9.5 5.3,11.9 1,2.4 4.3,7.1 7.4,10.5 3,3.3 7.7,8.9 10.3,12.3 4.7,6.1 18.1,17.5 24.2,20.5 4.9,2.5 9.4,2.9 18.4,1.7 12.8,-1.6 19.4,-3.5 29.5,-8.6 13,-6.5 21.8,-12.6 29.8,-20.6 8.3,-8.4 11.2,-13.6 10.5,-18.5 -0.8,-4.4 -2.2,-6.1 -7.3,-8.3 -2.3,-0.9 -4.5,-2.3 -5,-3 -1.4,-2.3 -0.5,-13.4 1.6,-19.4 1.3,-3.8 2,-8.4 2,-13.3 0,-4.2 0.5,-10.4 1.1,-13.9 1,-5.5 0.9,-7.1 -0.6,-10.8 -0.9,-2.5 -3,-5.4 -4.6,-6.6 -2.7,-1.9 -3.8,-2 -9.7,-1.4 -12.6,1.3 -21.2,3.7 -21.2,6 0,1.5 2.2,2.5 5.7,2.5 3.3,0 17.9,8.5 19.9,11.5 1.9,3 2,6.3 0.5,16 -1.5,9.4 -2.7,12.8 -11.5,33.5 -12.1,28.1 -12.9,29.2 -24.5,32.7 -7,2.2 -23.9,2.4 -29.6,0.4 -6.2,-2.1 -22.1,-11.8 -24.9,-15.2 -1.9,-2.2 -2.6,-4.2 -2.6,-7.1 0,-3.5 0.7,-4.7 6.2,-10.4 7,-7.3 7,-9.4 0,-7.3 -6.2,1.8 -7.6,0.8 -6.9,-5 0.7,-6.2 8.1,-26 10.7,-28.5 1.5,-1.5 3.9,-2.1 10.8,-2.6 5.8,-0.4 9.9,-1.2 11.6,-2.3 2,-1.3 3.8,-1.6 7.9,-1.1 6.7,0.8 9.5,-0.5 16.6,-8.1 6.3,-6.7 6,-7.6 -3.3,-9.4 -8.5,-1.6 -12,-1.4 -14.9,0.9 -3.3,2.6 -5,2.5 -9.5,-0.5 -2,-1.4 -4.2,-2.5 -4.8,-2.5 -0.6,0 -1.9,-0.9 -2.9,-2 -1.9,-2.1 -1.8,-3.3 1.5,-12.4 2.1,-5.9 3.3,-20.6 1.7,-22.2 -0.4,-0.4 -2.2,0.7 -4,2.4 -3.1,3 -3.7,3.2 -8,2.6 -5.4,-0.8 -9.9,0.7 -12,4 -0.8,1.1 -2.2,4.6 -3.2,7.6 -2.2,6.8 -13.1,32.3 -17.3,40.7 -5.3,10.5 -7.2,9.9 -5,-1.6 1.4,-6.7 3.3,-11.1 12.6,-28.3 10.2,-18.8 11.4,-21.7 16.7,-39.3 6.8,-22.4 7.4,-25.1 7.4,-37.2 0.1,-5 0.6,-9.5 1.1,-9.8 2.1,-1.3 5.3,0.8 7.1,4.8 1.6,3.6 1.9,6.7 1.9,22 0,18.2 1.2,25.4 4.2,24.5 0.7,-0.2 3.3,-4.4 5.8,-9.3 2.5,-4.9 5.2,-9.3 6.2,-9.9 1.1,-0.7 3.2,-0.5 6.8,0.7 3.7,1.2 8.7,1.7 17.2,1.7 8.9,0 12.7,0.4 14.9,1.6 3.8,1.9 5.9,1.2 5.9,-1.9 0,-3.4 -2.3,-4.9 -12.1,-8.1 -7.1,-2.3 -9.8,-2.7 -16.5,-2.4 -4.3,0.3 -9.4,1.1 -11.2,1.8 -2.9,1.3 -3.4,1.3 -5.2,-0.6 -1.3,-1.3 -2.5,-4.7 -3.5,-10.2 -1.7,-9.6 -3.8,-14.8 -9.4,-23.1 -4.5,-6.5 -8.2,-9.1 -13.1,-9.1 -8.1,0 -12.4,5 -24.3,28.7 -5.2,10.3 -11.5,21.4 -13.8,24.6 l -4.4,5.9 -4.5,-0.7 c -5.7,-0.8 -8.8,-2.8 -9.6,-6.2 -0.4,-1.4 -0.4,-11 -0.1,-21.2 0.6,-19.4 3,-34.6 7.8,-48.8 3.4,-10.3 9,-12.6 20.1,-8.2 27.1,10.7 33.6,12.6 35.2,10 0.3,-0.5 -0.8,-2.7 -2.4,-4.9 -2.2,-3.1 -5.3,-5.2 -13,-9.1 -5.6,-2.8 -11.2,-5.1 -12.5,-5.1 -4,0 -7.5,-1.8 -6.9,-3.5 0.4,-0.8 5.3,-3.8 11,-6.6 9.4,-4.6 10.5,-5.4 12.4,-9.5 1.7,-3.3 2.7,-4.4 4.5,-4.4 3.9,0 7.3,1.7 12.3,6.3 2.6,2.4 6.1,5.3 7.9,6.5 1.7,1.2 4.5,4.6 6.2,7.5 1.7,2.8 4.9,8.1 7.1,11.7 5.6,9 5.3,11.3 -2.3,15.8 -6.5,3.9 -6.4,5.3 0.3,7.3 4.1,1.2 8.6,-0.1 10.1,-3.1 5.8,-11.2 7.1,-15.2 6.4,-19.9 -0.8,-6.1 -5.4,-14.2 -10.7,-18.9 -7.5,-6.7 -13.9,-13.6 -21.3,-22.7 -4.3,-5.3 -10.6,-11.7 -15.5,-15.5 -10.8,-8.4 -11.6,-9.4 -13.6,-15.2 -2.7,-8.3 -16.1,-24.3 -44.9,-53.7 -18.3,-18.6 -28.8,-27.5 -44.1,-37.3 -5,-3.2 -9.3,-7.2 -14.5,-13.4 -13.3,-16 -30.6,-32.2 -49.1,-46 C 630.8,27.6 589.4,11.1 551.5,7.1 543.6,6.2 457.1,3.7 451,4.1 c -0.8,0.1 -4,0.5 -7,1 z M 267.9,342.4 c 3.3,1.8 10.1,10.3 10.1,12.7 0,1.8 -6.4,6.9 -8.7,6.9 -0.7,0 -1.9,-2.4 -2.8,-5.3 -1.8,-6.1 -3.1,-15.7 -2.1,-15.7 0.4,0 1.9,0.6 3.5,1.4 z m 226.7,38.9 c 2.3,2 2.8,3.5 3.7,11.4 1,8.9 0.7,12.3 -1.2,12.3 -0.5,0 -1.6,-2.1 -2.5,-4.6 -0.9,-2.6 -3.8,-8 -6.6,-12.1 -2.8,-4.1 -4.8,-7.8 -4.5,-8.4 1.2,-1.9 8.3,-1 11.1,1.4 z m -226.2,30.8 c 3.1,2.4 5.6,6.9 5.6,10 0,2.5 -3.6,6.9 -5.6,6.9 -2.2,0 -4.6,-6 -5.2,-12.7 -0.5,-7.1 0.5,-7.9 5.2,-4.2 z m 84.7,1.3 c 10.1,0.2 10.9,0.3 14.9,3.1 8.9,6.3 12,7.5 19.7,7.5 4,0 9.3,-0.5 11.7,-1.2 l 4.5,-1.2 4.3,4.6 c 2.5,2.7 5.6,4.9 7.3,5.3 7.6,1.6 8.2,2.5 7.5,11.5 -0.4,6 -2.5,8.5 -17.2,20.3 -19.9,16 -20.1,16.1 -37.3,16.5 -15.3,0.4 -29.7,-1.4 -34.1,-4.3 -3.5,-2.3 -6.1,-6.9 -8.5,-15 -1.1,-3.9 -3.2,-10.4 -4.5,-14.5 -1.3,-4.1 -2.4,-9.2 -2.4,-11.4 0,-2.1 -0.8,-7 -1.7,-10.8 -1.2,-5 -1.4,-7.5 -0.6,-8.6 1.3,-2.2 8.6,-3.1 18.3,-2.4 4.1,0.2 12.3,0.6 18.1,0.6 z m -58.7,4.7 c 1.6,1.3 3.2,4.1 4.2,7.7 0.9,3.1 3.4,9.6 5.5,14.3 2.2,4.8 3.9,9 3.9,9.4 0,0.4 1.8,4.6 3.9,9.4 3.9,8.7 8.7,27.2 7.6,29.9 -0.8,2.1 -4.9,1 -12.5,-3.3 -13.2,-7.4 -14.3,-9.6 -14.4,-27.5 l -0.1,-13.5 -5.9,-11.8 c -5.1,-10.3 -5.7,-12.1 -4.8,-14.3 1,-2 1.9,-2.4 5.5,-2.4 3,0 5.3,0.7 7.1,2.1 z m 195.6,8.8 c 3.2,2.6 3.5,3.3 3.4,7.8 -0.2,7 -3.4,12.5 -12.7,21.5 -9.3,9 -10,11.4 -5.4,18.4 l 2.7,4.1 -2.4,6.4 c -1.3,3.5 -3,6.8 -3.9,7.3 -2.7,1.7 -7.6,-1.4 -11.7,-7.3 -2.1,-3.1 -5.2,-6.5 -7,-7.6 -1.9,-1.2 -4.4,-4.4 -6.2,-8 -1.6,-3.3 -4.6,-7.7 -6.6,-9.7 -3.4,-3.6 -3.5,-3.9 -2.4,-7.6 2.7,-8.9 0.6,-16.9 -5.3,-20.8 -3.6,-2.3 -3.1,-3.3 1.1,-2.4 2.3,0.5 5.4,0.4 8.6,-0.5 3.3,-0.8 8.5,-1.1 15.2,-0.8 9.2,0.5 10.7,0.3 16.6,-2.1 7.7,-3 11.1,-2.7 16,1.3 z m -58.9,39.2 c 0.3,0.8 2.3,4.7 4.3,8.7 2,4 3.6,8.1 3.6,9.1 0,1 -1.1,5.1 -2.5,9.1 -1.4,4.2 -2.5,9.6 -2.5,12.6 0,8.5 -0.2,8.6 -23.7,10.4 -10.4,0.8 -17,0.8 -24.5,0 -5.6,-0.6 -10.5,-1.3 -10.8,-1.5 -0.3,-0.2 -4.4,-0.9 -9,-1.5 -15.3,-2.1 -28.8,-9.9 -26.6,-15.5 0.5,-1.4 2.3,-1.5 15.3,-0.9 17.4,0.7 23.8,-0.4 37,-6.6 10.8,-5 19.9,-11.1 29.1,-19.5 7.3,-6.5 8.9,-7.2 10.3,-4.4 z m -208,57.4 c 3.5,2.4 10.5,7 15.4,10.2 13.2,8.3 15.3,10.2 27.4,23.8 18.1,20.2 27.1,33.7 30.6,45.7 2.9,10.2 16.4,41.9 21,49.4 2.4,4.1 5.2,9.8 6.1,12.7 0.8,2.8 2.8,8.8 4.4,13.2 5.9,16.9 6.1,18.8 4.7,40.7 -0.8,12 -0.7,12.8 1.2,14.7 2.8,2.8 6.2,2.6 9.2,-0.5 1.9,-2 2.4,-3.5 2.3,-7.3 -0.3,-7.1 -3.1,-17 -6.4,-22.1 -2.5,-3.9 -3,-5.8 -3.2,-12.1 l -0.3,-7.4 3,0.1 c 1.7,0.1 5.5,0.9 8.5,1.7 3,0.9 7.8,2 10.5,2.6 11.9,2.4 18.5,5.2 18.5,8.1 0,0.5 -2.6,2.2 -5.7,3.7 -7.4,3.6 -10.7,8.2 -13.4,19.3 -1.2,4.6 -3.3,10.2 -4.8,12.4 -3.3,5 -4,15 -1.7,25 2.3,9.6 4.3,13.5 8.2,15.3 3,1.5 3.7,1.5 7.8,-0.1 5.7,-2.2 7.5,-1.3 12,5.7 4.5,6.9 10.7,12.6 19.2,17.2 3.8,2.1 7.7,4.5 8.7,5.3 2.2,1.9 2.3,9.2 0.2,13.3 -0.9,1.6 -2,5.2 -2.5,8.1 -0.7,3.3 -2,6.2 -3.6,7.9 -5.5,5.7 -2.4,11.5 5.4,10.3 4,-0.6 4.6,-0.4 9.2,3.5 6.4,5.4 11.6,7.7 13.7,6 2,-1.7 1,-5 -4.1,-12.8 -7.3,-11.4 -12,-20.6 -11.3,-22.4 0.9,-2.4 6.2,-2.2 10.3,0.4 3.3,2 3.6,2 8.4,0.4 5.4,-1.8 8.5,-1.4 10,1.4 0.9,1.8 4.2,3.4 9.2,4.5 2.3,0.5 3.6,2.2 7.3,9.6 2.5,4.9 4.5,9.4 4.5,9.9 0,0.5 -1,1.3 -2.3,1.7 -9.3,2.8 -6.5,10.4 6.1,16.5 11.2,5.5 -1.2,11.2 -16.8,7.8 -3.1,-0.6 -5.6,-0.7 -6.1,-0.2 -1.5,1.5 2.3,7.1 7.6,11.1 4.8,3.7 5,4 5.8,10.2 1.9,15 13.9,26.1 22.3,20.5 3.4,-2.2 2.9,-5.9 -1.6,-13.2 -2.1,-3.4 -3,-6 -2.8,-7.9 0.3,-2.5 1,-3.2 5.9,-4.8 5.1,-1.8 6.1,-1.9 9.9,-0.6 6.5,2.2 7.9,3.8 9.6,11.3 1.5,6.5 1.5,6.9 -0.6,11.1 -1.8,3.9 -1.9,4.9 -0.9,9 0.6,2.5 0.9,5.2 0.6,6 -0.3,0.8 0.2,2.9 1.2,4.7 1,1.9 2.3,5.1 3,7.1 0.7,2 2.9,5.1 4.9,6.8 2,1.7 5.2,4.3 7,5.8 l 3.2,2.7 -1,11.1 c -1.2,13.5 -3.7,21.9 -9,30.1 -3.6,5.7 -4.3,6.3 -7.4,6.3 -5.3,0 -6.3,-0.7 -11,-7.9 -2.4,-3.6 -8.2,-10.9 -12.9,-16.1 -4.7,-5.2 -11.4,-14 -14.7,-19.6 -3.4,-5.5 -8,-12.5 -10.3,-15.5 -6.4,-8.4 -37.7,-55.4 -43.2,-64.9 -2.7,-4.6 -7.7,-11.4 -11,-15 -3.4,-3.6 -9.1,-11.5 -12.7,-17.5 -3.5,-6.1 -8.7,-14.6 -11.5,-19 -2.8,-4.4 -7,-11.6 -9.4,-15.9 -2.8,-5 -7.7,-11.6 -13.4,-17.6 -5.3,-5.7 -14.5,-17.7 -22.4,-29.1 -21,-30.4 -41.4,-56.2 -49.8,-63.2 -4,-3.3 -7.3,-6.3 -7.3,-6.7 0,-0.4 -4.2,-5.1 -9.3,-10.6 -6.7,-7.1 -9.9,-11.3 -11.2,-14.9 -1.3,-3.3 -3.8,-6.8 -7.6,-10.5 -3.1,-3 -6.4,-7.1 -7.2,-9.1 -0.8,-2 -3.1,-5.4 -5,-7.6 -2,-2.1 -3.9,-5.2 -4.3,-6.8 -0.4,-1.7 -1.9,-5.5 -3.5,-8.6 -1.5,-3.1 -3.7,-8.4 -4.9,-11.8 -1.1,-3.5 -3.4,-8.6 -4.9,-11.4 -1.6,-2.9 -3.4,-7.4 -4.1,-10.2 -0.6,-2.7 -2.3,-7.1 -3.8,-9.7 -2.5,-4.4 -2.6,-4.9 -1.4,-10.5 0.7,-3.5 0.9,-9 0.6,-13.8 -0.6,-7.9 -0.6,-8 2.6,-12 3.9,-4.9 6,-9.4 6,-13.4 0,-3.4 0.9,-6.1 2,-6.1 0.4,0 3.6,2 7.1,4.5 z M 851,603.9 c 0,0.6 -0.4,1.3 -1,1.6 -0.5,0.3 -1,-0.1 -1,-0.9 0,-0.9 0.5,-1.6 1,-1.6 0.6,0 1,0.4 1,0.9 z m -68,20.2 c 0,1.1 -0.4,1.8 -1,1.4 -0.5,-0.3 -0.7,-1.2 -0.3,-2 0.7,-2.1 1.3,-1.9 1.3,0.6 z M 412,743.2 c 0,0.9 -0.8,2.2 -1.9,2.7 -2.2,1.2 -3.7,0.2 -7,-4.6 -2.4,-3.6 -6.6,-5.2 -8.4,-3.4 -1.5,1.5 -3.7,8.8 -3.7,12.5 0,4.7 3.4,7.6 9.2,7.6 7.2,0 25,9.1 30.7,15.7 5.4,6.3 8.8,13.5 9.6,20.5 0.6,5.6 0.6,5.8 -1.7,5.8 -1.4,0 -4.7,-0.7 -7.4,-1.5 -4.1,-1.2 -5.3,-2.2 -7.7,-6 -2.7,-4.7 -7.2,-7.5 -11.9,-7.5 -4.3,-0.1 -10,-2.8 -19.8,-9.6 -8.5,-5.7 -10.3,-7.5 -12.9,-12.3 -3.3,-6.3 -6.1,-16.1 -6.1,-21.5 0,-7.9 5.2,-12.7 9.3,-8.8 4.7,4.4 11.7,5.1 11.7,1.2 0,-1 0.5,-3.1 1,-4.5 l 1,-2.6 8,7.2 c 4.4,4 8,8.1 8,9.1 z m 295.8,74.9 c 1.9,1.7 4.8,3.6 6.3,4.1 1.6,0.5 3.1,1.8 3.4,2.7 0.6,1.9 -4.4,19 -6.9,24 -1.6,2.9 -8.1,8.8 -12.3,11 -2.9,1.5 -9.5,1.4 -11.6,-0.2 -1.9,-1.3 -5.7,-14.2 -5.7,-19.3 0,-1.9 0.8,-3.8 2.1,-5 1.2,-1 3.4,-4.1 4.9,-6.7 1.9,-3.3 4.7,-6.2 9.1,-9.1 3.5,-2.4 6.6,-4.4 6.8,-4.5 0.2,0 1.9,1.3 3.9,3 z m -42.7,3.4 c 6.2,0.7 8,2 10.2,7.5 3,7.2 2.9,7.5 -0.7,11.9 -5.4,6.4 -6.6,12.6 -4,19.6 0.4,0.8 -1.6,3.5 -4.5,6.3 -5.7,5.5 -7.1,8.4 -7.1,14.8 0,7.1 4.2,13.4 9.1,13.4 2,0 4,-1.5 8.4,-6.5 6.3,-7.2 8.8,-8.3 14.5,-6.6 4.9,1.5 5.5,3.5 3.5,11.3 -1.7,6.7 -4.4,10.4 -10,13.4 -3.4,1.8 -3.5,1.8 -5.8,-0.4 -2.7,-2.6 -5,-2.8 -6.7,-0.7 -1.1,1.3 -1,2.1 0.8,4.4 1.8,2.5 2,3.8 1.5,10.7 -0.6,8.8 -5.4,26.9 -7.7,29.2 -1.3,1.3 -2.1,1.2 -7.3,-0.6 -9.3,-3.4 -13.8,-3.3 -18.2,0.4 -6.8,5.7 -4.6,14.5 5.5,22.4 3.5,2.8 6.4,5.5 6.4,6 0,0.6 1.6,1.8 3.5,2.7 3.8,1.8 3.1,2 18.5,-3.7 4.6,-1.7 10.7,-4.4 13.5,-5.9 2.7,-1.6 6.7,-3.4 8.7,-4 5.1,-1.7 14.6,-8 21.7,-14.5 5.9,-5.4 10.1,-7.1 11.6,-4.6 0.3,0.5 3.1,1.7 6.1,2.6 l 5.6,1.6 -0.7,5.1 c -0.7,6.2 -5.1,15.4 -14.3,29.9 -12.3,19.7 -23.8,30.4 -39.5,36.9 -8.2,3.4 -9.3,3.7 -10.2,2.2 -0.5,-0.8 -2.1,-2.9 -3.3,-4.4 -2.1,-2.5 -2.3,-3.6 -1.7,-7.8 0.6,-4.2 0.4,-5.2 -1.4,-7 -2.5,-2.5 -8.2,-2.8 -13.5,-0.6 -3.5,1.5 -3.8,1.4 -12.3,-2.6 -8.3,-3.8 -13.8,-5 -16.3,-3.4 -0.6,0.4 -2.1,2.4 -3.5,4.4 l -2.3,3.8 -8.7,0.6 c -8.4,0.6 -8.8,0.5 -12.6,-2.3 -2.3,-1.6 -5.7,-3.4 -7.7,-4.1 -2,-0.6 -4.3,-1.8 -4.9,-2.7 -1.4,-1.7 -1.8,-7.4 -0.6,-8.5 0.3,-0.4 2.7,0.5 5.2,2 7.2,4.2 11.8,6.3 14.1,6.3 5.5,0 10,-5.2 10,-11.4 0,-1.3 1.7,-3.6 4.5,-5.9 5.3,-4.5 5.8,-7.4 2,-13 l -2.6,-3.7 2.5,-10.3 c 1.4,-5.6 4.4,-14.9 6.7,-20.7 4.8,-12.3 5.2,-18 1.9,-25.4 -2.7,-5.8 -2.8,-4.8 4.6,-37.6 6.5,-29.5 10.8,-45.4 12.8,-48.5 1.5,-2.3 4.6,-3.5 7.6,-2.9 0.8,0.1 4,0.5 7.1,0.9 z M 544.2,948.7 c 1.9,2.2 5.1,12.1 7.4,22.3 1.6,7.4 8.1,22.9 10.9,26 1.7,1.9 10.5,17.9 10.5,19.2 0,0.4 -1.9,1.7 -4.2,2.9 -2.3,1.2 -5.7,3.9 -7.6,6 -4,4.4 -5.7,4.7 -11,2 -8.3,-4.3 -10.1,-8.7 -12.2,-30.3 -1.6,-16.1 -1,-45.9 0.9,-48.1 1.7,-2.2 3.4,-2.1 5.3,0 z m 113.9,75.5 c -1.5,4.9 -1.2,7.6 1.4,10.7 2.6,3 2.7,3.3 1,5.1 -2.6,2.9 -9.7,6 -13.6,6 -1.9,0 -7.3,-1.1 -12,-2.4 -14.9,-4.1 -16.2,-6 -6.3,-8.7 3.2,-0.9 10.2,-3.4 15.4,-5.5 9.9,-4.1 10.5,-4.8 8.4,-9.9 -0.7,-1.7 -0.3,-1.6 2.7,0.7 1.9,1.5 3.2,3.3 3,4 z M 611,1034 c 1.1,1.1 2,2.4 2,2.9 0,1.5 -5.9,3.1 -11.3,3.1 h -5 l 1.9,-2.1 c 2.3,-2.6 7.4,-5.9 9.2,-5.9 0.6,0 2.1,0.9 3.2,2 z m 61.5,0 c -0.3,0.5 -1.1,1 -1.6,1 -0.6,0 -0.7,-0.5 -0.4,-1 0.3,-0.6 1.1,-1 1.6,-1 0.6,0 0.7,0.4 0.4,1 z m -91.2,6.3 c 3.2,0.7 5.9,1.6 6,2.2 0.1,0.5 -2.5,2.1 -5.8,3.4 -7.7,3 -23.9,4.1 -27,1.8 -2,-1.6 -2,-1.6 0.1,-3.7 4.6,-4.7 15,-6.1 26.7,-3.7 z"
     id="path1"
     style="fill:#fff;stroke:none;stroke-width:0.1" />
  <path
     d="m 236,561.9 c -4.3,1.3 -8.4,3.8 -11,6.6 -2.1,2.2 -2.5,3.7 -2.5,8.3 0,9.1 3.8,13.4 20.8,23.3 3.3,1.9 9.3,6.3 13.5,9.8 12.9,10.7 19.3,12.3 24.7,5.9 4.2,-4.9 3.5,-10.8 -2.4,-22.2 -6.4,-12.3 -10,-17.4 -15.8,-22.6 -9,-8 -19.4,-11.5 -27.3,-9.1 z"
     id="path2"
     style="fill:#fff;stroke:none;stroke-width:0.1" />
  <path
     d="m 436,77 c -2.1,2.1 -2.6,6.5 -1.1,8.9 1.6,2.5 -0.5,4.7 -9.7,10.6 -12.8,8.4 -15.7,11.7 -17.6,20.5 -0.3,1.4 -3.9,6.3 -8.1,11 -4.1,4.7 -8.7,10.3 -10.2,12.5 -1.5,2.2 -4.8,6.7 -7.3,10 -2.5,3.3 -6.5,8.8 -8.8,12.2 -2.4,3.5 -4.7,6.3 -5.3,6.3 -0.6,0 -2.1,-1.3 -3.5,-2.9 -1.4,-1.6 -4.1,-3.5 -6,-4.1 -6.8,-2.3 -15.4,3.1 -20.3,12.8 -2.5,4.9 -10.7,29.5 -13.2,39.6 -3.9,16 -3.5,15.3 -9.7,19.5 -9.5,6.4 -15.7,12.7 -22.2,22.3 -6.8,10.2 -8.3,14.4 -5.5,15.4 1.2,0.5 3,-0.7 6.4,-4.2 2.5,-2.8 7.7,-6.8 11.5,-8.9 4.4,-2.5 10,-7.1 15,-12.3 7.9,-8.1 15.4,-13.2 19.6,-13.2 1.1,0 3.2,0.7 4.6,1.6 3.4,2.3 8.8,2.1 17,-0.6 21.4,-7 31.5,-16 25.2,-22.3 -2,-2 -3.9,-2.6 -10.5,-3.2 -10.4,-0.9 -11.1,-1.4 -8.7,-5.5 2.1,-3.6 2.3,-3.7 10.7,-7.4 7.8,-3.4 20.6,-16.2 27.4,-27.6 11.9,-19.8 34.3,-41.9 60.5,-59.9 8.8,-6.1 11.8,-10 11.8,-15.8 0,-8.5 -6.2,-11.8 -19.8,-10.7 l -8,0.7 -1.8,-2.9 c -1,-1.6 -2.3,-3.2 -2.9,-3.6 -2,-1.5 -7.5,-0.8 -9.5,1.2 z"
     id="path4"
     style="fill:#fff;stroke:none;stroke-width:0.1" />
  <path
     d="m 679.6,513.2 c -2.9,2.5 -3.6,6.6 -3.9,24.6 -0.2,7.9 -1.6,10.2 -6.3,10.2 -7.1,0 -4.3,9.1 3.3,10.6 2.6,0.5 3.7,0 7.2,-3.1 l 4.2,-3.8 5.2,1.2 c 12.2,2.7 13.9,2.9 17.5,1.9 2,-0.6 5.2,-2.1 7.1,-3.4 4.3,-2.9 6.2,-3 8.6,-0.4 2.8,3.1 8.7,4.3 12.8,2.7 9.6,-4.1 10.2,-19.5 1,-23.4 -4.5,-1.8 -8.5,-1.1 -12.9,2.2 -3.9,3 -4,3 -9.8,0.5 -5.6,-2.5 -9.2,-1.8 -16.2,3.1 l -4.6,3.4 -1.9,-2.4 c -2.7,-3.4 -3.4,-7 -1.9,-10.5 2.2,-5.4 2.4,-9.9 0.3,-12.3 -2.8,-3.4 -6.5,-3.9 -9.7,-1.1 z"
     id="path10"
     style="fill:#fff;stroke:none;stroke-width:0.1" />
  <path
     d="m 289.4,526.3 c -3.2,2.8 -3.6,8.4 -0.9,13.7 2.8,5.5 17.1,19 27.5,25.9 5.2,3.6 12.7,9.4 16.5,13 3.9,3.7 10.4,9.5 14.6,12.9 4.2,3.5 10,9 12.9,12.3 8.5,9.7 16.9,12.5 22.7,7.5 2.4,-2.1 2.8,-3.2 2.7,-7.3 0,-2.8 -1,-6.5 -2.2,-8.9 -2.5,-4.9 -23.2,-25.4 -41.7,-41.4 -12,-10.3 -35.4,-26.9 -41.2,-29.1 -4.1,-1.5 -8,-1 -10.9,1.4 z"
     id="path11"
     style="fill:#fff;stroke:none;stroke-width:0.1" />
  <path
     d="m 527.5,651.9 c -4.6,2.1 -7.9,5.4 -9.4,9.4 -1.8,4.6 -2.6,31.3 -1.2,38.2 3,14.8 7.1,21.6 14.1,23.5 5.4,1.4 9.1,0.5 21.6,-5.6 12.6,-6 15.4,-9 15.4,-16.3 0,-4.5 -1.8,-8.6 -7.4,-16.9 -1.9,-2.9 -4,-7.2 -4.6,-9.5 -3,-11.4 -5.4,-17 -8.9,-20.8 -3.6,-3.7 -4.1,-3.9 -9.7,-3.9 -3.6,0 -7.5,0.8 -9.9,1.9 z"
     id="path14"
     style="fill:#fff;stroke:none;stroke-width:0.1" />
</svg>
