<svg xmlns="http://www.w3.org/2000/svg" version="1.1" viewBox="0.73 137.07 998.53 724.52">
    <g id="View Layer_LineSet" xmlns:inkscape="http://www.inkscape.org/namespaces/inkscape" inkscape:groupmode="lineset" inkscape:label="View Layer_LineSet">
        <g xmlns:inkscape="http://www.inkscape.org/namespaces/inkscape" inkscape:groupmode="layer" id="strokes" inkscape:label="strokes">
            <path fill="#fff" d="M 132.25781 137.09766 L 131.57617 137.16992 L 131.00195 137.38281 L 130.5625 137.72656 L 130.2793 138.18359 L 130.16992 138.73047 L 130.23438 139.33984 L 130.47461 139.98242 C 153.70285 186.4478 176.94152 232.90775 200.16992 279.37305 L 200.41016 280.01562 L 200.47656 280.625 L 200.36523 281.17188 L 200.08398 281.62891 L 199.64453 281.97266 L 199.06836 282.18555 L 198.38672 282.25781 L 164.51562 282.25781 L 163.77734 282.33594 L 163.03125 282.56641 L 162.31641 282.93555 L 161.66992 283.42773 L 161.12109 284.01758 L 160.69922 284.67578 L 160.42773 285.36523 C 110.9577 463.44536 55.373078 663.57979 0.86328125 859.79492 L 0.73828125 860.44141 L 0.75585938 860.9668 L 0.91015625 861.34375 L 1.1992188 861.55078 L 1.6054688 861.58203 L 2.1074219 861.43359 L 2.6835938 861.11328 C 153.05809 760.86362 309.63442 656.47903 481.1875 542.11133 L 481.7832 541.63281 C 481.97258 541.42719 482.1627 541.22174 482.35156 541.01562 L 482.86133 540.29297 L 483.28516 539.49805 L 483.60547 538.67383 L 483.80469 537.85938 L 483.87109 537.09766 L 483.87109 398.38672 L 483.95117 397.66992 L 484.19141 396.98633 L 484.57422 396.37695 L 485.08594 395.86523 L 485.69727 395.48047 L 486.37891 395.24219 L 487.09766 395.16016 L 512.90234 395.16016 L 513.62109 395.24219 L 514.30273 395.48047 L 514.91406 395.86523 L 515.42578 396.37695 L 515.81055 396.98633 L 516.04883 397.66992 L 516.12891 398.38672 L 516.12891 537.09766 L 516.19531 537.85938 L 516.39453 538.67383 L 516.71484 539.49805 L 517.13867 540.29297 L 517.64844 541.01562 C 517.83775 541.22132 518.02697 541.4276 518.2168 541.63281 L 518.8125 542.11133 C 678.3135 648.44533 837.81519 754.77962 997.31641 861.11328 L 997.89258 861.43359 L 998.39453 861.58203 L 998.80078 861.55078 L 999.08984 861.34375 L 999.24414 860.9668 L 999.26172 860.44141 L 999.13672 859.79492 C 950.32884 684.12785 894.54566 483.2367 839.57227 285.36523 L 839.30078 284.67578 L 838.87891 284.01758 L 838.33008 283.42773 L 837.68359 282.93555 L 836.96875 282.56641 L 836.22266 282.33594 L 835.48438 282.25781 L 801.61328 282.25781 L 800.93164 282.18555 L 800.35547 281.97266 L 799.91602 281.62891 L 799.63477 281.17188 L 799.52344 280.625 L 799.58984 280.01562 L 799.83008 279.37305 C 821.80993 235.4055 846.8445 185.34859 869.52539 139.98242 L 869.76562 139.33984 L 869.83008 138.73047 L 869.7207 138.18359 L 869.4375 137.72656 L 868.99805 137.38281 L 868.42383 137.16992 L 867.74219 137.09766 L 519.35547 137.09766 L 518.63672 137.17773 L 517.95508 137.41602 C 517.75141 137.54435 517.5469 137.67163 517.34375 137.80078 L 516.83203 138.31055 L 516.44727 138.92383 L 516.21094 139.60547 L 516.12891 140.32227 L 516.12891 279.03125 L 516.04883 279.75 L 515.81055 280.43164 L 515.42578 281.04492 L 514.91406 281.55469 L 514.30273 281.93945 L 513.62109 282.17773 L 512.90234 282.25781 L 487.09766 282.25781 L 486.37891 282.17773 L 485.69727 281.93945 L 485.08594 281.55469 L 484.57422 281.04492 L 484.19141 280.43164 L 483.95117 279.75 L 483.87109 279.03125 L 483.87109 140.32227 L 483.78906 139.60547 L 483.55273 138.92383 L 483.16797 138.31055 L 482.65625 137.80078 C 482.45225 137.67244 482.24934 137.54369 482.04492 137.41602 L 481.36328 137.17773 L 480.64453 137.09766 L 132.25781 137.09766 z M 314.91797 250 L 367.74219 250 L 368.46094 250.08008 L 369.14258 250.31836 L 369.75391 250.70312 L 370.26367 251.21484 L 370.64844 251.82617 L 370.88672 252.50781 L 370.96875 253.22656 L 370.96875 279.03125 L 370.88672 279.75 L 370.64844 280.43164 L 370.26367 281.04492 L 369.75391 281.55469 L 369.14258 281.93945 L 368.46094 282.17773 L 367.74219 282.25781 L 331.04688 282.25781 L 330.29297 282.18555 L 329.50391 281.97266 L 328.7207 281.62891 L 327.98047 281.17188 L 327.32227 280.625 L 326.7793 280.01562 L 326.37891 279.37305 C 321.96294 270.54437 317.54903 261.71431 313.13477 252.88477 L 312.89453 252.24219 L 312.82617 251.63281 L 312.9375 251.08594 L 313.2207 250.62891 L 313.66016 250.28516 L 314.23438 250.07227 L 314.91797 250 z M 632.25781 250 L 685.08203 250 L 685.76562 250.07227 L 686.33984 250.28516 L 686.7793 250.62891 L 687.0625 251.08594 L 687.17383 251.63281 L 687.10742 252.24219 L 686.86523 252.88477 C 682.45059 261.71412 678.03617 270.54392 673.62109 279.37305 L 673.2207 280.01562 L 672.67773 280.625 L 672.01953 281.17188 L 671.2793 281.62891 L 670.49609 281.97266 L 669.70703 282.18555 L 668.95312 282.25781 L 632.25781 282.25781 L 631.53906 282.17773 L 630.85742 281.93945 L 630.24609 281.55469 L 629.73633 281.04492 L 629.35156 280.43164 L 629.11328 279.75 L 629.03125 279.03125 L 629.03125 253.22656 L 629.11328 252.50781 L 629.35156 251.82617 L 629.73633 251.21484 L 630.24609 250.70312 L 630.85742 250.31836 L 631.53906 250.08008 L 632.25781 250 z M 250.26562 395.16016 L 367.74219 395.16016 L 368.46094 395.24219 L 369.14258 395.48047 L 369.75391 395.86523 L 370.26367 396.37695 L 370.64844 396.98633 L 370.88672 397.66992 L 370.96875 398.38672 L 370.96875 476.74414 L 370.90039 477.50781 L 370.70117 478.32227 L 370.38281 479.14648 L 369.95703 479.93945 L 369.44727 480.66406 L 368.88086 481.28125 L 368.2832 481.75977 C 305.64502 523.51857 247.63349 562.19355 192.64648 598.85156 L 192.07031 599.17188 L 191.56641 599.32031 L 191.16016 599.28906 L 190.87305 599.08008 L 190.7168 598.70312 L 190.70117 598.17969 L 190.82617 597.5332 C 209.68788 529.61931 227.06782 467.06656 246.17578 398.26953 L 246.44922 397.57812 L 246.86914 396.92188 L 247.41797 396.33203 L 248.06641 395.83984 L 248.7793 395.46875 L 249.52539 395.23828 L 250.26562 395.16016 z M 632.25781 395.16016 L 749.73438 395.16016 L 750.47461 395.23828 L 751.2207 395.46875 L 751.93359 395.83984 L 752.58203 396.33203 L 753.13086 396.92188 L 753.55078 397.57812 L 753.82422 398.26953 C 774.34286 472.14436 789.6532 527.25035 809.17383 597.5332 L 809.29883 598.17969 L 809.2832 598.70312 L 809.12695 599.08008 L 808.83984 599.28906 L 808.43359 599.32031 L 807.92969 599.17188 L 807.35352 598.85156 C 746.59252 558.34488 683.89198 516.54323 631.7168 481.75977 L 631.11914 481.28125 L 630.55273 480.66406 L 630.04297 479.93945 L 629.61719 479.14648 L 629.29883 478.32227 L 629.09961 477.50781 L 629.03125 476.74414 L 629.03125 398.38672 L 629.11328 397.66992 L 629.35156 396.98633 L 629.73633 396.37695 L 630.24609 395.86523 L 630.85742 395.48047 L 631.53906 395.24219 L 632.25781 395.16016 z"/>
        </g>
    </g>
</svg>
