<svg xmlns="http://www.w3.org/2000/svg" version="1.1" viewBox="0.67 167.48 2998.68 663.83">
    <g id="View Layer_LineSet" xmlns:inkscape="http://www.inkscape.org/namespaces/inkscape" inkscape:groupmode="lineset" inkscape:label="View Layer_LineSet">
        <g xmlns:inkscape="http://www.inkscape.org/namespaces/inkscape" inkscape:groupmode="layer" id="strokes" inkscape:label="strokes">
            <path fill="#fff" d="M 121.18359 167.48828 L 120.55859 167.55469 L 120.03125 167.75 L 119.62891 168.06445 L 119.36914 168.48242 L 119.26758 168.98438 L 119.32812 169.54297 L 119.54883 170.13086 L 120.03906 171.11133 C 141.1601 213.35814 162.28558 255.60309 183.4082 297.84961 L 183.62891 298.4375 L 183.68945 298.99609 L 183.58789 299.49609 L 183.32812 299.91602 L 182.92578 300.23047 L 182.39844 300.42578 L 181.77344 300.49219 L 180.74023 300.49219 L 150.74023 300.49219 L 150.0625 300.56445 L 149.37891 300.77539 L 148.72461 301.11328 L 148.13086 301.56445 L 147.62891 302.10547 L 147.24219 302.70703 L 146.99219 303.33984 C 102.39568 463.91144 50.672322 650.07602 0.79296875 829.66406 L 0.67773438 830.25781 L 0.69140625 830.73828 L 0.8359375 831.08203 L 1.0996094 831.27344 L 1.4726562 831.30273 L 1.9335938 831.16602 L 2.4609375 830.87305 C 41.341523 804.96448 86.506808 774.83662 129.23242 746.35742 L 129.80078 745.92188 L 130.37891 745.36328 L 130.93945 744.71484 L 131.45312 744.00391 L 131.89648 743.26758 L 132.24609 742.54492 L 132.48242 741.86914 C 160.75905 640.08832 193.86409 520.90065 225.37109 407.47266 L 225.5625 406.78906 L 225.8125 406.1543 L 226.19727 405.55273 L 226.69922 405.01367 L 227.29297 404.5625 L 227.94727 404.22266 L 228.63086 404.01172 L 229.30859 403.94141 L 410.1543 403.94141 L 410.76953 404.00195 L 411.26758 404.17969 L 411.625 404.4668 L 411.82227 404.84961 L 411.85156 405.30664 L 411.70703 405.81641 L 411.40234 406.35352 C 400.74065 421.44267 388.44319 438.76835 376.08203 456.25391 L 375.64258 456.83008 L 375.09961 457.46289 L 374.48242 458.11523 L 373.82227 458.75781 L 373.15234 459.35547 L 372.50586 459.88086 L 371.91602 460.30469 C 318.03527 496.24133 255.36043 538.00011 195.37109 578.00195 L 194.80469 578.4375 L 194.22656 578.99414 L 193.66602 579.64453 L 193.15039 580.35547 L 192.70703 581.0918 L 192.35938 581.81445 L 192.12109 582.48828 C 179.56766 627.65668 164.66616 681.34483 151.3418 729.29883 L 151.22656 729.89062 L 151.24023 730.37109 L 151.38477 730.7168 L 151.64844 730.9082 L 152.01953 730.93555 L 152.48242 730.80078 L 153.00977 730.50781 C 239.09145 673.12388 342.44533 604.21688 440.89258 538.58594 L 441.48242 538.16016 L 442.12891 537.63477 L 442.79688 537.03711 L 443.45703 536.39453 L 444.07422 535.74219 L 444.61719 535.11133 L 445.05859 534.5332 C 472.71917 495.45967 504.67801 450.29457 535.7832 406.35352 L 536.23828 405.81641 L 536.81836 405.30664 L 537.49414 404.84961 L 538.23242 404.4668 L 538.99609 404.17969 L 539.74609 404.00195 L 540.44727 403.94141 L 662.07031 403.94141 L 662.72852 404.01562 L 663.35156 404.23438 L 663.91211 404.58594 L 664.38086 405.05469 L 664.73242 405.61328 L 664.95117 406.23828 L 665.02539 406.89648 L 665.02539 430.54297 L 664.95117 431.19922 L 664.73242 431.82422 L 664.38086 432.38477 L 663.91211 432.85352 L 663.35156 433.20508 L 662.72852 433.42383 L 662.07031 433.49805 L 537.64453 433.49805 L 536.94336 433.55859 L 536.19336 433.73633 L 535.42969 434.02344 L 534.69141 434.40625 L 534.01562 434.86328 L 533.43555 435.37305 L 532.98242 435.91016 C 511.2259 466.6407 487.58449 500.05406 463.17578 534.5332 L 462.86914 535.07031 L 462.72852 535.58008 L 462.75586 536.03711 L 462.95312 536.41992 L 463.31055 536.70703 L 463.80859 536.88477 L 464.42383 536.94531 L 765.51758 536.94531 L 766.17578 536.87109 L 766.80078 536.65234 L 767.36133 536.30078 L 767.82812 535.83203 L 768.18164 535.27344 L 768.40039 534.64844 L 768.47461 533.99023 L 768.47461 406.89648 L 768.54883 406.23828 L 768.76758 405.61328 L 769.11914 405.05469 L 769.58789 404.58594 L 770.14648 404.23438 L 770.77148 404.01562 L 771.42969 403.94141 L 795.07617 403.94141 L 795.73242 404.01562 L 796.35742 404.23438 L 796.91797 404.58594 L 797.38672 405.05469 L 797.73828 405.61328 L 797.95703 406.23828 L 798.03125 406.89648 L 798.03125 533.99023 L 798.10547 534.64844 L 798.32422 535.27344 L 798.67578 535.83203 L 799.14453 536.30078 L 799.70508 536.65234 L 800.32812 536.87109 L 800.98633 536.94531 L 898.52344 536.94531 L 899.18164 536.87109 L 899.80664 536.65234 L 900.36719 536.30078 L 900.83594 535.83203 L 901.1875 535.27344 L 901.4043 534.64844 L 901.48047 533.99023 C 901.48047 501.4779 901.47947 468.96548 901.48047 436.45312 L 901.5332 435.84766 L 901.6875 435.37891 L 901.9375 435.06641 L 902.26758 434.92969 L 902.66406 434.97266 L 903.10547 435.19727 L 903.57031 435.58789 C 926.80922 458.82298 950.04283 482.06325 973.28125 505.29883 L 973.74609 505.83789 L 974.1875 506.49805 L 974.58203 507.24609 L 974.91211 508.04688 L 975.16016 508.85547 L 975.3125 509.63477 L 975.36328 510.3457 C 975.33948 518.22736 975.31938 526.10856 975.29688 533.99023 L 975.36914 534.64844 L 975.58594 535.27344 L 975.9375 535.83203 L 976.40234 536.30078 L 976.96289 536.65234 L 977.58789 536.87109 L 978.24414 536.94531 L 980.11719 536.94531 L 1090.6426 536.94531 L 1091.3008 536.87109 L 1091.9258 536.65234 L 1092.4844 536.30078 L 1092.9531 535.83203 L 1093.3047 535.27344 L 1093.5234 534.64844 L 1093.5977 533.99023 L 1093.5977 480.78711 L 1093.5469 480.07812 L 1093.3906 479.29883 L 1093.1426 478.48828 L 1092.8105 477.68945 L 1092.4141 476.94141 L 1091.9727 476.28125 L 1091.5078 475.74219 C 1070.2903 454.51336 1045.6326 429.88223 1021.7969 406.03125 L 1021.4043 405.56641 L 1021.1816 405.12305 L 1021.1387 404.72852 L 1021.2754 404.39648 L 1021.5859 404.14844 L 1022.0566 403.99219 L 1022.6621 403.94141 L 1120.1973 403.94141 L 1120.8555 404.01562 L 1121.4805 404.23438 L 1122.041 404.58594 L 1122.5098 405.05469 L 1122.8613 405.61328 L 1123.0801 406.23828 L 1123.1543 406.89648 L 1123.1543 533.99023 L 1123.2285 534.64844 L 1123.4473 535.27344 L 1123.7988 535.83203 L 1124.2676 536.30078 L 1124.8262 536.65234 L 1125.4512 536.87109 L 1126.1094 536.94531 L 1415.7656 536.94531 L 1416.4238 536.87109 L 1417.0469 536.65234 L 1417.6074 536.30078 L 1418.0762 535.83203 L 1418.4277 535.27344 L 1418.6465 534.64844 L 1418.7207 533.99023 L 1418.7207 421.67578 L 1418.6465 421.01758 L 1418.4277 420.39258 L 1418.0762 419.83203 L 1417.6074 419.36328 L 1417.0469 419.01172 L 1416.4238 418.79297 L 1415.7656 418.71875 L 1318.2285 418.71875 L 1317.5703 418.79297 L 1316.9453 419.01172 L 1316.3848 419.36328 L 1315.918 419.83203 L 1315.5645 420.39258 L 1315.3457 421.01758 L 1315.2715 421.67578 L 1315.2715 430.54297 L 1315.1973 431.19922 L 1314.9805 431.82422 L 1314.627 432.38477 L 1314.1602 432.85352 L 1313.5996 433.20508 L 1312.9746 433.42383 L 1312.3164 433.49805 L 1229.5586 433.49805 L 1228.9004 433.42383 L 1228.2754 433.20508 L 1227.7148 432.85352 L 1227.2461 432.38477 L 1226.8945 431.82422 L 1226.6758 431.19922 L 1226.6016 430.54297 L 1226.6016 406.89648 L 1226.6758 406.23828 L 1226.8945 405.61328 L 1227.2461 405.05469 L 1227.7148 404.58594 L 1228.2754 404.23438 L 1228.9004 404.01562 L 1229.5586 403.94141 L 1578.3242 403.94141 L 1578.9824 404.01562 L 1579.6074 404.23438 L 1580.168 404.58594 L 1580.6367 405.05469 L 1580.9883 405.61328 L 1581.207 406.23828 L 1581.2812 406.89648 L 1581.2812 533.99023 L 1581.3555 534.64844 L 1581.5742 535.27344 L 1581.9258 535.83203 L 1582.3945 536.30078 L 1582.9531 536.65234 L 1583.5781 536.87109 L 1584.2363 536.94531 L 1873.8926 536.94531 L 1874.5488 536.87109 L 1875.1738 536.65234 L 1875.7344 536.30078 L 1876.2031 535.83203 L 1876.5547 535.27344 L 1876.7734 534.64844 L 1876.8477 533.99023 L 1876.8477 406.89648 L 1876.9219 406.23828 L 1877.1406 405.61328 L 1877.4922 405.05469 L 1877.9609 404.58594 L 1878.5215 404.23438 L 1879.1445 404.01562 L 1879.8027 403.94141 L 2095.5684 403.94141 L 2096.2266 404.01562 L 2096.8516 404.23438 L 2097.4102 404.58594 L 2097.8789 405.05469 L 2098.2305 405.61328 L 2098.4492 406.23828 L 2098.5234 406.89648 L 2098.5234 430.54297 L 2098.4492 431.19922 L 2098.2305 431.82422 L 2097.8789 432.38477 L 2097.4102 432.85352 L 2096.8516 433.20508 L 2096.2266 433.42383 L 2095.5684 433.49805 L 2012.8105 433.49805 L 2012.1523 433.42383 L 2011.5273 433.20508 L 2010.9668 432.85352 L 2010.498 432.38477 L 2010.1465 431.82422 L 2009.9277 431.19922 L 2009.8535 430.54297 L 2009.8535 421.67578 L 2009.7793 421.01758 L 2009.5625 420.39258 L 2009.209 419.83203 L 2008.7402 419.36328 L 2008.1816 419.01172 L 2007.5566 418.79297 L 2006.8984 418.71875 L 1909.3613 418.71875 L 1908.7031 418.79297 L 1908.0781 419.01172 L 1907.5195 419.36328 L 1907.0508 419.83203 L 1906.6992 420.39258 L 1906.4805 421.01758 L 1906.4062 421.67578 L 1906.4062 533.99023 L 1906.4805 534.64844 L 1906.6992 535.27344 L 1907.0508 535.83203 L 1907.5195 536.30078 L 1908.0781 536.65234 L 1908.7031 536.87109 L 1909.3613 536.94531 L 2199.0176 536.94531 L 2199.6738 536.87109 L 2200.2988 536.65234 L 2200.8594 536.30078 L 2201.3262 535.83203 L 2201.6797 535.27344 L 2201.8984 534.64844 L 2201.9727 533.99023 L 2201.9727 406.89648 L 2202.0469 406.23828 L 2202.2656 405.61328 L 2202.6172 405.05469 L 2203.0859 404.58594 L 2203.6465 404.23438 L 2204.2695 404.01562 L 2204.9277 403.94141 L 2228.5723 403.94141 L 2229.2305 404.01562 L 2229.8555 404.23438 L 2230.416 404.58594 L 2230.8848 405.05469 L 2231.2363 405.61328 L 2231.4531 406.23828 L 2231.5293 406.89648 L 2231.5293 533.99023 L 2231.6035 534.64844 L 2231.8203 535.27344 L 2232.1738 535.83203 L 2232.6406 536.30078 L 2233.2012 536.65234 L 2233.8262 536.87109 L 2234.4844 536.94531 L 2524.1387 536.94531 L 2524.7969 536.87109 L 2525.4219 536.65234 L 2525.9824 536.30078 L 2526.4492 535.83203 L 2526.8027 535.27344 L 2527.0215 534.64844 L 2527.0957 533.99023 L 2527.0957 421.67578 L 2527.0215 421.01758 L 2526.8027 420.39258 L 2526.4492 419.83203 L 2525.9824 419.36328 L 2525.4219 419.01172 L 2524.7969 418.79297 L 2524.1387 418.71875 L 2426.6035 418.71875 L 2425.9453 418.79297 L 2425.3203 419.01172 L 2424.7598 419.36328 L 2424.293 419.83203 L 2423.9395 420.39258 L 2423.7207 421.01758 L 2423.6465 421.67578 L 2423.6465 430.54297 L 2423.5723 431.19922 L 2423.3535 431.82422 L 2423.002 432.38477 L 2422.5332 432.85352 L 2421.9727 433.20508 L 2421.3633 433.41797 L 2421.3496 433.42383 L 2420.6914 433.49805 L 2337.9316 433.49805 L 2337.2754 433.42383 L 2336.6504 433.20508 L 2336.0898 432.85352 L 2335.6211 432.38477 L 2335.2695 431.82422 L 2335.0508 431.19922 L 2334.9766 430.54297 L 2334.9766 406.89648 L 2335.0508 406.23828 L 2335.2695 405.61328 L 2335.6211 405.05469 L 2336.0898 404.58594 L 2336.6504 404.23438 L 2337.2754 404.01562 L 2337.9316 403.94141 L 2553.6953 403.94141 L 2554.3535 404.01562 L 2554.9785 404.23438 L 2555.5371 404.58594 L 2556.0059 405.05469 L 2556.3574 405.61328 L 2556.5762 406.23828 L 2556.6504 406.89648 L 2556.6504 407.47266 L 2556.6504 533.99023 L 2556.7129 534.68945 L 2556.8945 535.43555 L 2557.1875 536.19141 L 2557.5762 536.91797 L 2558.043 537.58008 L 2558.5625 538.14648 L 2559.1094 538.58594 C 2591.9514 560.48367 2624.7983 582.3742 2657.6406 604.27148 L 2658.1875 604.5625 L 2658.707 604.69141 L 2659.1738 604.64844 L 2659.5625 604.44141 L 2659.8555 604.07617 L 2660.0371 603.57227 L 2660.0996 602.95508 L 2660.0996 406.89648 L 2660.1738 406.23828 L 2660.3906 405.61328 L 2660.7441 405.05469 L 2661.2109 404.58594 L 2661.7715 404.23438 L 2662.3965 404.01562 L 2663.0547 403.94141 L 2770.6934 403.94141 L 2771.3691 404.01172 L 2772.0527 404.22266 L 2772.707 404.5625 L 2773.3027 405.01367 L 2773.8047 405.55273 L 2774.1895 406.1543 L 2774.4395 406.78906 C 2789.4618 460.85666 2807.2069 524.76902 2825.1543 589.36523 L 2825.2695 589.95703 L 2825.2559 590.4375 L 2825.1113 590.7832 L 2824.8477 590.97461 L 2824.4766 591.00391 L 2824.0137 590.86719 L 2823.4863 590.57227 L 2821.8086 589.45508 C 2773.6573 557.35616 2725.5089 525.25283 2677.3574 493.1543 L 2676.8105 492.86328 L 2676.293 492.73633 L 2675.8242 492.77734 L 2675.4355 492.98438 L 2675.1426 493.35156 L 2674.9609 493.85352 L 2674.8984 494.4707 L 2674.8984 612.82227 L 2674.9609 613.52148 L 2675.1426 614.26758 L 2675.4355 615.02344 L 2675.8242 615.75195 L 2676.293 616.41406 L 2676.8105 616.97852 L 2677.3574 617.41797 C 2776.5096 683.51119 2888.0055 757.85528 2997.541 830.87305 L 2998.0684 831.16602 L 2998.5293 831.30273 L 2998.9023 831.27344 L 2999.166 831.08203 L 2999.3086 830.73828 L 2999.3223 830.25781 L 2999.209 829.66406 C 2954.2527 667.77024 2905.1016 490.94718 2853.0078 303.33984 L 2852.7578 302.70703 L 2852.3711 302.10547 L 2851.8691 301.56445 L 2851.2754 301.11328 L 2850.6211 300.77539 L 2849.9375 300.56445 L 2849.2617 300.49219 L 2848.2266 300.49219 L 2818.2266 300.49219 L 2817.6016 300.42578 L 2817.0742 300.23047 L 2816.6719 299.91602 L 2816.4141 299.49609 L 2816.3125 298.99609 L 2816.373 298.4375 L 2816.5938 297.84961 C 2835.9101 259.21663 2858.0743 214.88598 2880.4512 170.13086 L 2880.6719 169.54297 L 2880.7324 168.98438 L 2880.6309 168.48242 L 2880.3711 168.06445 L 2879.9688 167.75 L 2879.4414 167.55469 L 2878.8164 167.48828 L 2559.6055 167.48828 L 2558.9473 167.5625 L 2558.3223 167.7793 L 2557.7637 168.13281 L 2557.2949 168.60156 L 2556.9434 169.16016 L 2556.7246 169.78516 L 2556.6504 170.44336 L 2556.6504 297.53711 L 2556.5762 298.19531 L 2556.3574 298.81836 L 2556.0059 299.38086 L 2555.5371 299.84766 L 2554.9766 300.19922 L 2554.3516 300.41992 L 2553.6953 300.49219 L 2337.9316 300.49219 L 2337.2734 300.41992 L 2336.6484 300.19922 L 2336.0898 299.84766 L 2335.6211 299.38086 L 2335.2695 298.81836 L 2335.0508 298.19531 L 2334.9766 297.53711 L 2334.9766 273.89258 L 2335.0508 273.23438 L 2335.2695 272.60938 L 2335.6211 272.04883 L 2336.0898 271.58008 L 2336.6484 271.22852 L 2337.2734 271.00977 L 2337.9316 270.93555 L 2420.6895 270.93555 L 2421.3477 271.00977 L 2421.3633 271.01562 L 2421.9727 271.22852 L 2422.5332 271.58008 L 2423.002 272.04883 L 2423.3535 272.60938 L 2423.5723 273.23438 L 2423.6465 273.89258 L 2423.6465 282.75977 L 2423.7207 283.41602 L 2423.9375 284.04102 L 2424.291 284.60156 L 2424.7598 285.06836 L 2425.3184 285.42188 L 2425.9434 285.64062 L 2426.6016 285.71484 L 2524.1387 285.71484 L 2524.7969 285.64062 L 2525.4219 285.42188 L 2525.9805 285.06836 L 2526.4492 284.60156 L 2526.8008 284.04102 L 2527.0195 283.41602 L 2527.0938 282.75977 L 2527.0938 170.44336 L 2527.0195 169.78516 L 2526.8008 169.16016 L 2526.4492 168.60156 L 2525.9805 168.13281 L 2525.4219 167.7793 L 2524.7969 167.5625 L 2524.1387 167.48828 L 2234.4824 167.48828 L 2233.8262 167.5625 L 2233.2012 167.7793 L 2232.6406 168.13281 L 2232.1719 168.60156 L 2231.8203 169.16016 L 2231.6016 169.78516 L 2231.5273 170.44336 L 2231.5273 297.53711 L 2231.4531 298.19531 L 2231.2344 298.81836 L 2230.8828 299.38086 L 2230.4141 299.84766 L 2229.8535 300.19922 L 2229.2285 300.41992 L 2228.5723 300.49219 L 2012.8086 300.49219 L 2012.1504 300.41992 L 2011.5254 300.19922 L 2010.9668 299.84766 L 2010.498 299.38086 L 2010.1465 298.81836 L 2009.9277 298.19531 L 2009.8535 297.53711 L 2009.8535 273.89258 L 2009.9277 273.23438 L 2010.1465 272.60938 L 2010.498 272.04883 L 2010.9668 271.58008 L 2011.5254 271.22852 L 2012.1504 271.00977 L 2012.8086 270.93555 L 2095.5684 270.93555 L 2096.2246 271.00977 L 2096.8496 271.22852 L 2097.4102 271.58008 L 2097.8789 272.04883 L 2098.2305 272.60938 L 2098.4492 273.23438 L 2098.5234 273.89258 L 2098.5234 282.75977 L 2098.5977 283.41602 L 2098.8164 284.04102 L 2099.168 284.60156 L 2099.6367 285.06836 L 2100.1973 285.42188 L 2100.8203 285.64062 L 2101.4785 285.71484 L 2199.0156 285.71484 L 2199.6738 285.64062 L 2200.2988 285.42188 L 2200.8574 285.06836 L 2201.3262 284.60156 L 2201.6777 284.04102 L 2201.8965 283.41602 L 2201.9707 282.75977 L 2201.9707 170.44336 L 2201.8965 169.78516 L 2201.6777 169.16016 L 2201.3262 168.60156 L 2200.8574 168.13281 L 2200.2988 167.7793 L 2199.6738 167.5625 L 2199.0156 167.48828 L 1909.3594 167.48828 L 1908.7031 167.5625 L 1908.0781 167.7793 L 1907.5176 168.13281 L 1907.0508 168.60156 L 1906.6973 169.16016 L 1906.4785 169.78516 L 1906.4043 170.44336 L 1906.4043 297.53711 L 1906.3301 298.19531 L 1906.1113 298.81836 L 1905.7598 299.38086 L 1905.293 299.84766 L 1904.7324 300.19922 L 1904.1074 300.41992 L 1903.4492 300.49219 L 1879.8027 300.49219 L 1879.1445 300.41992 L 1878.5195 300.19922 L 1877.959 299.84766 L 1877.4902 299.38086 L 1877.1387 298.81836 L 1876.9199 298.19531 L 1876.8457 297.53711 L 1876.8457 170.44336 L 1876.7715 169.78516 L 1876.5547 169.16016 L 1876.2012 168.60156 L 1875.7344 168.13281 L 1875.1738 167.7793 L 1874.5488 167.5625 L 1873.8906 167.48828 L 1776.3535 167.48828 L 1775.6953 167.5625 L 1775.0703 167.7793 L 1774.5117 168.13281 L 1774.043 168.60156 L 1773.6914 169.16016 L 1773.4727 169.78516 L 1773.3984 170.44336 L 1773.3984 297.53711 L 1773.3242 298.19531 L 1773.1055 298.81836 L 1772.7539 299.38086 L 1772.2852 299.84766 L 1771.7246 300.19922 L 1771.0996 300.41992 L 1770.4414 300.49219 L 1687.6836 300.49219 L 1687.0254 300.41992 L 1686.4004 300.19922 L 1685.8418 299.84766 L 1685.373 299.38086 L 1685.0215 298.81836 L 1684.8027 298.19531 L 1684.7285 297.53711 L 1684.7285 170.44336 L 1684.6543 169.78516 L 1684.4355 169.16016 L 1684.082 168.60156 L 1683.6152 168.13281 L 1683.0547 167.7793 L 1682.4297 167.5625 L 1681.7715 167.48828 L 1584.2344 167.48828 L 1583.5781 167.5625 L 1582.9531 167.7793 L 1582.3926 168.13281 L 1581.9258 168.60156 L 1581.5723 169.16016 L 1581.3535 169.78516 L 1581.2793 170.44336 L 1581.2793 297.53711 L 1581.2051 298.19531 L 1580.9863 298.81836 L 1580.6348 299.38086 L 1580.168 299.84766 L 1579.6074 300.19922 L 1578.9824 300.41992 L 1578.3242 300.49219 L 1229.5566 300.49219 L 1228.8984 300.41992 L 1228.2754 300.19922 L 1227.7148 299.84766 L 1227.2461 299.38086 L 1226.8945 298.81836 L 1226.6758 298.19531 L 1226.6016 297.53711 L 1226.6016 273.89258 L 1226.6758 273.23438 L 1226.8945 272.60938 L 1227.2461 272.04883 L 1227.7148 271.58008 L 1228.2754 271.22852 L 1228.8984 271.00977 L 1229.5566 270.93555 L 1312.3164 270.93555 L 1312.9727 271.00977 L 1313.5977 271.22852 L 1314.1582 271.58008 L 1314.627 272.04883 L 1314.9785 272.60938 L 1315.1973 273.23438 L 1315.2715 273.89258 L 1315.2715 282.75977 L 1315.3457 283.41602 L 1315.5645 284.04102 L 1315.916 284.60156 L 1316.3848 285.06836 L 1316.9453 285.42188 L 1317.5684 285.64062 L 1318.2266 285.71484 L 1415.7637 285.71484 L 1416.4219 285.64062 L 1417.0469 285.42188 L 1417.6074 285.06836 L 1418.0742 284.60156 L 1418.4277 284.04102 L 1418.6465 283.41602 L 1418.7207 282.75977 L 1418.7207 170.44336 L 1418.6465 169.78516 L 1418.4277 169.16016 L 1418.0742 168.60156 L 1417.6074 168.13281 L 1417.0469 167.7793 L 1416.4219 167.5625 L 1415.7637 167.48828 L 1126.1094 167.48828 L 1125.4512 167.5625 L 1124.8262 167.7793 L 1124.2656 168.13281 L 1123.7988 168.60156 L 1123.4453 169.16016 L 1123.2266 169.78516 L 1123.1523 170.44336 L 1123.1523 297.53711 L 1123.0781 298.19531 L 1122.8594 298.81836 L 1122.5078 299.38086 L 1122.0391 299.84766 L 1121.4805 300.19922 L 1120.8555 300.41992 L 1120.1973 300.49219 L 1022.6602 300.49219 L 1022.0566 300.43945 L 1021.5859 300.28516 L 1021.2734 300.03711 L 1021.1367 299.70508 L 1021.1816 299.30859 L 1021.4043 298.86719 L 1021.7949 298.40234 C 1044.1272 276.07008 1066.3558 253.8431 1091.5078 228.69141 L 1091.9727 228.15234 L 1092.4141 227.49023 L 1092.8105 226.74219 L 1093.1406 225.94336 L 1093.3906 225.13477 L 1093.5449 224.35547 L 1093.5977 223.64453 L 1093.5977 170.44336 L 1093.5234 169.78516 L 1093.3047 169.16016 L 1092.9512 168.60156 L 1092.4844 168.13281 L 1091.9238 167.7793 L 1091.2988 167.5625 L 1090.6406 167.48828 L 978.24219 167.48828 L 977.58594 167.5625 L 976.96289 167.7793 L 976.40234 168.13281 L 975.93555 168.60156 L 975.58594 169.16016 L 975.36719 169.78516 L 975.29688 170.44336 C 975.31848 178.32536 975.34008 186.20784 975.36328 194.08984 L 975.3125 194.79883 L 975.1582 195.57812 L 974.91211 196.38867 L 974.58203 197.18555 L 974.1875 197.93555 L 973.74609 198.5957 L 973.28125 199.13477 C 952.61829 219.79777 927.31866 245.09762 903.57031 268.8457 L 903.10547 269.23633 L 902.66211 269.46094 L 902.26758 269.50391 L 901.93555 269.36719 L 901.6875 269.05664 L 901.53125 268.58594 L 901.48047 267.98047 L 901.48047 266.97656 C 901.48047 234.79889 901.47752 202.62103 901.47852 170.44336 L 901.4043 169.78516 L 901.18555 169.16016 L 900.83398 168.60156 L 900.36523 168.13281 L 899.80469 167.7793 L 899.18164 167.5625 L 898.52344 167.48828 L 800.98633 167.48828 L 800.32812 167.5625 L 799.70312 167.7793 L 799.14258 168.13281 L 798.67578 168.60156 L 798.32227 169.16016 L 798.10547 169.78516 L 798.0293 170.44336 L 798.0293 297.53711 L 797.95508 298.19531 L 797.73828 298.81836 L 797.38477 299.38086 L 796.91797 299.84766 L 796.35742 300.19922 L 795.73242 300.41992 L 795.07422 300.49219 L 771.42969 300.49219 L 770.77148 300.41992 L 770.14648 300.19922 L 769.58594 299.84766 L 769.11719 299.38086 L 768.76562 298.81836 L 768.54688 298.19531 L 768.47266 297.53711 L 768.47266 170.44336 L 768.39844 169.78516 L 768.17969 169.16016 L 767.82812 168.60156 L 767.35938 168.13281 L 766.80078 167.7793 L 766.17578 167.5625 L 765.51758 167.48828 L 763.62891 167.48828 L 583.42578 167.48828 L 582.72656 167.54883 L 581.97461 167.72656 L 581.21094 168.01367 L 580.47266 168.39648 L 579.79688 168.85352 L 579.2168 169.36328 L 578.76367 169.90039 C 551.55052 208.34813 518.73318 254.71347 488.03711 298.08008 L 487.58203 298.61719 L 487.00391 299.12695 L 486.32812 299.58398 L 485.58984 299.9668 L 484.82617 300.25391 L 484.07422 300.43164 L 483.37305 300.49219 L 303.32227 300.49219 L 302.63281 300.42578 L 301.91016 300.23047 L 301.19141 299.91602 L 300.51562 299.49609 L 299.91211 298.99609 L 299.41406 298.4375 L 299.04492 297.84961 C 295.00012 289.76001 290.9554 281.66946 286.91016 273.58008 L 286.69141 272.99023 L 286.63086 272.43359 L 286.73047 271.93164 L 286.99023 271.51367 L 287.39258 271.19727 L 287.91992 271.00195 L 288.54492 270.93555 L 468.10352 270.93555 L 468.80469 270.875 L 469.55664 270.69727 L 470.32031 270.41016 L 471.05859 270.02734 L 471.73438 269.57031 L 472.31445 269.06055 L 472.76758 268.52344 C 493.95438 238.58781 519.97599 201.82681 542.57227 169.90039 L 542.87891 169.36328 L 543.02148 168.85352 L 542.99219 168.39648 L 542.79492 168.01367 L 542.4375 167.72656 L 541.93945 167.54883 L 541.32422 167.48828 L 121.18359 167.48828 z M 634.58789 270.93555 L 662.06836 270.93555 L 662.72656 271.00977 L 663.35156 271.22852 L 663.91211 271.58008 L 664.38086 272.04883 L 664.73242 272.60938 L 664.95117 273.23438 L 665.02539 273.89258 L 665.02539 297.53711 L 664.95117 298.19531 L 664.73242 298.81836 L 664.38086 299.38086 L 663.91211 299.84766 L 663.35156 300.19922 L 662.72656 300.41992 L 662.06836 300.49219 L 613.66797 300.49219 L 613.05273 300.43164 L 612.55469 300.25391 L 612.19727 299.9668 L 611.99805 299.58398 L 611.9707 299.12695 L 612.11328 298.61719 L 612.41992 298.08008 C 618.25604 289.83687 624.08907 281.59183 629.92383 273.34766 L 630.37891 272.8125 L 630.95703 272.30273 L 631.63477 271.84375 L 632.37109 271.46289 L 633.13672 271.17578 L 633.88672 270.99609 L 634.58789 270.93555 z M 2663.0547 270.93555 L 2711.457 270.93555 L 2712.0801 271.00195 L 2712.6074 271.19727 L 2713.0117 271.51367 L 2713.2695 271.93164 L 2713.3711 272.43359 L 2713.3105 272.99023 L 2713.0898 273.58008 C 2709.045 281.66966 2704.9994 289.75976 2700.9551 297.84961 L 2700.5859 298.4375 L 2700.0879 298.99609 L 2699.4844 299.49609 L 2698.8086 299.91602 L 2698.0898 300.23047 L 2697.3672 300.42578 L 2696.6777 300.49219 L 2663.0547 300.49219 L 2662.3965 300.41992 L 2661.7715 300.19922 L 2661.2109 299.84766 L 2660.7441 299.38086 L 2660.3906 298.81836 L 2660.1738 298.19531 L 2660.0996 297.53711 C 2660.0995 289.65544 2660.0996 281.77425 2660.0996 273.89258 L 2660.1738 273.23438 L 2660.3926 272.60938 L 2660.7441 272.04883 L 2661.2129 271.58008 L 2661.7734 271.22852 L 2662.3965 271.00977 L 2663.0547 270.93555 z M 1687.6836 403.94141 L 1770.4414 403.94141 L 1771.0996 404.01562 L 1771.7246 404.23438 L 1772.2852 404.58594 L 1772.7539 405.05469 L 1773.1055 405.61328 L 1773.3242 406.23828 L 1773.3984 406.89648 L 1773.3984 430.54297 L 1773.3242 431.19922 L 1773.1055 431.82422 L 1772.7539 432.38477 L 1772.2852 432.85352 L 1771.7246 433.20508 L 1771.0996 433.42383 L 1770.4414 433.49805 L 1687.6836 433.49805 L 1687.0254 433.42383 L 1686.4004 433.20508 L 1685.8418 432.85352 L 1685.373 432.38477 L 1685.0215 431.82422 L 1684.8027 431.19922 L 1684.7285 430.54297 L 1684.7285 406.89648 L 1684.8027 406.23828 L 1685.0215 405.61328 L 1685.373 405.05469 L 1685.8418 404.58594 L 1686.4004 404.23438 L 1687.0254 404.01562 L 1687.6836 403.94141 z"/>
        </g>
    </g>
</svg>
