<?xml version='1.0' encoding='ascii'?>
<svg xmlns="http://www.w3.org/2000/svg" version="1.1" width="1920" height="1920">
    <g id="View Layer_LineSet" xmlns:inkscape="http://www.inkscape.org/namespaces/inkscape" inkscape:groupmode="lineset" inkscape:label="View Layer_LineSet">
        <g xmlns:inkscape="http://www.inkscape.org/namespaces/inkscape" inkscape:groupmode="layer" id="strokes" inkscape:label="strokes">
            <path fill="none" stroke-width="140.0" stroke-linecap="round" stroke-opacity="1.0" stroke="rgb(255, 255, 255)" stroke-linejoin="round" d=" M 1269.093, 898.518 1268.315, 894.729 1267.491, 890.951 1266.620, 887.183 1265.703, 883.426 1264.740, 879.680 1263.732, 875.947 1262.677, 872.226 1261.577, 868.518 1260.432, 864.824 1259.241, 861.144 1258.006, 857.479 1256.726, 853.830 1255.401, 850.197 1254.031, 846.580 1252.617, 842.980 1251.159, 839.398 1249.657, 835.834 1248.112, 832.289 1246.523, 828.763 1244.890, 825.257 1243.215, 821.771 1241.497, 818.307 1239.737, 814.863 1237.935, 811.441 1236.091, 808.041 1234.206, 804.665 1232.279, 801.311 1230.311, 797.982 1228.303, 794.677 1226.254, 791.397 1224.165, 788.142 1222.036, 784.913 1219.868, 781.711 1217.661, 778.535 1215.414, 775.387 1213.129, 772.267 1210.806, 769.175 1208.445, 766.112 1206.047, 763.078 1203.612, 760.073 1201.140, 757.099 1198.632, 754.155 1196.089, 751.242 1193.509, 748.360 1190.895, 745.510 1188.245, 742.693 1185.562, 739.908 1182.844, 737.157 1180.092, 734.439 1177.308, 731.755 1174.490, 729.106 1171.640, 726.491 1168.759, 723.912 1165.846, 721.368 1162.902, 718.860 1159.927, 716.388 1156.923, 713.953 1153.889, 711.555 1150.825, 709.194 1147.733, 706.871 1144.613, 704.586 1141.465, 702.340 1138.289, 700.132 1135.087, 697.964 1131.858, 695.835 1128.604, 693.746 1125.323, 691.698 1122.018, 689.689 1118.689, 687.721 1115.336, 685.795 1111.959, 683.909 1108.559, 682.065 1105.137, 680.263 1101.694, 678.503 1098.229, 676.785 1094.743, 675.110 1091.237, 673.478 1087.711, 671.889 1084.166, 670.343 1080.602, 668.841 1077.020, 667.383 1073.420, 665.969 1069.803, 664.600 1066.170, 663.275 1062.521, 661.995 1058.856, 660.759 1055.176, 659.568 1051.482, 658.423 1047.775, 657.323 1044.054, 656.269 1040.320, 655.260 1036.575, 654.297 1032.817, 653.380 1029.049, 652.509 1025.271, 651.685 1021.482, 650.907 1017.685, 650.176 1013.878, 649.492 1010.064, 648.854 1006.242, 648.264 1002.413, 647.720 998.577, 647.223 994.736, 646.773 990.890, 646.371 987.039, 646.015 983.184, 645.707 979.325, 645.446 975.464, 645.232 971.600, 645.066 967.734, 644.947 963.867, 644.876 960.000, 644.852 956.133, 644.876 952.266, 644.947 948.400, 645.066 944.536, 645.232 940.675, 645.446 936.816, 645.707 932.961, 646.015 929.110, 646.371 925.264, 646.773 921.423, 647.223 917.587, 647.720 913.758, 648.264 909.936, 648.854 906.122, 649.492 902.315, 650.176 898.518, 650.907 894.729, 651.685 890.951, 652.509 887.183, 653.380 883.425, 654.297 879.680, 655.260 875.946, 656.269 872.225, 657.323 868.518, 658.423 864.824, 659.568 861.144, 660.759 857.479, 661.995 853.830, 663.275 850.196, 664.600 846.580, 665.969 842.980, 667.383 839.398, 668.841 835.834, 670.343 832.289, 671.889 828.763, 673.478 825.257, 675.110 821.771, 676.785 818.306, 678.503 814.862, 680.263 811.441, 682.065 808.041, 683.909 804.664, 685.795 801.311, 687.721 797.982, 689.689 794.677, 691.698 791.396, 693.746 788.142, 695.835 784.913, 697.964 781.711, 700.132 778.535, 702.340 775.387, 704.586 772.267, 706.871 769.175, 709.194 766.111, 711.555 763.077, 713.953 760.073, 716.388 757.098, 718.860 754.154, 721.368 751.241, 723.912 748.360, 726.491 745.510, 729.106 742.692, 731.755 739.908, 734.439 737.156, 737.157 734.439, 739.908 731.755, 742.693 729.105, 745.510 726.491, 748.360 723.911, 751.242 721.368, 754.155 718.860, 757.099 716.388, 760.073 713.953, 763.078 711.555, 766.112 709.194, 769.175 706.871, 772.267 704.586, 775.387 702.340, 778.535 700.132, 781.711 697.964, 784.913 695.835, 788.142 693.746, 791.397 691.697, 794.677 689.689, 797.982 687.721, 801.311 685.794, 804.665 683.909, 808.041 682.065, 811.441 680.263, 814.863 678.503, 818.307 676.785, 821.771 675.110, 825.257 673.477, 828.763 671.888, 832.289 670.343, 835.834 668.841, 839.398 667.383, 842.980 665.969, 846.580 664.599, 850.197 663.274, 853.830 661.994, 857.479 660.759, 861.144 659.568, 864.824 658.423, 868.518 657.323, 872.226 656.268, 875.947 655.260, 879.680 654.297, 883.426 653.380, 887.183 652.509, 890.951 651.685, 894.729 650.907, 898.518 650.176, 902.316 649.491, 906.122 648.854, 909.936 648.263, 913.758 647.719, 917.587 647.223, 921.423 646.773, 925.264 646.370, 929.110 646.015, 932.962 645.706, 936.817 645.445, 940.675 645.232, 944.537 645.065, 948.401 644.947, 952.266 644.875, 956.133 644.851, 960.000 644.875, 963.868 644.947, 967.734 645.065, 971.600 645.232, 975.464 645.445, 979.325 645.706, 983.184 646.015, 987.039 646.370, 990.890 646.773, 994.737 647.223, 998.578 647.719, 1002.413 648.263, 1006.242 648.854, 1010.064 649.491, 1013.879 650.176, 1017.685 650.907, 1021.483 651.685, 1025.271 652.509, 1029.050 653.380, 1032.818 654.297, 1036.575 655.260, 1040.321 656.268, 1044.054 657.323, 1047.775 658.423, 1051.483 659.568, 1055.177 660.759, 1058.856 661.994, 1062.521 663.274, 1066.171 664.599, 1069.804 665.969, 1073.421 667.383, 1077.020 668.841, 1080.602 670.343, 1084.166 671.888, 1087.711 673.477, 1091.237 675.110, 1094.743 676.785, 1098.229 678.503, 1101.694 680.263, 1105.138 682.065, 1108.560 683.909, 1111.959 685.794, 1115.336 687.721, 1118.689 689.689, 1122.019 691.697, 1125.324 693.746, 1128.604 695.835, 1131.859 697.964, 1135.088 700.132, 1138.290 702.340, 1141.465 704.586, 1144.613 706.871, 1147.734 709.194, 1150.826 711.555, 1153.889 713.953, 1156.923 716.388, 1159.928 718.860, 1162.902 721.368, 1165.846 723.912, 1168.759 726.491, 1171.641 729.106, 1174.490 731.755, 1177.308 734.439, 1180.093 737.156, 1182.844 739.906, 1185.561 742.675, 1188.236 745.450, 1190.863 748.217, 1193.433 750.962, 1195.940 753.672, 1198.375 756.333, 1200.732 758.930, 1203.002 761.451, 1205.178 763.880, 1207.253 766.205, 1209.219 768.411, 1211.069 770.485, 1212.794 772.412, 1214.388 774.180, 1215.843 775.773, 1217.152 777.184, 1218.309 778.420, 1219.323 779.495, 1220.205 780.423, 1220.966 781.218, 1221.616 781.891, 1222.167 782.458, 1222.629 782.932, 1223.014 783.326, 1223.332 783.653, 1223.594 783.927, 1223.811 784.162, 1223.994 784.371, 1224.154 784.568, 1224.302 784.763, 1224.447 784.958, 1224.592 785.212, 1224.779 785.478, 1224.975 785.765, 1225.189 786.075, 1225.420 786.406, 1225.668 786.754, 1225.933 787.120, 1226.212 787.500, 1226.505 787.893, 1226.811 788.297, 1227.130 788.710, 1227.460 789.130, 1227.800 789.555, 1228.150 789.984, 1228.508 790.415, 1228.873 790.846, 1229.242 791.273, 1229.624 791.698, 1230.008 792.121, 1230.397 792.542, 1230.792 792.960, 1231.192 793.376, 1231.598 793.789, 1232.009 794.199, 1232.425 794.606, 1232.846 795.011, 1233.273 795.413, 1233.704 795.812, 1234.141 796.207, 1234.582 796.600, 1235.028 796.990, 1235.479 797.378, 1235.932 797.759, 1236.395 798.139, 1236.861 798.515, 1237.330 798.888, 1237.804 799.258, 1238.283 799.624, 1238.766 799.986, 1239.252 800.345, 1239.744 800.700, 1240.239 801.051, 1240.738 801.398, 1241.241 801.742, 1241.748 802.082, 1242.259 802.417, 1242.773 802.749, 1243.291 803.079, 1243.810 803.401, 1244.338 803.719, 1244.866 804.035, 1245.398 804.345, 1245.933 804.652, 1246.471 804.954, 1247.013 805.252, 1247.557 805.545, 1248.104 805.834, 1248.654 806.119, 1249.207 806.398, 1249.762 806.674, 1250.320 806.944, 1250.880 807.210, 1251.443 807.471, 1252.008 807.731, 1252.574 807.979, 1253.145 808.225, 1253.717 808.467, 1254.290 808.704, 1254.866 808.936, 1255.443 809.162, 1256.022 809.384, 1256.603 809.601, 1257.185 809.813, 1257.769 810.019, 1258.354 810.221, 1258.940 810.417, 1259.528 810.608, 1260.116 810.794, 1260.706 810.974, 1261.296 811.153, 1261.887 811.319, 1262.480 811.483, 1263.072 811.642, 1263.666 811.796, 1264.260 811.944, 1264.854 812.087, 1265.448 812.224, 1266.043 812.356, 1266.638 812.482, 1267.233 812.603, 1267.828 812.718, 1268.422 812.828, 1269.017 812.932, 1269.611 813.031, 1270.205 813.124, 1270.798 813.214, 1271.391 813.293, 1271.982 813.368, 1272.573 813.438, 1273.164 813.503, 1273.753 813.562, 1274.341 813.615, 1274.928 813.663, 1275.514 813.704, 1276.099 813.740, 1276.682 813.771, 1277.264 813.795, 1277.844 813.814, 1278.423 813.828, 1279.000 813.835, 1279.575 813.837, 1280.148 813.837, 1280.720 813.823, 1281.290 813.805, 1281.872 813.776, 1282.477 813.736, 1283.118 813.681, 1283.808 813.609, 1284.560 813.519, 1285.387 813.407, 1286.300 813.272, 1287.313 813.112, 1288.439 812.924, 1289.691 812.706, 1291.080 812.457, 1292.621 812.173, 1294.325 811.856, 1296.188 811.521, 1298.140 811.099, 1300.523 810.661, 1302.982 810.196, 1305.577 809.704, 1308.299 809.191, 1311.124 808.661, 1314.027 808.119, 1316.984 807.569, 1319.969 807.018, 1322.957 806.469, 1325.925 805.927, 1328.847 805.397, 1331.698 804.884, 1334.454 804.392, 1337.090 803.927, 1339.581 803.493, 1341.903 803.094, 1344.036 802.728, 1345.987 802.394, 1347.768 802.089, 1349.391 801.811, 1350.868 801.558, 1352.211 801.328, 1353.433 801.117, 1354.546 800.925, 1355.561 800.748, 1356.492 800.585, 1357.349 800.444, 1358.089 800.433, 1358.146 800.290, 1358.894 800.154, 1359.606 800.022, 1360.293 799.892, 1360.968 799.763, 1361.642 799.634, 1362.315 799.505, 1362.988 799.376, 1363.661 799.247, 1364.334 799.118, 1365.008 798.988, 1365.681 798.859, 1366.354 798.730, 1367.027 798.601, 1367.700 798.472, 1368.374 798.343, 1369.047 798.214, 1369.720 798.085, 1370.393 797.955, 1371.067 797.826, 1371.740 797.697, 1372.413 797.568, 1373.086 797.439, 1373.759 797.310, 1374.433 797.181, 1375.106 797.052, 1375.779 796.922, 1376.452 796.793, 1377.125 796.664, 1377.799 796.535, 1378.472 796.406, 1379.145 796.277, 1379.818 796.148, 1380.492 796.019, 1381.165 795.889, 1381.838 795.760, 1382.511 795.631, 1383.184 795.502, 1383.858 795.373, 1384.531 795.244, 1385.204 795.115, 1385.877 794.986, 1386.550 794.856, 1387.224 794.727, 1387.897 794.598, 1388.570 794.469, 1389.243 794.340, 1389.917 794.211, 1390.590 794.082, 1391.263 793.953, 1391.936 793.823, 1392.609 793.694, 1393.283 793.565, 1393.956 793.436, 1394.629 793.307, 1395.302 793.178, 1395.975 793.049, 1396.649 792.920, 1397.322 792.790, 1397.995 792.661, 1398.668 792.532, 1399.341 792.403, 1400.015 792.274, 1400.688 792.145, 1401.361 792.016, 1402.034 791.887, 1402.708 791.757, 1403.381 791.628, 1404.054 791.499, 1404.727 791.370, 1405.400 791.241, 1406.074 791.112, 1406.747 790.983, 1407.420 790.854, 1408.093 790.724, 1408.766 790.595, 1409.440 790.466, 1410.113 790.337, 1410.786 790.208, 1411.459 790.079, 1412.133 789.950, 1412.806 789.820, 1413.479 789.691, 1414.152 789.562, 1414.825 789.433, 1415.499 789.304, 1416.172 789.175, 1416.845 789.046, 1417.518 788.917, 1418.191 788.788, 1418.865 788.658, 1419.538 788.529, 1420.211 788.400, 1420.884 788.271, 1421.558 788.142, 1422.231 788.013, 1422.904 787.884, 1423.577 787.755, 1424.250 787.625, 1424.924 787.496, 1425.597 787.367, 1426.271 787.236, 1426.955 787.101, 1427.655 786.962, 1428.380 786.815, 1429.140 786.660, 1429.943 786.495, 1430.796 786.319, 1431.709 786.128, 1432.691 785.922, 1433.749 785.700, 1434.892 785.458, 1436.129 785.197, 1437.468 784.913, 1438.918 784.605, 1440.487 784.272, 1442.184 783.913, 1444.013 783.530, 1445.961 783.126, 1448.011 782.706, 1450.147 782.272, 1452.350 781.827, 1454.605 781.375, 1456.894 780.920, 1459.200 780.465, 1461.506 780.012, 1463.794 779.566, 1466.049 779.130, 1468.252 778.707, 1470.387 778.300, 1472.437 777.914, 1474.384 777.550, 1476.212 777.213, 1477.908 776.900, 1479.476 776.610, 1480.925 776.342, 1482.263 776.094, 1483.499 775.865, 1484.640 775.651, 1485.697 775.453, 1486.677 775.268, 1487.588 775.095, 1488.440 774.932, 1489.241 774.777, 1489.999 774.629, 1490.723 774.485, 1491.421 774.345, 1492.103 774.207, 1492.775 774.069, 1493.447 773.931, 1494.118 773.793, 1494.790 773.655, 1495.461 773.517, 1496.132 773.379, 1496.804 773.240, 1497.475 773.102, 1498.147 772.964, 1498.818 772.826, 1499.490 772.688, 1500.161 772.550, 1500.832 772.412, 1501.504 772.274, 1502.175 772.136, 1502.847 771.998, 1503.518 771.860, 1504.190 771.722, 1504.861 771.584, 1505.533 771.445, 1506.204 771.307, 1506.875 771.169, 1507.547 771.031, 1508.218 770.893, 1508.890 770.755, 1509.561 770.617, 1510.232 770.479, 1510.904 770.341, 1511.575 770.203, 1512.247 770.065, 1512.918 769.927, 1513.590 769.789, 1514.261 769.651, 1514.932 769.512, 1515.604 769.374, 1516.275 769.236, 1516.947 769.098, 1517.618 768.960, 1518.290 768.822, 1518.961 768.684, 1519.632 768.546, 1520.304 768.408, 1520.975 768.270, 1521.647 768.132, 1522.318 767.994, 1522.990 767.856, 1523.661 767.718, 1524.332 767.579, 1525.004 767.441, 1525.675 767.303, 1526.347 767.165, 1527.018 767.027, 1527.689 766.889, 1528.361 766.751, 1529.032 766.613, 1529.704 766.475, 1530.375 766.337, 1531.047 766.199, 1531.718 766.061, 1532.389 765.923, 1533.061 765.784, 1533.732 765.646, 1534.404 765.508, 1535.075 765.370, 1535.746 765.232, 1536.418 765.094, 1537.089 764.956, 1537.761 764.818, 1538.432 764.680, 1539.104 764.542, 1539.775 764.404, 1540.446 764.266, 1541.118 764.128, 1541.789 763.990, 1542.461 763.851, 1543.132 763.713, 1543.804 763.575, 1544.475 763.437, 1545.146 763.299, 1545.818 763.161, 1546.489 763.023, 1547.161 762.885, 1547.832 762.747, 1548.504 762.609, 1549.175 762.471, 1549.846 762.333, 1550.518 762.195, 1551.189 762.056, 1551.861 761.918, 1552.532 761.780, 1553.204 761.642, 1553.875 761.504, 1554.546 761.366, 1555.218 761.228, 1555.889 761.090, 1556.561 760.952, 1557.232 760.812, 1557.911 760.663, 1558.634 760.495, 1559.447 760.479, 1559.524 760.477, 1559.533 760.401, 1559.896 760.298, 1560.393 760.063, 1561.517 759.780, 1562.864 759.439, 1564.478 759.032, 1566.404 758.549, 1568.686 757.980, 1571.370 757.315, 1574.498 756.545, 1578.117 755.660, 1582.270 754.652, 1587.001 753.509, 1592.357 752.224, 1598.381 750.790, 1605.094 749.223, 1612.431 747.541, 1620.301 745.763, 1628.614 743.908, 1637.282 741.995, 1646.213 740.044, 1655.318 738.073, 1664.508 736.102, 1673.693 734.148, 1682.782 732.232, 1691.687 730.372, 1700.318 728.588, 1708.585 726.898, 1716.398 725.308, 1723.727 723.775, 1730.785 722.566, 1736.298 721.422, 1741.495 720.397, 1746.119 719.494, 1750.155 718.703, 1753.648 718.014, 1756.643 717.418, 1759.184 716.904, 1761.318 716.464, 1763.088 716.086, 1764.540 715.761, 1765.718 715.479, 1766.668 715.231, 1767.435 715.007, 1768.063 714.797, 1768.598 714.593, 1769.087 714.379, 1769.561 714.162, 1770.032 713.940, 1770.501 713.712, 1770.966 713.479, 1771.427 713.240, 1771.884 712.995, 1772.337 712.745, 1772.786 712.489, 1773.232 712.228, 1773.673 711.961, 1774.110 711.689, 1774.543 711.412, 1774.972 711.130, 1775.396 710.842, 1775.816 710.552, 1776.235 710.251, 1776.643 709.947, 1777.049 709.638, 1777.450 709.325, 1777.847 709.006, 1778.239 708.683, 1778.627 708.354, 1779.009 708.021, 1779.386 707.683, 1779.759 707.340, 1780.126 706.993, 1780.488 706.641, 1780.846 706.284, 1781.198 705.923, 1781.544 705.558, 1781.886 705.190, 1782.225 704.813, 1782.552 704.434, 1782.877 704.051, 1783.196 703.664, 1783.510 703.273, 1783.818 702.877, 1784.120 702.478, 1784.417 702.075, 1784.708 701.667, 1784.993 701.256, 1785.273 700.841, 1785.546 700.423, 1785.814 700.001, 1786.075 699.575, 1786.331 699.146, 1786.581 698.715, 1786.828 698.277, 1787.062 697.837, 1787.292 697.394, 1787.517 696.948, 1787.736 696.499, 1787.948 696.047, 1788.154 695.592, 1788.354 695.134, 1788.547 694.673, 1788.734 694.209, 1788.915 693.743, 1789.089 693.274, 1789.257 692.802, 1789.418 692.328, 1789.573 691.852, 1789.721 691.374, 1789.867 690.892, 1789.998 690.408, 1790.126 689.923, 1790.247 689.435, 1790.362 688.945, 1790.471 688.454, 1790.573 687.961, 1790.668 687.465, 1790.756 686.969, 1790.837 686.470, 1790.912 685.970, 1790.981 685.469, 1791.042 684.966, 1791.097 684.462, 1791.145 683.956, 1791.186 683.451, 1791.225 682.942, 1791.248 682.433, 1791.268 681.924, 1791.282 681.413, 1791.289 680.902, 1791.289 680.390, 1791.283 679.877, 1791.270 679.364, 1791.249 678.851, 1791.223 678.336, 1791.189 677.822, 1791.148 677.308, 1791.101 676.793, 1791.047 676.278, 1790.987 675.763, 1790.920 675.248, 1790.849 674.729, 1790.762 674.179, 1790.662 673.570, 1790.533 672.872, 1790.366 672.054, 1790.149 671.086, 1789.872 669.940, 1789.525 668.585, 1789.095 666.990, 1788.574 665.127, 1787.949 662.965, 1787.211 660.475, 1786.348 657.626, 1785.351 654.388, 1784.208 650.773, 1782.923 646.948, 1781.560 642.100, 1779.816 637.057, 1777.996 631.664, 1776.038 625.926, 1773.942 619.888, 1771.719 613.593, 1769.383 607.085, 1766.946 600.409, 1764.422 593.610, 1761.823 586.732, 1759.162 579.818, 1756.452 572.913, 1753.706 566.062, 1750.936 559.308, 1748.156 552.677, 1745.376 546.118, 1742.598 540.045, 1739.875 534.058, 1737.147 528.222, 1734.408 522.527, 1731.639 516.943, 1728.823 511.440, 1725.940 505.988, 1722.972 500.557, 1719.899 495.118, 1716.703 489.640, 1713.364 484.094, 1709.864 478.449, 1706.184 472.675, 1702.304 466.744, 1698.206 460.624, 1693.871 454.286, 1689.279 447.709, 1684.418 440.905, 1679.292 433.896, 1673.914 426.703, 1668.295 419.348, 1662.446 411.852, 1656.378 404.237, 1650.102 396.523, 1643.630 388.920, 1637.134 388.733, 1636.974 381.190, 1630.408 380.887, 1630.144 373.407, 1623.506 373.007, 1623.151 365.594, 1616.440 365.116, 1616.008 357.771, 1609.221 357.232, 1608.724 349.960, 1601.860 349.380, 1601.313 342.185, 1594.368 341.579, 1593.784 334.465, 1586.756 333.851, 1586.149 326.824, 1579.035 326.215, 1578.418 319.275, 1571.218 318.674, 1570.594 311.824, 1563.309 311.230, 1562.677 304.469, 1555.309 303.884, 1554.670 297.214, 1547.219 296.636, 1546.573 290.058, 1539.041 289.488, 1538.388 283.003, 1530.776 282.441, 1530.116 276.050, 1522.425 275.496, 1521.759 269.199, 1513.990 268.654, 1513.316 262.453, 1505.471 261.915, 1504.791 255.811, 1496.870 255.282, 1496.184 249.276, 1488.188 248.755, 1487.496 242.847, 1479.427 242.335, 1478.728 236.526, 1470.588 236.023, 1469.883 230.314, 1461.672 229.820, 1460.960 224.213, 1452.680 223.727, 1451.962 218.223, 1443.614 217.746, 1442.890 212.344, 1434.474 211.876, 1433.745 206.579, 1425.263 206.119, 1424.528 200.926, 1415.982 200.476, 1415.242 195.389, 1406.633 194.948, 1405.887 189.966, 1397.216 189.534, 1396.464 184.659, 1387.733 184.236, 1386.976 179.468, 1378.186 179.055, 1377.424 174.395, 1368.576 173.991, 1367.810 169.440, 1358.905 169.045, 1358.133 164.604, 1349.174 164.219, 1348.397 159.887, 1339.384 159.512, 1338.603 155.291, 1329.537 154.926, 1328.751 150.817, 1319.635 150.460, 1318.844 146.464, 1309.678 146.118, 1308.883 142.234, 1299.668 141.897, 1298.870 138.127, 1289.607 137.801, 1288.805 134.145, 1279.497 133.828, 1278.690 130.287, 1269.338 129.980, 1268.528 126.554, 1259.133 126.257, 1258.319 122.947, 1248.882 122.660, 1248.065 119.465, 1238.589 119.188, 1237.767 116.110, 1228.253 115.843, 1227.428 112.882, 1217.877 112.625, 1217.049 109.781, 1207.462 109.534, 1206.631 106.808, 1197.010 106.572, 1196.176 103.963, 1186.522 103.737, 1185.685 101.247, 1176.000 101.031, 1175.161 98.661, 1165.446 98.455, 1164.604 96.204, 1154.860 96.009, 1154.016 93.877, 1144.246 93.692, 1143.399 91.681, 1133.603 91.507, 1132.754 89.616, 1122.935 89.452, 1122.084 87.683, 1112.242 87.529, 1111.388 85.881, 1101.525 85.738, 1100.670 84.211, 1090.788 84.078, 1089.931 82.672, 1080.031 82.550, 1079.172 81.266, 1069.255 81.155, 1068.396 79.992, 1058.464 79.891, 1057.603 78.850, 1047.657 78.759, 1046.795 77.840, 1036.837 77.761, 1035.974 76.963, 1026.006 76.894, 1025.142 76.220, 1015.165 76.161, 1014.300 75.608, 1004.315 75.561, 1003.450 75.131, 993.459 75.093, 992.593 74.786, 982.598 74.759, 981.732 74.575, 971.733 74.559, 970.867 74.497, 960.867 74.492, 960.000 74.554, 950.000 74.559, 949.134 74.743, 939.136 74.759, 938.269 75.067, 928.274 75.093, 927.407 75.523, 917.417 75.561, 916.551 76.113, 906.566 76.161, 905.701 76.836, 895.723 76.894, 894.859 77.691, 884.891 77.761, 884.026 78.680, 874.069 78.759, 873.206 79.801, 863.260 79.891, 862.398 81.054, 852.466 81.154, 851.605 82.439, 841.688 82.550, 840.828 83.956, 830.927 84.078, 830.069 85.606, 820.187 85.738, 819.330 87.387, 809.467 87.529, 808.612 89.299, 798.770 89.452, 797.917 91.343, 788.097 91.507, 787.246 93.518, 777.451 93.692, 776.602 95.824, 766.831 96.009, 765.985 98.260, 756.241 98.455, 755.397 100.826, 745.682 101.031, 744.840 103.521, 735.155 103.737, 734.315 106.345, 724.662 106.572, 723.825 109.298, 714.204 109.534, 713.370 112.378, 703.783 112.625, 702.952 115.587, 693.400 115.843, 692.573 118.921, 683.058 119.188, 682.233 122.383, 672.757 122.660, 671.936 125.970, 662.500 126.257, 661.682 129.683, 652.287 129.980, 651.473 133.521, 642.121 133.828, 641.310 137.484, 632.003 137.801, 631.196 141.571, 621.934 141.897, 621.131 145.781, 611.916 146.118, 611.117 150.114, 601.951 150.460, 601.156 154.569, 592.039 154.926, 591.249 159.146, 582.183 159.512, 581.398 163.843, 572.385 164.219, 571.603 168.660, 562.644 169.045, 561.867 173.596, 552.963 173.991, 552.191 178.651, 543.343 179.055, 542.576 183.823, 533.786 184.236, 533.024 189.111, 524.293 189.534, 523.536 194.516, 514.866 194.947, 514.114 200.035, 505.505 200.476, 504.759 205.669, 496.213 206.119, 495.472 211.417, 486.991 211.876, 486.256 217.277, 477.840 217.745, 477.111 223.250, 468.762 223.727, 468.038 229.334, 459.758 229.820, 459.041 235.528, 450.830 236.023, 450.118 241.831, 441.978 242.335, 441.273 248.243, 433.204 248.755, 432.505 254.761, 424.510 255.282, 423.817 261.386, 415.896 261.915, 415.210 268.116, 407.365 268.654, 406.685 274.950, 398.916 275.496, 398.242 281.887, 390.551 282.441, 389.885 288.926, 382.272 289.488, 381.613 296.066, 374.080 296.636, 373.427 303.305, 365.977 303.883, 365.331 310.644, 357.962 311.230, 357.323 318.080, 350.038 318.674, 349.407 325.613, 342.207 326.215, 341.583 333.242, 334.468 333.851, 333.852 340.966, 326.824 341.582, 326.215 348.783, 319.276 349.407, 318.674 356.692, 311.824 357.323, 311.230 364.691, 304.470 365.330, 303.884 372.781, 297.214 373.427, 296.636 380.959, 290.058 381.612, 289.488 389.224, 283.003 389.884, 282.441 397.575, 276.050 398.242, 275.496 406.011, 269.200 406.684, 268.654 414.529, 262.453 415.209, 261.916 423.130, 255.812 423.817, 255.282 431.812, 249.276 432.505, 248.755 440.573, 242.847 441.272, 242.335 449.412, 236.526 450.118, 236.023 458.328, 230.315 459.040, 229.820 467.320, 224.213 468.038, 223.727 476.387, 218.223 477.110, 217.746 485.526, 212.345 486.256, 211.876 494.737, 206.579 495.472, 206.120 504.018, 200.927 504.759, 200.477 513.368, 195.389 514.114, 194.948 522.784, 189.966 523.536, 189.534 532.267, 184.659 533.024, 184.236 541.814, 179.468 542.576, 179.055 551.424, 174.395 552.191, 173.991 561.095, 169.440 561.867, 169.046 570.827, 164.604 571.603, 164.219 580.616, 159.888 581.398, 159.512 590.463, 155.292 591.249, 154.926 600.366, 150.817 601.156, 150.461 610.323, 146.464 611.117, 146.118 620.332, 142.234 621.131, 141.897 630.393, 138.128 631.196, 137.801 640.503, 134.145 641.310, 133.828 650.662, 130.287 651.473, 129.980 660.867, 126.554 661.682, 126.257 671.118, 122.947 671.936, 122.660 681.412, 119.465 682.233, 119.188 691.748, 116.110 692.572, 115.843 702.124, 112.882 702.952, 112.625 712.539, 109.781 713.370, 109.535 722.991, 106.808 723.825, 106.572 733.479, 103.964 734.315, 103.737 744.000, 101.248 744.840, 101.032 754.555, 98.661 755.397, 98.455 765.140, 96.204 765.984, 96.009 775.755, 93.877 776.601, 93.693 786.397, 91.681 787.246, 91.507 797.066, 89.617 797.917, 89.453 807.759, 87.683 808.612, 87.530 818.475, 85.881 819.330, 85.738 829.213, 84.211 830.069, 84.078 839.970, 82.672 840.828, 82.551 850.745, 81.266 851.605, 81.155 861.537, 79.992 862.398, 79.891 872.343, 78.850 873.205, 78.760 883.163, 77.841 884.026, 77.761 893.994, 76.964 894.858, 76.895 904.836, 76.220 905.700, 76.161 915.685, 75.609 916.551, 75.561 926.541, 75.131 927.407, 75.094 937.402, 74.786 938.269, 74.760 948.267, 74.575 949.134, 74.559 959.133, 74.498 960.000, 74.492 970.000, 74.554 970.866, 74.559 980.865, 74.744 981.731, 74.760 991.727, 75.067 992.593, 75.094 1002.584, 75.524 1003.449, 75.561 1013.434, 76.113 1014.300, 76.161 1024.277, 76.836 1025.142, 76.895 1035.110, 77.692 1035.974, 77.761 1045.932, 78.680 1046.795, 78.760 1056.740, 79.801 1057.602, 79.891 1067.534, 81.054 1068.395, 81.155 1078.312, 82.439 1079.172, 82.551 1089.073, 83.957 1089.931, 84.078 1099.813, 85.606 1100.670, 85.738 1110.533, 87.387 1111.388, 87.530 1121.230, 89.299 1122.083, 89.453 1131.903, 91.343 1132.754, 91.507 1142.550, 93.518 1143.399, 93.693 1153.169, 95.824 1154.016, 96.009 1163.759, 98.260 1164.603, 98.455 1174.318, 100.826 1175.160, 101.032 1184.845, 103.522 1185.685, 103.737 1195.339, 106.346 1196.175, 106.572 1205.796, 109.298 1206.630, 109.535 1216.217, 112.379 1217.048, 112.625 1226.600, 115.587 1227.428, 115.843 1236.942, 118.922 1237.767, 119.188 1247.243, 122.383 1248.064, 122.660 1257.500, 125.970 1258.318, 126.257 1267.713, 129.683 1268.527, 129.980 1277.879, 133.521 1278.690, 133.828 1287.998, 137.484 1288.804, 137.801 1298.067, 141.571 1298.869, 141.897 1308.084, 145.781 1308.883, 146.118 1318.050, 150.114 1318.844, 150.461 1327.961, 154.570 1328.751, 154.926 1337.817, 159.146 1338.602, 159.512 1347.616, 163.844 1348.397, 164.219 1357.356, 168.661 1358.133, 169.046 1367.037, 173.597 1367.809, 173.991 1376.657, 178.651 1377.424, 179.055 1386.214, 183.823 1386.976, 184.236 1395.707, 189.111 1396.464, 189.534 1405.135, 194.516 1405.886, 194.948 1414.495, 200.036 1415.241, 200.477 1423.787, 205.670 1424.528, 206.120 1433.009, 211.417 1433.745, 211.876 1442.160, 217.278 1442.890, 217.746 1451.238, 223.250 1451.962, 223.727 1460.242, 229.334 1460.960, 229.820 1469.171, 235.528 1469.882, 236.023 1478.022, 241.832 1478.728, 242.335 1486.796, 248.243 1487.495, 248.755 1495.490, 254.762 1496.183, 255.282 1504.104, 261.386 1504.791, 261.916 1512.636, 268.116 1513.316, 268.654 1521.085, 274.950 1521.758, 275.496 1529.449, 281.887 1530.116, 282.441 1537.728, 288.926 1538.388, 289.488 1545.920, 296.066 1546.573, 296.636 1554.024, 303.306 1554.670, 303.884 1562.038, 310.644 1562.677, 311.230 1569.962, 318.081 1570.593, 318.674 1577.794, 325.614 1578.418, 326.215 1585.532, 333.243 1586.149, 333.852 1593.176, 340.966 1593.785, 341.583 1600.725, 348.783 1601.326, 349.407 1608.177, 356.692 1608.770, 357.323 1615.531, 364.692 1616.117, 365.331 1622.786, 372.782 1623.364, 373.428 1629.942, 380.960 1630.512, 381.613 1636.997, 389.225 1637.559, 389.885 1643.950, 397.576 1644.504, 398.242 1650.801, 406.011 1651.346, 406.685 1657.547, 414.530 1658.085, 415.210 1664.189, 423.131 1664.718, 423.817 1670.725, 431.812 1671.245, 432.505 1677.153, 440.573 1677.665, 441.273 1683.474, 449.413 1683.978, 450.118 1689.686, 458.329 1690.180, 459.041 1695.787, 467.321 1696.273, 468.038 1701.777, 476.387 1702.255, 477.111 1707.656, 485.526 1708.124, 486.256 1713.422, 494.737 1713.881, 495.472 1719.074, 504.018 1719.524, 504.759 1724.612, 513.368 1725.052, 514.114 1730.034, 522.785 1730.466, 523.536 1735.341, 532.267 1735.764, 533.024 1740.532, 541.814 1740.945, 542.576 1745.605, 551.424 1746.009, 552.191 1750.560, 561.095 1750.955, 561.867 1755.396, 570.827 1755.781, 571.603 1760.113, 580.617 1760.488, 581.398 1764.708, 590.464 1765.074, 591.249 1769.183, 600.366 1769.540, 601.156 1773.536, 610.323 1773.882, 611.117 1777.766, 620.332 1778.103, 621.131 1781.873, 630.393 1782.199, 631.196 1785.855, 640.504 1786.172, 641.310 1789.713, 650.662 1790.020, 651.473 1793.446, 660.868 1793.743, 661.682 1797.053, 671.118 1797.340, 671.936 1800.535, 681.412 1800.812, 682.233 1803.890, 691.748 1804.157, 692.573 1807.118, 702.124 1807.375, 702.952 1810.219, 712.539 1810.466, 713.370 1813.192, 722.991 1813.428, 723.825 1816.037, 733.479 1816.263, 734.315 1818.753, 744.000 1818.969, 744.840 1821.339, 754.555 1821.545, 755.397 1823.796, 765.140 1823.991, 765.985 1826.123, 775.755 1826.308, 776.602 1828.319, 786.397 1828.493, 787.246 1830.384, 797.066 1830.548, 797.917 1832.317, 807.759 1832.470, 808.612 1834.119, 818.475 1834.262, 819.330 1835.789, 829.213 1835.922, 830.069 1837.328, 839.970 1837.450, 840.828 1838.734, 850.745 1838.845, 851.605 1840.008, 861.537 1840.109, 862.398 1841.150, 872.344 1841.241, 873.206 1842.160, 883.163 1842.239, 884.026 1843.036, 893.995 1843.106, 894.859 1843.781, 904.836 1843.839, 905.701 1844.391, 915.685 1844.439, 916.551 1844.870, 926.542 1844.907, 927.407 1845.214, 937.403 1845.241, 938.269 1845.425, 948.267 1845.441, 949.134 1845.503, 959.134 1845.508, 960.000 1845.446, 970.000 1845.441, 970.867 1845.257, 980.865 1845.241, 981.732 1844.933, 991.727 1844.907, 992.593 1844.477, 1002.584 1844.439, 1003.450 1843.887, 1013.435 1843.839, 1014.300 1843.164, 1024.277 1843.106, 1025.142 1842.308, 1035.110 1842.239, 1035.974 1841.320, 1045.932 1841.241, 1046.795 1840.199, 1056.741 1840.109, 1057.603 1838.946, 1067.535 1838.846, 1068.396 1837.561, 1078.313 1837.450, 1079.172 1836.044, 1089.073 1835.922, 1089.931 1834.394, 1099.814 1834.262, 1100.670 1832.613, 1110.534 1832.470, 1111.388 1830.701, 1121.231 1830.548, 1122.084 1828.657, 1131.903 1828.493, 1132.754 1826.482, 1142.550 1826.308, 1143.399 1824.176, 1153.169 1823.991, 1154.016 1821.740, 1163.759 1821.545, 1164.604 1819.174, 1174.319 1818.969, 1175.161 1816.479, 1184.846 1816.263, 1185.685 1813.655, 1195.339 1813.428, 1196.176 1810.702, 1205.797 1810.466, 1206.631 1807.621, 1216.218 1807.375, 1217.049 1804.413, 1226.600 1804.157, 1227.428 1801.079, 1236.943 1800.812, 1237.767 1797.617, 1247.243 1797.340, 1248.065 1794.030, 1257.501 1793.743, 1258.319 1790.317, 1267.713 1790.020, 1268.528 1786.479, 1277.880 1786.172, 1278.690 1782.516, 1287.998 1782.199, 1288.805 1778.429, 1298.067 1778.103, 1298.870 1774.219, 1308.085 1773.882, 1308.883 1769.886, 1318.050 1769.540, 1318.844 1765.430, 1327.961 1765.074, 1328.751 1760.854, 1337.817 1760.488, 1338.603 1756.157, 1347.616 1755.781, 1348.397 1751.340, 1357.357 1750.955, 1358.133 1746.403, 1367.038 1746.009, 1367.810 1741.349, 1376.657 1740.945, 1377.424 1736.177, 1386.215 1735.764, 1386.976 1730.889, 1395.708 1730.466, 1396.464 1725.484, 1405.135 1725.052, 1405.887 1719.965, 1414.495 1719.524, 1415.242 1714.331, 1423.788 1713.880, 1424.528 1708.583, 1433.010 1708.124, 1433.745 1702.723, 1442.161 1702.254, 1442.890 1696.750, 1451.239 1696.273, 1451.962 1690.666, 1460.243 1690.180, 1460.960 1684.472, 1469.171 1683.977, 1469.883 1678.169, 1478.023 1677.665, 1478.728 1671.757, 1486.796 1671.245, 1487.496 1665.239, 1495.491 1664.718, 1496.184 1658.614, 1504.104 1658.085, 1504.791 1651.884, 1512.636 1651.346, 1513.316 1645.050, 1521.085 1644.504, 1521.759 1638.113, 1529.450 1637.559, 1530.116 1631.074, 1537.728 1630.512, 1538.388 1623.934, 1545.920 1623.364, 1546.573 1616.695, 1554.024 1616.116, 1554.670 1609.356, 1562.039 1608.770, 1562.677 1601.920, 1569.962 1601.326, 1570.594 1594.386, 1577.794 1593.785, 1578.418 1586.758, 1585.532 1586.149, 1586.149 1579.035, 1593.177 1578.421, 1593.784 1571.226, 1600.728 1570.620, 1601.313 1563.348, 1608.177 1562.768, 1608.724 1555.423, 1615.510 1554.885, 1616.008 1547.471, 1622.718 1546.993, 1623.151 1539.513, 1629.789 1539.113, 1630.144 1531.571, 1636.710 1531.267, 1636.974 1523.665, 1643.470 1523.477, 1643.630 1515.764, 1650.102 1508.148, 1656.378 1500.652, 1662.446 1493.297, 1668.295 1486.104, 1673.914 1479.095, 1679.292 1472.291, 1684.418 1465.714, 1689.279 1459.376, 1693.871 1453.256, 1698.206 1447.325, 1702.304 1441.551, 1706.184 1435.906, 1709.864 1430.360, 1713.364 1424.882, 1716.703 1419.443, 1719.899 1414.012, 1722.972 1408.560, 1725.940 1403.057, 1728.823 1397.473, 1731.639 1391.778, 1734.408 1385.942, 1737.147 1379.955, 1739.875 1373.882, 1742.598 1367.323, 1745.376 1360.692, 1748.156 1353.938, 1750.936 1347.087, 1753.706 1340.182, 1756.452 1333.268, 1759.162 1326.390, 1761.823 1319.590, 1764.422 1312.915, 1766.946 1306.407, 1769.383 1300.112, 1771.719 1294.074, 1773.942 1288.336, 1776.038 1282.943, 1777.996 1277.901, 1779.816 1273.052, 1781.560 1269.227, 1782.923 1265.612, 1784.208 1262.374, 1785.351 1259.525, 1786.348 1257.035, 1787.211 1254.873, 1787.949 1253.010, 1788.574 1251.415, 1789.095 1250.060, 1789.525 1248.914, 1789.872 1247.946, 1790.149 1247.128, 1790.366 1246.430, 1790.533 1245.821, 1790.662 1245.271, 1790.762 1244.752, 1790.849 1244.237, 1790.920 1243.722, 1790.987 1243.207, 1791.047 1242.693, 1791.101 1242.178, 1791.148 1241.663, 1791.189 1241.149, 1791.222 1240.636, 1791.249 1240.123, 1791.269 1239.610, 1791.283 1239.098, 1791.289 1238.587, 1791.289 1238.076, 1791.282 1237.567, 1791.268 1237.058, 1791.248 1236.550, 1791.225 1236.044, 1791.186 1235.538, 1791.145 1235.034, 1791.097 1234.531, 1791.042 1234.030, 1790.981 1233.530, 1790.912 1233.031, 1790.837 1232.535, 1790.756 1232.039, 1790.668 1231.546, 1790.573 1231.055, 1790.471 1230.565, 1790.362 1230.077, 1790.247 1229.592, 1790.126 1229.108, 1789.998 1228.626, 1789.867 1228.148, 1789.721 1227.672, 1789.573 1227.198, 1789.418 1226.726, 1789.257 1226.257, 1789.089 1225.791, 1788.915 1225.327, 1788.734 1224.866, 1788.547 1224.408, 1788.354 1223.953, 1788.154 1223.501, 1787.948 1223.052, 1787.736 1222.606, 1787.517 1222.163, 1787.292 1221.723, 1787.062 1221.285, 1786.828 1220.854, 1786.581 1220.425, 1786.331 1219.999, 1786.075 1219.577, 1785.814 1219.159, 1785.546 1218.744, 1785.273 1218.333, 1784.993 1217.925, 1784.708 1217.522, 1784.417 1217.123, 1784.120 1216.727, 1783.818 1216.336, 1783.510 1215.949, 1783.196 1215.566, 1782.877 1215.187, 1782.552 1214.809, 1782.225 1214.442, 1781.886 1214.077, 1781.544 1213.716, 1781.198 1213.359, 1780.846 1213.007, 1780.488 1212.660, 1780.126 1212.317, 1779.759 1211.979, 1779.386 1211.646, 1779.009 1211.317, 1778.627 1210.994, 1778.239 1210.675, 1777.847 1210.362, 1777.450 1210.053, 1777.049 1209.749, 1776.643 1209.448, 1776.235 1209.158, 1775.816 1208.870, 1775.396 1208.588, 1774.972 1208.311, 1774.543 1208.039, 1774.110 1207.772, 1773.673 1207.511, 1773.232 1207.255, 1772.786 1207.005, 1772.337 1206.760, 1771.884 1206.521, 1771.427 1206.288, 1770.966 1206.060, 1770.501 1205.838, 1770.032 1205.621, 1769.561 1205.406, 1769.087 1205.203, 1768.598 1204.993, 1768.063 1204.769, 1767.435 1204.521, 1766.668 1204.239, 1765.718 1203.914, 1764.540 1203.536, 1763.088 1203.096, 1761.318 1202.582, 1759.184 1201.986, 1756.643 1201.297, 1753.648 1200.506, 1750.155 1199.603, 1746.119 1198.578, 1741.495 1197.434, 1736.298 1196.225, 1730.785 1194.692, 1723.727 1193.102, 1716.398 1191.412, 1708.585 1189.628, 1700.318 1187.768, 1691.687 1185.852, 1682.782 1183.898, 1673.693 1181.927, 1664.508 1179.956, 1655.318 1178.005, 1646.213 1176.092, 1637.282 1174.237, 1628.614 1172.459, 1620.301 1170.777, 1612.431 1169.210, 1605.094 1167.776, 1598.381 1166.491, 1592.357 1165.348, 1587.001 1164.340, 1582.270 1163.455, 1578.117 1162.685, 1574.498 1162.020, 1571.370 1161.451, 1568.686 1160.968, 1566.404 1160.561, 1564.478 1160.220, 1562.864 1159.937, 1561.517 1159.702, 1560.393 1159.599, 1559.897 1159.523, 1559.534 1159.521, 1559.524 1159.505, 1559.447 1159.337, 1558.634 1159.188, 1557.911 1159.048, 1557.232 1158.910, 1556.561 1158.772, 1555.889 1158.634, 1555.218 1158.496, 1554.546 1158.358, 1553.875 1158.220, 1553.204 1158.082, 1552.532 1157.943, 1551.861 1157.805, 1551.189 1157.667, 1550.518 1157.529, 1549.846 1157.391, 1549.175 1157.253, 1548.504 1157.115, 1547.832 1156.977, 1547.161 1156.839, 1546.489 1156.701, 1545.818 1156.563, 1545.146 1156.425, 1544.475 1156.287, 1543.804 1156.149, 1543.132 1156.010, 1542.461 1155.872, 1541.789 1155.734, 1541.118 1155.596, 1540.446 1155.458, 1539.775 1155.320, 1539.104 1155.182, 1538.432 1155.044, 1537.761 1154.906, 1537.089 1154.768, 1536.418 1154.630, 1535.746 1154.492, 1535.075 1154.354, 1534.404 1154.216, 1533.732 1154.077, 1533.061 1153.939, 1532.389 1153.801, 1531.718 1153.663, 1531.047 1153.525, 1530.375 1153.387, 1529.704 1153.249, 1529.032 1153.111, 1528.361 1152.973, 1527.689 1152.835, 1527.018 1152.697, 1526.347 1152.559, 1525.675 1152.421, 1525.004 1152.282, 1524.332 1152.144, 1523.661 1152.006, 1522.990 1151.868, 1522.318 1151.730, 1521.647 1151.592, 1520.975 1151.454, 1520.304 1151.316, 1519.632 1151.178, 1518.961 1151.040, 1518.290 1150.902, 1517.618 1150.764, 1516.947 1150.626, 1516.275 1150.488, 1515.604 1150.349, 1514.932 1150.211, 1514.261 1150.073, 1513.590 1149.935, 1512.918 1149.797, 1512.247 1149.659, 1511.575 1149.521, 1510.904 1149.383, 1510.232 1149.245, 1509.561 1149.107, 1508.890 1148.969, 1508.218 1148.831, 1507.547 1148.693, 1506.875 1148.555, 1506.204 1148.416, 1505.533 1148.278, 1504.861 1148.140, 1504.190 1148.002, 1503.518 1147.864, 1502.847 1147.726, 1502.175 1147.588, 1501.504 1147.450, 1500.832 1147.312, 1500.161 1147.174, 1499.490 1147.036, 1498.818 1146.898, 1498.147 1146.760, 1497.475 1146.621, 1496.804 1146.483, 1496.133 1146.345, 1495.461 1146.207, 1494.790 1146.069, 1494.118 1145.931, 1493.447 1145.793, 1492.775 1145.655, 1492.103 1145.515, 1491.421 1145.371, 1490.723 1145.223, 1489.999 1145.068, 1489.241 1144.905, 1488.440 1144.732, 1487.588 1144.547, 1486.677 1144.349, 1485.697 1144.135, 1484.640 1143.906, 1483.499 1143.658, 1482.263 1143.390, 1480.925 1143.100, 1479.476 1142.787, 1477.908 1142.450, 1476.212 1142.086, 1474.384 1141.700, 1472.437 1141.293, 1470.387 1140.870, 1468.252 1140.434, 1466.049 1139.988, 1463.794 1139.535, 1461.506 1139.080, 1459.200 1138.625, 1456.894 1138.173, 1454.605 1137.728, 1452.350 1137.294, 1450.147 1136.874, 1448.011 1136.470, 1445.961 1136.087, 1444.013 1135.728, 1442.184 1135.395, 1440.487 1135.087, 1438.918 1134.803, 1437.468 1134.542, 1436.129 1134.300, 1434.892 1134.078, 1433.749 1133.872, 1432.691 1133.682, 1431.709 1133.505, 1430.796 1133.339, 1429.943 1133.185, 1429.140 1133.038, 1428.380 1132.899, 1427.655 1132.764, 1426.955 1132.633, 1426.271 1132.504, 1425.597 1132.375, 1424.924 1132.245, 1424.250 1132.116, 1423.577 1131.987, 1422.904 1131.858, 1422.231 1131.729, 1421.558 1131.600, 1420.884 1131.471, 1420.211 1131.342, 1419.538 1131.213, 1418.865 1131.083, 1418.191 1130.954, 1417.518 1130.825, 1416.845 1130.696, 1416.172 1130.567, 1415.499 1130.438, 1414.825 1130.309, 1414.152 1130.179, 1413.479 1130.050, 1412.806 1129.921, 1412.133 1129.792, 1411.459 1129.663, 1410.786 1129.534, 1410.113 1129.405, 1409.440 1129.276, 1408.766 1129.146, 1408.093 1129.017, 1407.420 1128.888, 1406.747 1128.759, 1406.074 1128.630, 1405.400 1128.501, 1404.727 1128.372, 1404.054 1128.243, 1403.381 1128.114, 1402.708 1127.984, 1402.034 1127.855, 1401.361 1127.726, 1400.688 1127.597, 1400.015 1127.468, 1399.341 1127.339, 1398.668 1127.210, 1397.995 1127.080, 1397.322 1126.951, 1396.649 1126.822, 1395.975 1126.693, 1395.302 1126.564, 1394.629 1126.435, 1393.956 1126.306, 1393.283 1126.177, 1392.609 1126.047, 1391.936 1125.918, 1391.263 1125.789, 1390.590 1125.660, 1389.917 1125.531, 1389.243 1125.402, 1388.570 1125.273, 1387.897 1125.144, 1387.224 1125.014, 1386.550 1124.885, 1385.877 1124.756, 1385.204 1124.627, 1384.531 1124.498, 1383.858 1124.369, 1383.184 1124.240, 1382.511 1124.111, 1381.838 1123.981, 1381.165 1123.852, 1380.492 1123.723, 1379.818 1123.594, 1379.145 1123.465, 1378.472 1123.336, 1377.799 1123.207, 1377.125 1123.078, 1376.452 1122.948, 1375.779 1122.819, 1375.106 1122.690, 1374.433 1122.561, 1373.759 1122.432, 1373.086 1122.303, 1372.413 1122.174, 1371.740 1122.045, 1371.067 1121.915, 1370.393 1121.786, 1369.720 1121.657, 1369.047 1121.528, 1368.374 1121.399, 1367.700 1121.270, 1367.027 1121.141, 1366.354 1121.012, 1365.681 1120.882, 1365.008 1120.753, 1364.334 1120.624, 1363.661 1120.495, 1362.988 1120.366, 1362.315 1120.237, 1361.642 1120.108, 1360.968 1119.978, 1360.293 1119.846, 1359.606 1119.710, 1358.894 1119.567, 1358.146 1119.556, 1358.089 1119.415, 1357.349 1119.252, 1356.492 1119.075, 1355.561 1118.883, 1354.546 1118.672, 1353.433 1118.442, 1352.211 1118.189, 1350.868 1117.911, 1349.391 1117.606, 1347.768 1117.272, 1345.987 1116.906, 1344.036 1116.507, 1341.903 1116.073, 1339.581 1115.608, 1337.090 1115.116, 1334.454 1114.603, 1331.698 1114.073, 1328.847 1113.531, 1325.925 1112.982, 1322.957 1112.431, 1319.969 1111.881, 1316.984 1111.339, 1314.027 1110.809, 1311.124 1110.296, 1308.299 1109.804, 1305.577 1109.339, 1302.982 1108.901, 1300.523 1108.479, 1298.140 1108.144, 1296.188 1107.827, 1294.325 1107.543, 1292.621 1107.294, 1291.080 1107.076, 1289.691 1106.888, 1288.439 1106.728, 1287.313 1106.593, 1286.300 1106.481, 1285.387 1106.391, 1284.560 1106.319, 1283.808 1106.264, 1283.118 1106.224, 1282.477 1106.195, 1281.872 1106.177, 1281.290 1106.163, 1280.720 1106.163, 1280.148 1106.165, 1279.575 1106.172, 1279.000 1106.186, 1278.423 1106.205, 1277.844 1106.229, 1277.264 1106.260, 1276.682 1106.296, 1276.099 1106.338, 1275.514 1106.385, 1274.928 1106.438, 1274.341 1106.497, 1273.753 1106.562, 1273.164 1106.632, 1272.573 1106.707, 1271.982 1106.786, 1271.391 1106.876, 1270.798 1106.969, 1270.205 1107.068, 1269.611 1107.172, 1269.017 1107.282, 1268.422 1107.397, 1267.828 1107.518, 1267.233 1107.644, 1266.638 1107.776, 1266.043 1107.913, 1265.448 1108.056, 1264.854 1108.204, 1264.260 1108.358, 1263.666 1108.517, 1263.072 1108.681, 1262.480 1108.847, 1261.887 1109.026, 1261.296 1109.206, 1260.706 1109.392, 1260.116 1109.583, 1259.528 1109.779, 1258.940 1109.981, 1258.354 1110.187, 1257.769 1110.399, 1257.185 1110.616, 1256.603 1110.838, 1256.022 1111.064, 1255.443 1111.296, 1254.866 1111.533, 1254.290 1111.775, 1253.717 1112.021, 1253.145 1112.270, 1252.574 1112.529, 1252.008 1112.790, 1251.443 1113.056, 1250.880 1113.326, 1250.320 1113.602, 1249.762 1113.881, 1249.207 1114.166, 1248.654 1114.455, 1248.104 1114.748, 1247.557 1115.046, 1247.013 1115.348, 1246.471 1115.655, 1245.933 1115.965, 1245.398 1116.281, 1244.866 1116.599, 1244.338 1116.921, 1243.810 1117.251, 1243.291 1117.583, 1242.773 1117.918, 1242.259 1118.258, 1241.748 1118.602, 1241.241 1118.949, 1240.738 1119.300, 1240.239 1119.655, 1239.744 1120.014, 1239.252 1120.376, 1238.766 1120.742, 1238.283 1121.112, 1237.804 1121.485, 1237.330 1121.861, 1236.861 1122.241, 1236.395 1122.622, 1235.932 1123.010, 1235.479 1123.400, 1235.028 1123.793, 1234.582 1124.188, 1234.141 1124.587, 1233.704 1124.989, 1233.273 1125.394, 1232.846 1125.801, 1232.425 1126.211, 1232.009 1126.624, 1231.598 1127.040, 1231.192 1127.458, 1230.792 1127.879, 1230.397 1128.302, 1230.008 1128.727, 1229.624 1129.154, 1229.242 1129.585, 1228.873 1130.016, 1228.508 1130.445, 1228.150 1130.870, 1227.800 1131.290, 1227.460 1131.703, 1227.130 1132.107, 1226.811 1132.500, 1226.505 1132.880, 1226.212 1133.246, 1225.933 1133.594, 1225.668 1133.925, 1225.420 1134.234, 1225.189 1134.522, 1224.975 1134.788, 1224.779 1135.042, 1224.592 1135.237, 1224.447 1135.432, 1224.302 1135.629, 1224.154 1135.838, 1223.994 1136.073, 1223.811 1136.347, 1223.594 1136.674, 1223.332 1137.068, 1223.014 1137.542, 1222.629 1138.109, 1222.167 1138.782, 1221.616 1139.577, 1220.966 1140.505, 1220.205 1141.580, 1219.323 1142.816, 1218.309 1144.226, 1217.152 1145.820, 1215.843 1147.588, 1214.388 1149.515, 1212.794 1151.589, 1211.069 1153.795, 1209.219 1156.120, 1207.253 1158.549, 1205.178 1161.070, 1203.002 1163.667, 1200.732 1166.328, 1198.375 1169.038, 1195.940 1171.783, 1193.433 1174.550, 1190.863 1177.325, 1188.236 1180.094, 1185.561 1182.844, 1182.844 1185.561, 1180.093 1188.245, 1177.308 1190.895, 1174.490 1193.509, 1171.641 1196.089, 1168.759 1198.632, 1165.846 1201.140, 1162.902 1203.612, 1159.928 1206.047, 1156.923 1208.445, 1153.889 1210.806, 1150.826 1213.129, 1147.734 1215.414, 1144.613 1217.660, 1141.465 1219.868, 1138.290 1222.036, 1135.088 1224.165, 1131.859 1226.254, 1128.604 1228.303, 1125.324 1230.311, 1122.019 1232.279, 1118.689 1234.206, 1115.336 1236.091, 1111.959 1237.935, 1108.560 1239.737, 1105.138 1241.497, 1101.694 1243.215, 1098.229 1244.890, 1094.743 1246.523, 1091.237 1248.112, 1087.711 1249.657, 1084.166 1251.159, 1080.602 1252.617, 1077.020 1254.031, 1073.421 1255.401, 1069.804 1256.726, 1066.171 1258.006, 1062.521 1259.241, 1058.856 1260.432, 1055.177 1261.577, 1051.483 1262.677, 1047.775 1263.732, 1044.054 1264.740, 1040.321 1265.703, 1036.575 1266.620, 1032.818 1267.491, 1029.050 1268.315, 1025.271 1269.093, 1021.483 1269.824, 1017.685 1270.509, 1013.879 1271.146, 1010.064 1271.737, 1006.242 1272.281, 1002.413 1272.777, 998.578 1273.227, 994.737 1273.630, 990.890 1273.985, 987.039 1274.294, 983.184 1274.555, 979.325 1274.768, 975.464 1274.935, 971.600 1275.053, 967.734 1275.125, 963.868 1275.149, 960.000 1275.125, 956.133 1275.053, 952.266 1274.935, 948.401 1274.768, 944.537 1274.555, 940.675 1274.294, 936.817 1273.985, 932.962 1273.630, 929.110 1273.227, 925.264 1272.777, 921.423 1272.281, 917.587 1271.737, 913.758 1271.146, 909.936 1270.509, 906.122 1269.824, 902.315 1269.093, 898.518 " />
            <path fill="none" stroke-width="140.0" stroke-linecap="round" stroke-opacity="1.0" stroke="rgb(255, 255, 255)" stroke-linejoin="round" d=" M 1145.223, 1489.999 1145.291, 1490.363 1145.356, 1490.720 1145.423, 1491.083 1145.356, 1490.719 1145.356, 1490.720 1145.477, 1491.453 1145.529, 1491.806 1145.581, 1492.160 1145.641, 1492.557 1145.684, 1492.838 1145.637, 1492.524 1145.641, 1492.557 1145.729, 1493.195 1145.777, 1493.553 1145.827, 1493.913 1145.899, 1494.406 1145.918, 1494.539 1145.881, 1494.275 1145.899, 1494.406 1145.964, 1494.883 1146.015, 1495.237 1146.104, 1495.832 1146.153, 1496.171 1146.242, 1496.746 1146.243, 1496.756 1146.209, 1496.522 1146.242, 1496.746 1146.292, 1497.089 1146.381, 1497.657 1146.433, 1497.995 " />
            <path fill="none" stroke-width="140.0" stroke-linecap="round" stroke-opacity="1.0" stroke="rgb(255, 255, 255)" stroke-linejoin="round" d=" M 1146.580, 1498.880 1146.525, 1498.546 " />
            <path fill="none" stroke-width="140.0" stroke-linecap="round" stroke-opacity="1.0" stroke="rgb(255, 255, 255)" stroke-linejoin="round" d=" M 1146.666, 1499.441 1146.762, 1500.004 1146.815, 1500.319 1146.911, 1500.866 1147.012, 1501.423 1147.067, 1501.728 1147.168, 1502.269 " />
            <path fill="none" stroke-width="140.0" stroke-linecap="round" stroke-opacity="1.0" stroke="rgb(255, 255, 255)" stroke-linejoin="round" d=" M 1147.230, 1502.583 1147.168, 1502.269 1147.272, 1502.812 1147.445, 1503.649 " />
            <path fill="none" stroke-width="140.0" stroke-linecap="round" stroke-opacity="1.0" stroke="rgb(255, 255, 255)" stroke-linejoin="round" d=" M 1147.219, 1502.514 1147.328, 1503.066 " />
            <path fill="none" stroke-width="140.0" stroke-linecap="round" stroke-opacity="1.0" stroke="rgb(255, 255, 255)" stroke-linejoin="round" d=" M 1147.655, 1504.732 1147.495, 1503.896 1147.412, 1503.480 1147.386, 1503.350 1147.445, 1503.649 1147.412, 1503.480 1147.340, 1503.112 " />
            <path fill="none" stroke-width="140.0" stroke-linecap="round" stroke-opacity="1.0" stroke="rgb(255, 255, 255)" stroke-linejoin="round" d=" M 1147.545, 1504.193 1147.655, 1504.732 " />
            <path fill="none" stroke-width="140.0" stroke-linecap="round" stroke-opacity="1.0" stroke="rgb(255, 255, 255)" stroke-linejoin="round" d=" M 1147.600, 1504.449 1147.655, 1504.732 1147.767, 1505.274 1147.880, 1505.816 1147.994, 1506.361 1148.108, 1506.907 1148.222, 1507.455 1148.336, 1508.005 1148.450, 1508.556 1148.563, 1509.109 1148.677, 1509.664 1148.791, 1510.221 1148.905, 1510.779 1149.019, 1511.338 1149.133, 1511.899 1149.247, 1512.461 1149.361, 1513.024 1149.475, 1513.589 1149.589, 1514.155 1149.703, 1514.721 1149.818, 1515.289 1149.932, 1515.858 1150.047, 1516.427 1150.162, 1516.998 " />
            <path fill="none" stroke-width="140.0" stroke-linecap="round" stroke-opacity="1.0" stroke="rgb(255, 255, 255)" stroke-linejoin="round" d=" M 1150.279, 1517.561 1150.394, 1518.132 1150.506, 1518.705 " />
            <path fill="none" stroke-width="140.0" stroke-linecap="round" stroke-opacity="1.0" stroke="rgb(255, 255, 255)" stroke-linejoin="round" d=" M 1150.868, 1520.487 1150.982, 1521.053 1151.095, 1521.628 1151.209, 1522.195 1151.324, 1522.762 1151.440, 1523.329 1151.556, 1523.896 1151.672, 1524.463 1151.788, 1525.030 1151.905, 1525.597 1152.022, 1526.164 1152.140, 1526.731 1152.257, 1527.297 1152.375, 1527.864 1152.499, 1528.437 1152.617, 1529.003 1152.736, 1529.569 1152.848, 1530.117 " />
            <path fill="none" stroke-width="140.0" stroke-linecap="round" stroke-opacity="1.0" stroke="rgb(255, 255, 255)" stroke-linejoin="round" d=" M 1158.934, 1557.262 1159.143, 1558.036 1159.234, 1558.394 1159.323, 1558.740 1159.433, 1559.177 1159.523, 1559.534 1159.526, 1559.544 1159.554, 1559.656 1159.524, 1559.534 1159.521, 1559.524 1159.414, 1559.094 1159.433, 1559.177 1159.599, 1559.897 1159.629, 1560.025 1159.526, 1559.544 1159.524, 1559.534 1159.505, 1559.447 " />
            <path fill="none" stroke-width="140.0" stroke-linecap="round" stroke-opacity="1.0" stroke="rgb(255, 255, 255)" stroke-linejoin="round" d=" M 1157.358, 1551.332 1157.421, 1551.590 1157.572, 1552.208 1157.657, 1552.534 1157.801, 1553.095 1157.906, 1553.489 1157.947, 1553.643 1157.889, 1553.423 1157.906, 1553.489 1158.036, 1553.991 1158.126, 1554.323 1158.279, 1554.903 1158.373, 1555.251 1158.470, 1555.594 1158.644, 1556.225 1158.740, 1556.578 1158.837, 1556.926 " />
            <path fill="none" stroke-width="140.0" stroke-linecap="round" stroke-opacity="1.0" stroke="rgb(255, 255, 255)" stroke-linejoin="round" d=" M 1156.486, 1547.639 1156.555, 1547.962 1156.677, 1548.505 1156.780, 1548.954 1156.803, 1549.053 1156.748, 1548.815 1156.780, 1548.954 1156.876, 1549.370 1157.004, 1549.913 1157.091, 1550.270 1157.138, 1550.461 1157.081, 1550.229 1157.091, 1550.270 1157.215, 1550.785 1157.421, 1551.590 1157.425, 1551.607 1157.441, 1551.667 1157.358, 1551.332 1157.425, 1551.607 1157.489, 1551.866 " />
            <path fill="none" stroke-width="140.0" stroke-linecap="round" stroke-opacity="1.0" stroke="rgb(255, 255, 255)" stroke-linejoin="round" d=" M 1156.507, 1547.719 1156.628, 1548.273 1156.445, 1547.415 1156.377, 1547.099 " />
            <path fill="none" stroke-width="140.0" stroke-linecap="round" stroke-opacity="1.0" stroke="rgb(255, 255, 255)" stroke-linejoin="round" d=" M 1156.137, 1546.012 1156.202, 1546.312 1156.338, 1546.932 1156.389, 1547.161 " />
            <path fill="none" stroke-width="140.0" stroke-linecap="round" stroke-opacity="1.0" stroke="rgb(255, 255, 255)" stroke-linejoin="round" d=" M 1153.469, 1533.079 1153.589, 1533.650 1153.708, 1534.221 1153.828, 1534.791 1153.948, 1535.360 1154.067, 1535.929 1154.185, 1536.498 1154.304, 1537.065 1154.422, 1537.632 1154.540, 1538.198 1154.657, 1538.763 1154.774, 1539.327 1154.890, 1539.890 1155.006, 1540.452 1155.121, 1541.014 1155.236, 1541.574 1155.350, 1542.134 1155.464, 1542.692 1155.576, 1543.249 1155.688, 1543.805 1155.800, 1544.360 1155.912, 1544.913 1156.024, 1545.464 1156.137, 1546.012 " />
            <path fill="none" stroke-width="140.0" stroke-linecap="round" stroke-opacity="1.0" stroke="rgb(255, 255, 255)" stroke-linejoin="round" d=" M 1156.327, 1546.865 1156.137, 1546.012 1156.251, 1546.557 " />
            <path fill="none" stroke-width="140.0" stroke-linecap="round" stroke-opacity="1.0" stroke="rgb(255, 255, 255)" stroke-linejoin="round" d=" M 1152.990, 1530.797 1153.114, 1531.369 " />
            <path fill="none" stroke-width="140.0" stroke-linecap="round" stroke-opacity="1.0" stroke="rgb(255, 255, 255)" stroke-linejoin="round" d=" M 1153.235, 1531.941 1153.355, 1532.514 " />
            <path fill="none" stroke-width="140.0" stroke-linecap="round" stroke-opacity="1.0" stroke="rgb(255, 255, 255)" stroke-linejoin="round" d=" M 1152.866, 1530.206 1152.970, 1530.700 " />
            <path fill="none" stroke-width="140.0" stroke-linecap="round" stroke-opacity="1.0" stroke="rgb(255, 255, 255)" stroke-linejoin="round" d=" M 1119.567, 1358.146 1119.493, 1357.715 1119.556, 1358.089 1119.628, 1358.512 1119.688, 1358.878 1119.774, 1359.422 1119.805, 1359.618 1119.749, 1359.246 1119.774, 1359.422 1119.854, 1359.980 1119.903, 1360.344 1119.954, 1360.709 1120.045, 1361.384 1120.046, 1361.393 1120.007, 1361.076 1120.045, 1361.384 1120.089, 1361.742 1120.136, 1362.103 1120.200, 1362.569 1120.221, 1362.726 1120.185, 1362.455 1120.200, 1362.569 1120.265, 1363.079 1120.312, 1363.424 1120.395, 1364.023 1120.442, 1364.371 1120.523, 1364.949 1120.571, 1365.291 " />
            <path fill="none" stroke-width="140.0" stroke-linecap="round" stroke-opacity="1.0" stroke="rgb(255, 255, 255)" stroke-linejoin="round" d=" M 1120.703, 1366.189 1120.653, 1365.851 " />
            <path fill="none" stroke-width="140.0" stroke-linecap="round" stroke-opacity="1.0" stroke="rgb(255, 255, 255)" stroke-linejoin="round" d=" M 1120.783, 1366.760 1120.832, 1367.084 1120.916, 1367.647 " />
            <path fill="none" stroke-width="140.0" stroke-linecap="round" stroke-opacity="1.0" stroke="rgb(255, 255, 255)" stroke-linejoin="round" d=" M 1121.059, 1368.516 1121.007, 1368.194 " />
            <path fill="none" stroke-width="140.0" stroke-linecap="round" stroke-opacity="1.0" stroke="rgb(255, 255, 255)" stroke-linejoin="round" d=" M 1121.293, 1369.926 1121.239, 1369.613 " />
            <path fill="none" stroke-width="140.0" stroke-linecap="round" stroke-opacity="1.0" stroke="rgb(255, 255, 255)" stroke-linejoin="round" d=" M 1121.188, 1369.314 1121.214, 1369.474 1121.248, 1369.676 1121.329, 1370.170 1121.380, 1370.474 1121.476, 1371.017 1121.573, 1371.552 1121.678, 1372.115 1121.731, 1372.403 1121.831, 1372.933 1121.934, 1373.473 " />
            <path fill="none" stroke-width="140.0" stroke-linecap="round" stroke-opacity="1.0" stroke="rgb(255, 255, 255)" stroke-linejoin="round" d=" M 1121.735, 1372.379 1121.884, 1373.201 1121.934, 1373.473 " />
            <path fill="none" stroke-width="140.0" stroke-linecap="round" stroke-opacity="1.0" stroke="rgb(255, 255, 255)" stroke-linejoin="round" d=" M 1121.198, 1369.392 1121.248, 1369.676 1121.312, 1370.042 1121.348, 1370.251 " />
            <path fill="none" stroke-width="140.0" stroke-linecap="round" stroke-opacity="1.0" stroke="rgb(255, 255, 255)" stroke-linejoin="round" d=" M 1124.265, 1385.773 1124.158, 1385.201 1124.051, 1384.629 1123.944, 1384.058 1123.838, 1383.489 1123.731, 1382.920 1123.625, 1382.353 1123.519, 1381.786 1123.413, 1381.221 1123.307, 1380.657 1123.201, 1380.095 1123.095, 1379.534 1122.989, 1378.974 1122.883, 1378.416 1122.778, 1377.860 1122.672, 1377.305 1122.566, 1376.752 1122.461, 1376.201 1122.355, 1375.651 1122.250, 1375.104 1122.144, 1374.559 1122.039, 1374.015 1121.934, 1373.473 1121.786, 1372.646 " />
            <path fill="none" stroke-width="140.0" stroke-linecap="round" stroke-opacity="1.0" stroke="rgb(255, 255, 255)" stroke-linejoin="round" d=" M 1124.392, 1386.428 1124.375, 1386.337 1124.482, 1386.911 " />
            <path fill="none" stroke-width="140.0" stroke-linecap="round" stroke-opacity="1.0" stroke="rgb(255, 255, 255)" stroke-linejoin="round" d=" M 1124.600, 1387.559 1124.697, 1388.078 1124.816, 1388.692 1124.922, 1389.259 1125.029, 1389.827 1125.135, 1390.404 1125.242, 1390.972 1125.350, 1391.541 1125.458, 1392.109 1125.567, 1392.678 1125.676, 1393.246 1125.785, 1393.815 1125.894, 1394.383 1126.004, 1394.951 1126.115, 1395.519 1126.230, 1396.095 1126.341, 1396.663 1126.452, 1397.230 1126.573, 1397.865 1126.670, 1398.366 " />
            <path fill="none" stroke-width="140.0" stroke-linecap="round" stroke-opacity="1.0" stroke="rgb(255, 255, 255)" stroke-linejoin="round" d=" M 1130.152, 1416.288 1130.267, 1416.834 1130.335, 1417.147 1130.455, 1417.705 1130.576, 1418.251 1130.648, 1418.569 1130.775, 1419.127 1130.902, 1419.671 1130.981, 1420.007 1131.110, 1420.547 1131.194, 1420.892 1131.328, 1421.446 1131.410, 1421.776 1131.549, 1422.344 1131.633, 1422.679 1131.776, 1423.254 1131.865, 1423.603 1131.962, 1423.972 1132.017, 1424.182 1131.953, 1423.938 1131.962, 1423.972 1132.108, 1424.548 1132.197, 1424.892 1132.289, 1425.241 1132.432, 1425.787 1132.453, 1425.869 1132.382, 1425.587 1132.432, 1425.787 1132.542, 1426.229 1132.630, 1426.588 1132.720, 1426.944 1132.876, 1427.614 1132.884, 1427.647 1132.809, 1427.300 1132.876, 1427.614 1132.960, 1428.009 1133.038, 1428.380 " />
            <path fill="none" stroke-width="140.0" stroke-linecap="round" stroke-opacity="1.0" stroke="rgb(255, 255, 255)" stroke-linejoin="round" d=" M 1130.040, 1415.738 1130.152, 1416.288 1130.088, 1415.962 1129.966, 1415.338 1129.917, 1415.088 " />
            <path fill="none" stroke-width="140.0" stroke-linecap="round" stroke-opacity="1.0" stroke="rgb(255, 255, 255)" stroke-linejoin="round" d=" M 1126.689, 1398.459 1126.805, 1399.033 1126.918, 1399.608 1127.021, 1400.134 1127.031, 1400.182 1127.008, 1400.063 1127.021, 1400.134 1127.138, 1400.749 1127.250, 1401.323 1127.363, 1401.896 1127.475, 1402.469 1127.587, 1403.042 1127.699, 1403.613 1127.811, 1404.184 1127.923, 1404.755 1128.034, 1405.325 1128.145, 1405.894 1128.255, 1406.463 1128.366, 1407.030 1128.476, 1407.597 1128.585, 1408.164 1128.694, 1408.729 1128.802, 1409.294 1128.910, 1409.857 1129.017, 1410.420 1129.124, 1410.982 1129.230, 1411.543 1129.336, 1412.102 1129.441, 1412.661 1129.546, 1413.217 1129.652, 1413.772 1129.759, 1414.324 " />
            <path fill="none" stroke-width="140.0" stroke-linecap="round" stroke-opacity="1.0" stroke="rgb(255, 255, 255)" stroke-linejoin="round" d=" M 1129.938, 1415.184 1129.876, 1414.872 " />
            <path fill="none" stroke-width="140.0" stroke-linecap="round" stroke-opacity="1.0" stroke="rgb(255, 255, 255)" stroke-linejoin="round" d=" M 760.495, 1559.447 760.476, 1559.534 760.474, 1559.544 760.371, 1560.025 760.401, 1559.896 760.567, 1559.175 760.586, 1559.094 760.479, 1559.524 760.476, 1559.534 760.446, 1559.656 760.474, 1559.544 760.477, 1559.533 760.567, 1559.175 760.677, 1558.740 760.766, 1558.394 760.857, 1558.036 761.066, 1557.262 " />
            <path fill="none" stroke-width="140.0" stroke-linecap="round" stroke-opacity="1.0" stroke="rgb(255, 255, 255)" stroke-linejoin="round" d=" M 761.163, 1556.926 761.260, 1556.578 761.356, 1556.225 761.530, 1555.594 761.627, 1555.251 761.721, 1554.903 761.874, 1554.323 761.964, 1553.990 762.094, 1553.489 762.111, 1553.423 762.051, 1553.652 762.094, 1553.489 762.199, 1553.095 762.343, 1552.534 762.428, 1552.208 762.642, 1551.332 " />
            <path fill="none" stroke-width="140.0" stroke-linecap="round" stroke-opacity="1.0" stroke="rgb(255, 255, 255)" stroke-linejoin="round" d=" M 762.559, 1551.667 762.642, 1551.332 762.511, 1551.866 " />
            <path fill="none" stroke-width="140.0" stroke-linecap="round" stroke-opacity="1.0" stroke="rgb(255, 255, 255)" stroke-linejoin="round" d=" M 762.785, 1550.785 762.908, 1550.276 762.919, 1550.229 762.862, 1550.461 762.908, 1550.276 762.996, 1549.913 763.124, 1549.370 763.217, 1548.966 763.252, 1548.814 763.197, 1549.053 763.217, 1548.966 763.323, 1548.505 763.445, 1547.962 763.514, 1547.639 " />
            <path fill="none" stroke-width="140.0" stroke-linecap="round" stroke-opacity="1.0" stroke="rgb(255, 255, 255)" stroke-linejoin="round" d=" M 763.611, 1547.161 763.662, 1546.933 763.798, 1546.312 " />
            <path fill="none" stroke-width="140.0" stroke-linecap="round" stroke-opacity="1.0" stroke="rgb(255, 255, 255)" stroke-linejoin="round" d=" M 763.623, 1547.099 763.555, 1547.415 " />
            <path fill="none" stroke-width="140.0" stroke-linecap="round" stroke-opacity="1.0" stroke="rgb(255, 255, 255)" stroke-linejoin="round" d=" M 763.748, 1546.558 763.863, 1546.012 763.976, 1545.464 764.088, 1544.913 764.200, 1544.360 764.312, 1543.805 764.424, 1543.249 764.536, 1542.692 764.650, 1542.134 764.764, 1541.574 764.879, 1541.014 764.994, 1540.452 765.110, 1539.890 765.226, 1539.327 765.343, 1538.763 765.460, 1538.198 765.578, 1537.632 765.696, 1537.065 765.815, 1536.498 765.933, 1535.929 766.052, 1535.360 766.172, 1534.791 766.292, 1534.221 766.411, 1533.650 766.531, 1533.079 " />
            <path fill="none" stroke-width="140.0" stroke-linecap="round" stroke-opacity="1.0" stroke="rgb(255, 255, 255)" stroke-linejoin="round" d=" M 766.670, 1532.391 766.645, 1532.514 766.765, 1531.941 " />
            <path fill="none" stroke-width="140.0" stroke-linecap="round" stroke-opacity="1.0" stroke="rgb(255, 255, 255)" stroke-linejoin="round" d=" M 766.886, 1531.369 767.010, 1530.797 " />
            <path fill="none" stroke-width="140.0" stroke-linecap="round" stroke-opacity="1.0" stroke="rgb(255, 255, 255)" stroke-linejoin="round" d=" M 767.264, 1529.569 767.383, 1529.003 767.501, 1528.437 767.625, 1527.864 767.743, 1527.297 767.860, 1526.731 767.978, 1526.164 768.095, 1525.597 768.212, 1525.030 768.328, 1524.463 768.444, 1523.896 768.560, 1523.329 768.676, 1522.762 768.791, 1522.195 768.905, 1521.628 769.018, 1521.053 769.132, 1520.487 769.246, 1519.921 769.376, 1519.296 " />
            <path fill="none" stroke-width="140.0" stroke-linecap="round" stroke-opacity="1.0" stroke="rgb(255, 255, 255)" stroke-linejoin="round" d=" M 767.030, 1530.700 767.134, 1530.206 " />
            <path fill="none" stroke-width="140.0" stroke-linecap="round" stroke-opacity="1.0" stroke="rgb(255, 255, 255)" stroke-linejoin="round" d=" M 773.567, 1497.995 773.619, 1497.657 773.708, 1497.089 773.758, 1496.744 773.791, 1496.522 773.757, 1496.756 773.758, 1496.744 773.847, 1496.171 773.896, 1495.832 773.985, 1495.237 774.036, 1494.883 774.100, 1494.412 774.119, 1494.274 774.083, 1494.530 774.100, 1494.412 774.173, 1493.913 774.223, 1493.553 774.271, 1493.195 774.359, 1492.558 774.363, 1492.524 774.316, 1492.838 774.359, 1492.558 774.419, 1492.160 774.471, 1491.806 774.523, 1491.453 774.644, 1490.719 774.644, 1490.719 774.577, 1491.083 774.644, 1490.719 774.710, 1490.363 774.777, 1489.999 " />
            <path fill="none" stroke-width="140.0" stroke-linecap="round" stroke-opacity="1.0" stroke="rgb(255, 255, 255)" stroke-linejoin="round" d=" M 773.475, 1498.546 773.420, 1498.880 " />
            <path fill="none" stroke-width="140.0" stroke-linecap="round" stroke-opacity="1.0" stroke="rgb(255, 255, 255)" stroke-linejoin="round" d=" M 772.728, 1502.812 772.832, 1502.269 772.933, 1501.728 772.988, 1501.423 773.089, 1500.866 773.185, 1500.319 773.238, 1500.004 773.334, 1499.441 " />
            <path fill="none" stroke-width="140.0" stroke-linecap="round" stroke-opacity="1.0" stroke="rgb(255, 255, 255)" stroke-linejoin="round" d=" M 772.400, 1504.450 772.560, 1503.619 772.505, 1503.896 " />
            <path fill="none" stroke-width="140.0" stroke-linecap="round" stroke-opacity="1.0" stroke="rgb(255, 255, 255)" stroke-linejoin="round" d=" M 769.838, 1516.998 769.953, 1516.427 770.068, 1515.858 770.182, 1515.289 770.296, 1514.721 770.411, 1514.155 770.525, 1513.589 770.639, 1513.024 770.753, 1512.461 770.867, 1511.899 770.981, 1511.338 771.095, 1510.779 771.209, 1510.221 771.323, 1509.664 771.436, 1509.109 771.550, 1508.556 771.664, 1508.005 771.778, 1507.455 771.892, 1506.907 772.007, 1506.361 772.120, 1505.816 772.233, 1505.274 772.345, 1504.732 772.455, 1504.193 " />
            <path fill="none" stroke-width="140.0" stroke-linecap="round" stroke-opacity="1.0" stroke="rgb(255, 255, 255)" stroke-linejoin="round" d=" M 772.614, 1503.350 772.555, 1503.649 " />
            <path fill="none" stroke-width="140.0" stroke-linecap="round" stroke-opacity="1.0" stroke="rgb(255, 255, 255)" stroke-linejoin="round" d=" M 769.494, 1518.705 769.606, 1518.132 769.721, 1517.560 " />
            <path fill="none" stroke-width="140.0" stroke-linecap="round" stroke-opacity="1.0" stroke="rgb(255, 255, 255)" stroke-linejoin="round" d=" M 786.962, 1428.380 787.040, 1428.009 787.124, 1427.615 787.191, 1427.300 787.116, 1427.647 787.124, 1427.615 787.280, 1426.944 787.370, 1426.588 787.458, 1426.229 787.568, 1425.786 787.618, 1425.587 787.547, 1425.869 787.568, 1425.786 787.711, 1425.241 787.803, 1424.892 787.892, 1424.548 788.037, 1423.976 788.047, 1423.938 787.983, 1424.182 788.037, 1423.976 788.135, 1423.603 788.224, 1423.254 788.367, 1422.679 788.451, 1422.344 788.590, 1421.776 788.672, 1421.446 788.806, 1420.892 788.890, 1420.547 789.019, 1420.007 789.098, 1419.671 789.225, 1419.127 789.352, 1418.569 789.424, 1418.251 789.545, 1417.705 789.665, 1417.147 789.733, 1416.834 789.848, 1416.288 " />
            <path fill="none" stroke-width="140.0" stroke-linecap="round" stroke-opacity="1.0" stroke="rgb(255, 255, 255)" stroke-linejoin="round" d=" M 790.062, 1415.184 790.124, 1414.872 790.080, 1415.091 790.015, 1415.418 789.955, 1415.727 789.931, 1415.852 789.848, 1416.288 789.960, 1415.738 " />
            <path fill="none" stroke-width="140.0" stroke-linecap="round" stroke-opacity="1.0" stroke="rgb(255, 255, 255)" stroke-linejoin="round" d=" M 790.062, 1415.184 789.955, 1415.727 789.893, 1416.045 789.931, 1415.852 790.005, 1415.485 790.040, 1415.305 790.087, 1415.064 790.115, 1414.921 790.140, 1414.797 790.205, 1414.477 790.288, 1414.069 " />
            <path fill="none" stroke-width="140.0" stroke-linecap="round" stroke-opacity="1.0" stroke="rgb(255, 255, 255)" stroke-linejoin="round" d=" M 790.171, 1414.628 790.080, 1415.091 790.062, 1415.184 790.087, 1415.064 790.241, 1414.324 790.348, 1413.772 790.454, 1413.217 790.559, 1412.661 790.664, 1412.102 790.770, 1411.543 790.876, 1410.982 790.983, 1410.420 791.090, 1409.857 791.198, 1409.294 791.306, 1408.729 791.415, 1408.164 791.524, 1407.597 791.634, 1407.030 791.744, 1406.463 791.855, 1405.894 791.966, 1405.325 792.077, 1404.755 792.189, 1404.185 792.301, 1403.613 792.413, 1403.042 792.525, 1402.469 792.637, 1401.896 792.750, 1401.323 792.862, 1400.749 792.979, 1400.132 792.992, 1400.063 " />
            <path fill="none" stroke-width="140.0" stroke-linecap="round" stroke-opacity="1.0" stroke="rgb(255, 255, 255)" stroke-linejoin="round" d=" M 790.191, 1414.549 790.205, 1414.477 790.298, 1414.007 " />
            <path fill="none" stroke-width="140.0" stroke-linecap="round" stroke-opacity="1.0" stroke="rgb(255, 255, 255)" stroke-linejoin="round" d=" M 792.969, 1400.182 792.979, 1400.132 793.082, 1399.608 " />
            <path fill="none" stroke-width="140.0" stroke-linecap="round" stroke-opacity="1.0" stroke="rgb(255, 255, 255)" stroke-linejoin="round" d=" M 793.195, 1399.033 793.311, 1398.459 793.330, 1398.366 793.427, 1397.865 793.548, 1397.230 793.659, 1396.663 793.770, 1396.095 793.885, 1395.519 793.996, 1394.951 794.106, 1394.383 794.215, 1393.815 794.325, 1393.246 794.433, 1392.678 794.542, 1392.109 794.650, 1391.541 794.758, 1390.972 794.865, 1390.404 794.971, 1389.827 795.078, 1389.259 795.184, 1388.692 " />
            <path fill="none" stroke-width="140.0" stroke-linecap="round" stroke-opacity="1.0" stroke="rgb(255, 255, 255)" stroke-linejoin="round" d=" M 799.429, 1365.291 799.477, 1364.949 799.558, 1364.371 799.605, 1364.023 799.688, 1363.424 799.735, 1363.079 799.800, 1362.571 799.815, 1362.455 799.779, 1362.726 799.800, 1362.571 799.864, 1362.103 799.911, 1361.742 799.955, 1361.382 799.993, 1361.076 799.954, 1361.393 799.955, 1361.382 800.046, 1360.709 800.097, 1360.344 800.146, 1359.980 800.225, 1359.424 800.251, 1359.246 800.195, 1359.618 800.225, 1359.424 800.312, 1358.878 800.372, 1358.512 800.444, 1358.089 800.507, 1357.715 800.433, 1358.146 " />
            <path fill="none" stroke-width="140.0" stroke-linecap="round" stroke-opacity="1.0" stroke="rgb(255, 255, 255)" stroke-linejoin="round" d=" M 799.347, 1365.851 799.297, 1366.189 " />
            <path fill="none" stroke-width="140.0" stroke-linecap="round" stroke-opacity="1.0" stroke="rgb(255, 255, 255)" stroke-linejoin="round" d=" M 799.084, 1367.647 799.168, 1367.084 799.217, 1366.760 " />
            <path fill="none" stroke-width="140.0" stroke-linecap="round" stroke-opacity="1.0" stroke="rgb(255, 255, 255)" stroke-linejoin="round" d=" M 798.906, 1368.758 799.002, 1368.137 799.042, 1367.885 " />
            <path fill="none" stroke-width="140.0" stroke-linecap="round" stroke-opacity="1.0" stroke="rgb(255, 255, 255)" stroke-linejoin="round" d=" M 798.993, 1368.194 798.941, 1368.516 " />
            <path fill="none" stroke-width="140.0" stroke-linecap="round" stroke-opacity="1.0" stroke="rgb(255, 255, 255)" stroke-linejoin="round" d=" M 798.802, 1369.392 798.858, 1369.072 " />
            <path fill="none" stroke-width="140.0" stroke-linecap="round" stroke-opacity="1.0" stroke="rgb(255, 255, 255)" stroke-linejoin="round" d=" M 798.761, 1369.613 798.707, 1369.926 " />
            <path fill="none" stroke-width="140.0" stroke-linecap="round" stroke-opacity="1.0" stroke="rgb(255, 255, 255)" stroke-linejoin="round" d=" M 798.066, 1373.473 798.169, 1372.933 798.269, 1372.403 798.322, 1372.115 798.426, 1371.552 798.524, 1371.017 798.620, 1370.474 798.671, 1370.170 " />
            <path fill="none" stroke-width="140.0" stroke-linecap="round" stroke-opacity="1.0" stroke="rgb(255, 255, 255)" stroke-linejoin="round" d=" M 795.735, 1385.773 795.842, 1385.200 795.949, 1384.629 796.056, 1384.058 796.162, 1383.489 796.269, 1382.920 796.375, 1382.353 796.481, 1381.786 796.587, 1381.221 796.693, 1380.657 796.799, 1380.095 796.905, 1379.534 797.011, 1378.974 797.117, 1378.416 797.222, 1377.860 797.328, 1377.305 797.434, 1376.752 797.539, 1376.201 797.645, 1375.651 797.750, 1375.104 797.856, 1374.559 797.961, 1374.015 798.066, 1373.473 " />
            <path fill="none" stroke-width="140.0" stroke-linecap="round" stroke-opacity="1.0" stroke="rgb(255, 255, 255)" stroke-linejoin="round" d=" M 798.214, 1372.646 798.066, 1373.473 798.116, 1373.201 " />
            <path fill="none" stroke-width="140.0" stroke-linecap="round" stroke-opacity="1.0" stroke="rgb(255, 255, 255)" stroke-linejoin="round" d=" M 795.303, 1388.078 795.400, 1387.559 795.518, 1386.911 795.625, 1386.337 " />
        </g>
    </g>
</svg>
